<svg xmlns="http://www.w3.org/2000/svg" width="32" height="32" viewBox="0 0 32 32"><title>Amazon-DocumentDB_Icon_32_Squid</title><g id="Working_Review" data-name="Working/Review"><g id="SQUID"><g id="_32x" data-name="32x"><polyline points="27.18 12.61 25.39 10.5 18.5 10.5 18.5 23.5 20 23.5" style="fill:none;stroke:#232f3e;stroke-linejoin:round"/><polygon points="20.5 25.5 29.5 25.5 29.5 14.65 27.44 12.5 20.5 12.5 20.5 25.5" style="fill:none;stroke:#232f3e;stroke-linejoin:round"/><polyline points="30 15.5 26.5 15.5 26.5 13" style="fill:none;stroke:#232f3e;stroke-linejoin:round"/><path d="M25,22.5h-.58c-.57,0-.41-.87-.41-.87,0-1.46-1-1.71-1-1.71s1-.24,1-1.7c0,0,0-.71.41-.72H25" style="fill:none;stroke:#232f3e;stroke-linejoin:round"/><path d="M26,17.5h.8c.57,0,.4.87.4.87,0,1.46,1,1.71,1,1.71s-1,.24-1,1.7c0,0,0,.71-.4.72H26" style="fill:none;stroke:#232f3e;stroke-linejoin:round"/><ellipse cx="13" cy="6" rx="9.5" ry="3.5" style="fill:none;stroke:#232f3e;stroke-linejoin:round"/><line x1="22.5" y1="5" x2="22.5" y2="9" style="fill:none;stroke:#232f3e;stroke-linejoin:round"/><path d="M20.89,27.59c-1.48,1.19-4.62,2-8.24,2C7.6,29.6,3.5,28,3.5,26V6" style="fill:none;stroke:#232f3e;stroke-linejoin:round"/><path d="M4,12.78c0,2,4.08,3.57,9.12,3.57a24.09,24.09,0,0,0,2.6-.15" style="fill:none;stroke:#232f3e;stroke-linejoin:round"/><path d="M4,19.78c0,2,4.08,3.57,9.12,3.57a24.14,24.14,0,0,0,2.6-.14" style="fill:none;stroke:#232f3e;stroke-linejoin:round"/><rect width="32" height="32" style="fill:none"/></g></g></g></svg>