<svg id="Icons_Final" data-name="Icons Final" xmlns="http://www.w3.org/2000/svg" width="32" height="32" viewBox="0 0 32 32"><title>Amazon-DynamoDB_Icon_32_Squid</title><g id="SQUID_Outines" data-name="SQUID Outines"><g id="_32x" data-name="32x"><rect width="32" height="32" style="fill:none"/></g><g id="_16x" data-name="16x"><path d="M7.86,11.22l.28-1a9.13,9.13,0,0,1-1.89-.78l-.5.87A10.48,10.48,0,0,0,7.86,11.22Z" style="fill:#232f3e"/><path d="M7.86,19.3l.28-1a9.14,9.14,0,0,1-1.89-.77l-.5.86A9.44,9.44,0,0,0,7.86,19.3Z" style="fill:#232f3e"/><path d="M5.75,26.52a9.93,9.93,0,0,0,2.11.87l.28-1a8.61,8.61,0,0,1-1.89-.78Z" style="fill:#232f3e"/><path d="M21.3,19.67a5.58,5.58,0,0,1-.95.49l.39.93a8.72,8.72,0,0,0,.81-.41,1.59,1.59,0,0,1,.76,1.14h0c0,1.41-3.56,3-8.65,3S5,23.23,5,21.82a1.6,1.6,0,0,1,.77-1.14,16.84,16.84,0,0,0,7.89,1.63h.22v-1h-.22c-3.16,0-6.09-.63-7.65-1.64-.46-.31-1-.78-1-1.34H5V15.48c1.55,1.3,4.76,2.17,8.66,2.17.52,0,1,0,1.54-.06l-.07-1q-.72.06-1.47.06c-5.11,0-8.66-1.57-8.66-3a1.62,1.62,0,0,1,.76-1.15,15.6,15.6,0,0,0,6.74,1.6l.05-1A14.28,14.28,0,0,1,6,11.51c-.46-.3-1-.78-1-1.32v0H5V7.32c1.55,1.31,4.76,2.17,8.66,2.17h.44l0-1h-.4C8.55,8.49,5,6.92,5,5.51s3.55-3,8.66-3a18.17,18.17,0,0,1,6.58,1.09l.38-.92a19.09,19.09,0,0,0-7-1.17c-5.5,0-9.64,1.7-9.66,4H4v4.69H4a2.38,2.38,0,0,0,.92,1.73A2.35,2.35,0,0,0,4,13.66H4v4.69H4a2.38,2.38,0,0,0,.92,1.73A2.35,2.35,0,0,0,4,21.82H4V26.5a0,0,0,0,0,0,0c0,2.25,4.17,3.94,9.65,3.94s9.65-1.71,9.65-4h0V21.83h0a2.33,2.33,0,0,0-.92-1.74,2.37,2.37,0,0,0,.92-1.74h-1C22.31,18.88,21.76,19.36,21.3,19.67Zm-7.64,9.8c-5.11,0-8.66-1.57-8.66-3H5V23.64c1.55,1.3,4.76,2.16,8.66,2.16s7.1-.86,8.65-2.16V26.5h0C22.3,27.91,18.75,29.47,13.66,29.47Z" style="fill:#232f3e"/><path d="M28.84,9H25l1.47-4.34a.48.48,0,0,0-.06-.45A.52.52,0,0,0,26,4H18.42a.5.5,0,0,0-.44.27l-3.69,7a.5.5,0,0,0,0,.49.49.49,0,0,0,.42.24h3.39L15,23.37a.5.5,0,0,0,.23.57.57.57,0,0,0,.25.06.48.48,0,0,0,.36-.16l13.34-14A.5.5,0,0,0,28.84,9ZM16.5,21.72l2.76-10.09a.51.51,0,0,0-.48-.63H15.56l3.17-6h6.61L23.87,9.34a.5.5,0,0,0,.47.66h3.33Z" style="fill:#232f3e"/></g></g></svg>