<svg id="Icons_Final" data-name="Icons Final" xmlns="http://www.w3.org/2000/svg" width="48" height="48" viewBox="0 0 48 48"><title>Amazon-DynamoDB_Icon_48_Squid</title><g id="SQUID_Outines" data-name="SQUID Outines"><g id="_48x" data-name="48x"><rect width="48" height="48" style="fill:none"/><rect width="48" height="48" style="fill:none"/></g><g id="_16x" data-name="16x"><path d="M12.89,17,13.46,15a13.8,13.8,0,0,1-2.41-.93l-.91,1.78A16.1,16.1,0,0,0,12.89,17Z" style="fill:#232f3e"/><path d="M12.89,29,13.46,27a13.8,13.8,0,0,1-2.41-.93l-.91,1.78A17,17,0,0,0,12.89,29Z" style="fill:#232f3e"/><path d="M10.14,39.89A17,17,0,0,0,12.89,41L13.46,39a13.8,13.8,0,0,1-2.41-.93Z" style="fill:#232f3e"/><path d="M34.58,29.75A4.32,4.32,0,0,0,36,27H34a4,4,0,0,1-1.8,2.15,8.3,8.3,0,0,1-1.37.7l.77,1.85A10.93,10.93,0,0,0,33,31c.49.36,1.09.92,1.09,1.52,0,1.71-4.76,4.09-12.53,4.09S9,34.24,9,32.53C9,32,8.68,31.3,9,31c2.67,1.52,7.75,2.52,12.53,2.52h.33v-2h-.33c-4.62,0-8.9-.91-11.17-2.37C9.49,28.58,9,28,9,27.43H9V23.8c2.69,1.89,7.72,2.89,12.53,2.89.79,0,1.56,0,2.3-.08l-.14-2c-.69.05-1.42.07-2.16.07C13.77,24.69,9,22.31,9,20.61a2.72,2.72,0,0,1,.73-1.45,23.52,23.52,0,0,0,10.08,2.39l.09-2c-4-.18-7.55-1.05-9.54-2.33C9.49,16.65,9,16,9,15.52v0H9V11.19c2.69,1.9,7.72,2.9,12.53,2.9h.68l-.08-2h-.6C13.77,12.09,9,9.71,9,8s4.77-4.09,12.53-4.09A26.47,26.47,0,0,1,31.16,5.5l.77-1.85a28.71,28.71,0,0,0-10.4-1.74C14.49,1.91,7,4.05,7,8H7V35H7v5h.06c.6,3.57,7.57,5.44,14.47,5.44,8,0,14.47-2.89,14.47-6.44V33.07a3.19,3.19,0,0,0,.06-.54A3.63,3.63,0,0,0,34.58,29.75Zm-13,13.69C13.77,43.44,9,41.15,9,39.5H9V35.72c2.7,1.9,7.72,2.9,12.53,2.9s9.76-1,12.47-2.85V39C34,40.77,29,43.44,21.53,43.44Z" style="fill:#232f3e"/><path d="M42,15H37.44l2.5-6.65A1,1,0,0,0,39,7H28a1,1,0,0,0-.91.59l-5,11a1,1,0,0,0,.07.95A1,1,0,0,0,23,20h4.61L23.05,33.68a1,1,0,0,0,.42,1.17A1,1,0,0,0,24,35a1,1,0,0,0,.71-.29l18-18a1,1,0,0,0,.21-1.09A1,1,0,0,0,42,15ZM26.29,30.3l3.66-11a1,1,0,0,0-.14-.9A1,1,0,0,0,29,18H24.55l4.09-9h8.92l-2.5,6.65A1,1,0,0,0,36,17h3.58Z" style="fill:#232f3e"/></g></g></svg>