<svg id="Icons_Final" data-name="Icons Final" xmlns="http://www.w3.org/2000/svg" width="48" height="48" viewBox="0 0 48 48"><title>Amazon-ElastiCache-for-Redis_Icon_48_Squid</title><g id="Squid_Ink" data-name="Squid Ink"><g id="_16x_copy" data-name="16x copy"><path d="M20.11,39.36h2.07V34.69h2.07L27,39.36h2.07l-3-5a3.64,3.64,0,0,0,1.71-1.27,3.38,3.38,0,0,0,.58-2,3.23,3.23,0,0,0-1-2.54,4,4,0,0,0-2.78-1h-4.4Zm2.07-10.18h2.11a1.72,1.72,0,0,1,1.94,2,1.74,1.74,0,0,1-2,2H22.18ZM24,15c-6,0-12,1.6-12,4.67a1.52,1.52,0,0,0,0,.21h0V40.33C12,43.4,18,45,24,45s12-1.6,12-4.67V19.88h0a1.52,1.52,0,0,0,0-.21C36,16.6,30,15,24,15ZM34,26.7c0,.35-.75,1.09-2.8,1.74l.6,1.9a10.63,10.63,0,0,0,2.2-.92v4.09c0,.35-.75,1.09-2.8,1.73l.6,1.91a11.21,11.21,0,0,0,2.2-.92v4.1C34,41.27,30.2,43,24,43s-10-1.73-10-2.67v-4.1a11.27,11.27,0,0,0,2.23.93l.59-1.91C14.75,34.61,14,33.86,14,33.51V29.42a10.7,10.7,0,0,0,2.23.93l.59-1.91C14.75,27.8,14,27.05,14,26.7V22.36c2.27,1.31,6.14,2,10,2s7.74-.67,10-2ZM24,22.34c-6.2,0-10-1.73-10-2.67S17.8,17,24,17s10,1.73,10,2.67S30.2,22.34,24,22.34ZM21,13V10H18v4H16V9a1,1,0,0,1,1-1h5a1,1,0,0,1,1,1v4Zm9,1V10H27v3H25V9a1,1,0,0,1,1-1h5a1,1,0,0,1,1,1v5Zm8-4H36v5H34V9a1,1,0,0,1,1-1h4a1,1,0,0,1,1,1V22a1,1,0,0,1-1,1H37V21h1ZM10,21h1v2H9a1,1,0,0,1-1-1V9A1,1,0,0,1,9,8h4a1,1,0,0,1,1,1v6H12V10H10Zm33.5-9.5A1.5,1.5,0,0,0,45,13a1,1,0,0,1,1,1V30a1,1,0,0,1-1,1H37V29h4V27H37V25h5a1,1,0,0,1,1,1v3h1V14.85a3.49,3.49,0,0,1,0-6.7V6H4V8.15a3.49,3.49,0,0,1,0,6.7V29H5V26a1,1,0,0,1,1-1h5v2H7v2h4v2H3a1,1,0,0,1-1-1V14a1,1,0,0,1,1-1,1.5,1.5,0,0,0,0-3A1,1,0,0,1,2,9V5A1,1,0,0,1,3,4H45a1,1,0,0,1,1,1V9a1,1,0,0,1-1,1A1.5,1.5,0,0,0,43.5,11.5Z" style="fill:#232f3e"/></g></g></svg>