<svg id="Icons_Final" data-name="Icons Final" xmlns="http://www.w3.org/2000/svg" width="48" height="48" viewBox="0 0 48 48"><title>Amazon-Elasticache_Icon_48_Squid</title><g id="Squid_Ink" data-name="Squid Ink"><g id="_48x-2" data-name="48x"><path d="M35,19.7c0,2.05-4.92,3.71-11,3.71S13,21.75,13,19.7,17.92,16,24,16,35,17.66,35,19.7Z" style="fill:none;stroke:#232f3e;stroke-linejoin:round;stroke-width:2px"/><path d="M13,19.7V40.3c0,2,4.92,3.7,11,3.7s11-1.66,11-3.7V19.7" style="fill:none;stroke:#232f3e;stroke-linejoin:round;stroke-width:2px"/><path d="M35,26.69c0,2-4.92,3.7-11,3.7s-11-1.65-11-3.7" style="fill:none;stroke:#232f3e;stroke-linejoin:round;stroke-width:2px"/><path d="M35,33.72c0,2.05-4.92,3.71-11,3.71s-11-1.66-11-3.71" style="fill:none;stroke:#232f3e;stroke-linejoin:round;stroke-width:2px"/><polyline points="11 26 6 26 6 30" style="fill:none;stroke:#232f3e;stroke-linejoin:round;stroke-width:2px"/><polyline points="37 26 42 26 42 30" style="fill:none;stroke:#232f3e;stroke-linejoin:round;stroke-width:2px"/><polyline points="22 13 22 9 17 9 17 14" style="fill:none;stroke:#232f3e;stroke-linejoin:round;stroke-width:2px"/><polyline points="31 14 31 9 26 9 26 13" style="fill:none;stroke:#232f3e;stroke-linejoin:round;stroke-width:2px"/><polyline points="37 22 39 22 39 9 35 9 35 15" style="fill:none;stroke:#232f3e;stroke-linejoin:round;stroke-width:2px"/><polyline points="13 15 13 9 9 9 9 22 11 22" style="fill:none;stroke:#232f3e;stroke-linejoin:round;stroke-width:2px"/><path d="M37,30h8V14a2.5,2.5,0,0,1,0-5V5H3V9a2.5,2.5,0,0,1,0,5V30h8" style="fill:none;stroke:#232f3e;stroke-linejoin:round;stroke-width:2px"/></g></g></svg>