<svg id="Icons_Final" data-name="Icons Final" xmlns="http://www.w3.org/2000/svg" width="32" height="32" viewBox="0 0 32 32"><title>Amazon-Aurora_Icon_32_Squid</title><g id="Squid"><g id="_32x" data-name="32x"><rect width="32" height="32" style="fill:none"/><path d="M16,24.26c0,1.06-2.78,2.24-6.5,2.24S3,25.32,3,24.26V22a17.81,17.81,0,0,0,6,.93,21,21,0,0,0,4.42-.45l-.22-1a19.57,19.57,0,0,1-4.2.43,16,16,0,0,1-6-1V16.75a19.19,19.19,0,0,0,5.85.82A16,16,0,0,0,16,16.18V18h1V9c0-1.95-3.86-3-7.5-3S2,7.05,2,9V24.26c0,2.11,3.86,3.24,7.5,3.24S17,26.37,17,24.26V23H16ZM8.85,16.57A17.39,17.39,0,0,1,3,15.68V10.55C4.38,11.5,7,12,9.5,12s5.12-.5,6.5-1.45V15C14.86,15.93,12,16.57,8.85,16.57ZM9.5,7c4,0,6.5,1.18,6.5,2s-2.53,2-6.5,2S3,9.82,3,9,5.53,7,9.5,7Z" style="fill:#232f3e"/><path d="M29.59,19.78c-3.2,0-7-3.94-7-7.28a.5.5,0,0,0-.5-.5.51.51,0,0,0-.5.5c0,3.34-3.79,7.28-7,7.28a.5.5,0,0,0,0,1c3.28,0,7,3.73,7,7a.5.5,0,0,0,.5.5.5.5,0,0,0,.5-.5c0-3.27,3.73-7,7-7a.5.5,0,1,0,0-1Zm-7.5,5.62a9.82,9.82,0,0,0-5.16-5.14,10.2,10.2,0,0,0,5.16-5.34,10.25,10.25,0,0,0,5.17,5.34A9.84,9.84,0,0,0,22.09,25.4Z" style="fill:#232f3e"/><polygon points="25 12 26 12 26 11 27 11 27 10 26 10 26 9 25 9 25 10 24 10 24 11 25 11 25 12" style="fill:#232f3e"/><polygon points="19 6 20 6 20 5 21 5 21 4 20 4 20 3 19 3 19 4 18 4 18 5 19 5 19 6" style="fill:#232f3e"/></g></g></svg>