<?xml version="1.0" encoding="UTF-8"?>
<svg width="28px" height="27px" viewBox="0 0 28 27" version="1.1" xmlns="http://www.w3.org/2000/svg" xmlns:xlink="http://www.w3.org/1999/xlink">
    <!-- Generator: Sketch 54.1 (76490) - https://sketchapp.com -->
    <title>Group 15</title>
    <desc>Created with Sketch.</desc>
    <g id="Page-1" stroke="none" stroke-width="1" fill="none" fill-rule="evenodd">
        <g id="Group-15" fill="#232F3D">
            <polygon id="Fill-1" points="16.5039 22.5913 16.5039 16.9193 14.5359 20.6903 13.3339 20.6903 11.4329 16.9413 11.4329 22.5913 10.2089 22.5913 10.2089 15.0173 11.6949 15.0173 13.9679 19.5313 16.2849 15.0173 17.7279 15.0173 17.7279 22.5913"></polygon>
            <g id="Group-14">
                <path d="M19.2646,17.145 C20.0386,16.903 20.5916,16.633 20.9996,16.357 L20.9996,19.477 C20.9996,19.809 20.4676,20.363 18.9656,20.832 L19.2646,21.786 C20.0386,21.544 20.5916,21.274 20.9996,20.998 L20.9996,23.496 C20.9996,24.313 18.2736,25.5 14.0006,25.5 C9.7276,25.5 6.9996,24.313 6.9996,23.496 L6.9996,21 C7.4446,21.3 8.0276,21.567 8.7556,21.792 L9.0516,20.837 C7.5366,20.368 6.9996,19.812 6.9996,19.477 L6.9996,16.359 C7.4446,16.659 8.0276,16.926 8.7556,17.152 L9.0516,16.197 C7.5366,15.728 6.9996,15.17 6.9996,14.836 L6.9996,11.572 C8.4396,12.543 11.2306,13.046 14.0006,13.046 C16.7706,13.046 19.5606,12.543 20.9996,11.572 L20.9996,14.836 C20.9996,15.168 20.4676,15.722 18.9656,16.191 L19.2646,17.145 Z M14.0006,8.039 C18.2736,8.039 20.9996,9.225 20.9996,10.042 C20.9996,10.859 18.2736,12.046 14.0006,12.046 C9.7276,12.046 6.9996,10.859 6.9996,10.042 C6.9996,9.225 9.7276,8.039 14.0006,8.039 L14.0006,8.039 Z M14.0006,7.039 C10.0766,7.039 6.1136,8.045 6.0096,9.967 L5.9996,9.967 L5.9996,23.496 C5.9996,25.468 10.0256,26.5 14.0006,26.5 C17.9756,26.5 21.9996,25.468 21.9996,23.496 L21.9996,9.967 L21.9906,9.967 C21.8866,8.045 17.9236,7.039 14.0006,7.039 L14.0006,7.039 Z" id="Fill-2"></path>
                <path d="M13,6 L13,3.5 C13,3.224 12.776,3 12.5,3 L9.5,3 C9.224,3 9,3.224 9,3.5 L9,6 L10,6 L10,4 L12,4 L12,6 L13,6 Z" id="Fill-4"></path>
                <path d="M19,6 L19,3.5 C19,3.224 18.776,3 18.5,3 L15.5,3 C15.224,3 15,3.224 15,3.5 L15,6 L16,6 L16,4 L18,4 L18,6 L19,6 Z" id="Fill-6"></path>
                <path d="M23,12 L23.5,12 C23.776,12 24,11.776 24,11.5 L24,3.5 C24,3.224 23.776,3 23.5,3 L21.5,3 C21.224,3 21,3.224 21,3.5 L21,7 L22,7 L22,4 L23,4 L23,12 Z" id="Fill-8"></path>
                <path d="M6,7 L7,7 L7,3.5 C7,3.224 6.776,3 6.5,3 L4.5,3 C4.224,3 4,3.224 4,3.5 L4,11.5 C4,11.776 4.224,12 4.5,12 L5,12 L5,4 L6,4 L6,7 Z" id="Fill-10"></path>
                <path d="M27.5,4.5 C27.776,4.5 28,4.276 28,4 L28,0.5 C28,0.224 27.776,0 27.5,0 L0.5,0 C0.224,0 0,0.224 0,0.5 L0,4 C0,4.276 0.224,4.5 0.5,4.5 C1.052,4.5 1.5,4.949 1.5,5.5 C1.5,6.051 1.052,6.5 0.5,6.5 C0.224,6.5 0,6.724 0,7 L0,16.5 C0,16.776 0.224,17 0.5,17 L2,17 L3,17 L5,17 L5,16 L3,16 L3,15 L5,15 L5,14 L2.5,14 C2.224,14 2,14.224 2,14.5 L2,16 L1,16 L1,7.437 C1.861,7.214 2.5,6.43 2.5,5.5 C2.5,4.57 1.861,3.786 1,3.563 L1,1 L27,1 L27,3.563 C26.139,3.786 25.5,4.57 25.5,5.5 C25.5,6.43 26.139,7.214 27,7.437 L27,16 L26,16 L26,14.5 C26,14.224 25.776,14 25.5,14 L23,14 L23,15 L25,15 L25,16 L23,16 L23,17 L25,17 L26,17 L27.5,17 C27.776,17 28,16.776 28,16.5 L28,7 C28,6.724 27.776,6.5 27.5,6.5 C26.948,6.5 26.5,6.051 26.5,5.5 C26.5,4.949 26.948,4.5 27.5,4.5" id="Fill-12"></path>
            </g>
        </g>
    </g>
</svg>