<?xml version="1.0" encoding="UTF-8"?>
<svg width="125px" height="45px" viewBox="0 0 125 45" version="1.1" xmlns="http://www.w3.org/2000/svg" xmlns:xlink="http://www.w3.org/1999/xlink">
    <!-- Generator: Sketch 51.3 (57544) - http://www.bohemiancoding.com/sketch -->
    <title>Capital-One_logo</title>
    <desc>Created with Sketch.</desc>
    <defs></defs>
    <g id="Design-assets" stroke="none" stroke-width="1" fill="none" fill-rule="evenodd">
        <g id="Capital-One_logo" fill-rule="nonzero">
            <path d="M84.4128607,32.2898116 C84.405852,32.2968203 84.3988433,32.2968203 84.3988433,32.303829 C79.1002612,36.0534869 72.8274689,39.99238 66.0780846,44.1275168 L65.8117537,44.2817083 C65.7206405,44.3447867 65.6996144,44.4709434 65.7626928,44.5620566 C65.8257711,44.6531698 65.9519279,44.6741959 66.043041,44.6111175 L66.2673197,44.4919695 C71.9934328,41.5062606 78.5675995,37.9598551 85.1838184,34.3223364 C85.2188619,34.3013103 85.2539055,34.2802842 85.288949,34.2662668 C84.9244963,33.663518 84.6231219,33.0046996 84.4128607,32.2898116 Z M119.176045,4.1498551 C110.828675,-5.0595852 57.1069403,3.22470585 34.2655659,8.21490485 L33.7329042,8.32704415 C33.6207649,8.34807027 33.5506779,8.45320087 33.571704,8.55833147 C33.5927301,8.67047077 33.6978607,8.74055784 33.8029913,8.71953172 L34.3286443,8.61440112 C53.2521517,5.24321331 92.6130473,0.575414801 101.079565,8.97184515 C103.665777,11.5370317 103.049011,14.8311238 100.049285,18.7279646 C101.661287,19.7652531 102.810715,21.3982817 103.329359,23.4378153 C115.033899,15.6721685 122.890659,8.24994838 119.176045,4.1498551 Z" id="Shape" fill="#D03027"></path>
            <g id="Group" transform="translate(0.000000, 18.222637)" fill="#004977">
                <path d="M87.7910572,11.649171 C87.8961878,14.8871934 89.9497388,17.5434932 92.620056,17.5434932 C97.79949,17.5434932 100.007233,11.1795877 99.853041,6.93231157 C99.7409017,3.68728047 97.6382898,1.03798943 94.9679726,1.03798943 C90.517444,1.03098072 87.6368657,7.36685137 87.7910572,11.649171 Z M85.0576617,11.4739534 C84.8684266,5.94408396 89.1998072,0.288057836 95.4936256,0.288057836 C99.6988495,0.288057836 102.453271,3.09154042 102.607463,7.38787749 C102.810715,13.2191213 98.7596828,18.573773 92.1785075,18.573773 C87.9592662,18.573773 85.2048445,15.7772991 85.0576617,11.4739534 Z" id="Shape"></path>
                <path d="M25.4507158,10.0161424 C25.2264372,10.1002469 24.9390802,10.1843514 24.5746275,10.2614471 C24.2171835,10.3455516 23.558365,10.4576909 22.605181,10.6118825 C21.9463626,10.7170131 21.4907966,10.8501785 21.2314745,11.0394136 C20.9861698,11.2216399 20.8389869,11.4389098 20.7969347,11.7122494 C20.7478738,11.9996063 20.8389869,12.223885 21.0842917,12.4061113 C21.3366051,12.581329 21.7571275,12.6724422 22.3528675,12.6724422 C22.8014248,12.6724422 23.2359646,12.6023551 23.6564869,12.462181 C24.084018,12.3220068 24.4484708,12.1327718 24.7218103,11.8944757 C24.9250628,11.7192581 25.0722456,11.4949795 25.184385,11.2216399 C25.254472,11.0394136 25.3455852,10.6399173 25.4507158,10.0161424 Z M30.9175068,6.61691978 C30.8964807,7.12154664 30.8053675,7.57010386 30.6722021,8.34807027 L29.7470529,13.5415218 C29.6699571,14.0040964 29.838166,14.3615404 30.2656971,14.6138539 L30.2376623,14.8171063 L24.9390802,14.8100976 L24.8900193,13.4924608 C24.1190616,13.9550354 23.1869036,14.347523 22.3458588,14.5788103 C21.5048141,14.7960802 20.8249695,14.8871934 19.8087071,14.8871934 C18.0985827,14.8871934 17.1173638,14.7119757 16.4375193,14.1162357 C15.750666,13.5064782 15.4142481,13.0999733 15.4492917,12.2589285 C15.4773265,11.7753277 15.7296399,11.1515529 16.087084,10.7170131 C16.4515367,10.2754646 16.9561636,9.98810759 17.495834,9.72878545 C18.0425131,9.46946331 18.6873141,9.28022823 19.619472,9.1330454 C20.5586387,8.97885386 21.8622581,8.83167102 23.607426,8.68448818 C24.5255665,8.60739241 25.0862631,8.39713122 25.3455852,8.29200062 C25.7100379,8.15182649 25.8572208,7.99062624 25.9062817,7.69626057 C26.0044036,7.16359888 25.8361947,6.8552158 25.1213066,6.71504167 C23.2149384,6.33657152 19.6334894,6.96034639 17.7901996,7.41591231 L18.7924447,4.71055162 C21.2244658,4.35310759 23.5022954,4.12882898 25.9062817,4.12882898 C29.7400442,4.12882898 30.9595591,5.21517848 30.9175068,6.61691978 Z" id="Shape"></path>
                <path d="M46.2805914,14.8100976 L48.1168725,4.43020336 L53.191176,4.43020336 L51.3548949,14.8100976 L46.2805914,14.8100976 Z M48.3972208,2.02621704 C48.5514123,1.17115485 49.897084,0.484301617 51.3969471,0.484301617 C52.903819,0.484301617 54.0041859,1.17816356 53.8570031,2.02621704 C53.6958029,2.88127923 52.3571399,3.57514117 50.8432593,3.57514117 C49.3433961,3.57514117 48.2500379,2.88127923 48.3972208,2.02621704 Z" id="Shape"></path>
                <path d="M71.2084577,10.0371685 C70.9771704,10.1142643 70.6828047,10.1983688 70.3253607,10.2824733 C69.9679167,10.3665777 69.3090983,10.4717083 68.3559142,10.6258999 C67.7041045,10.7310305 67.2415299,10.8641959 66.9892164,11.053431 C66.7439117,11.2286486 66.6037376,11.4529272 66.5476679,11.7192581 C66.4915983,12.006615 66.5967289,12.2379024 66.8350249,12.41312 C67.094347,12.5883377 67.5148694,12.6724422 68.1106095,12.6724422 C68.552158,12.6724422 68.9866978,12.6093638 69.4142289,12.4761984 C69.8487687,12.3290155 70.2062127,12.1467892 70.4865609,11.9084932 C70.6828047,11.7332755 70.8299876,11.5019882 70.9351182,11.2356573 C71.0052052,11.0604397 71.0963184,10.6609434 71.2084577,10.0371685 Z M76.6752488,6.63093719 C76.6542226,7.14257276 76.5631095,7.59112998 76.4229353,8.36208769 L75.5047948,13.5625479 C75.427699,14.0181138 75.595908,14.3825665 76.0234391,14.63488 L75.9954042,14.8171063 L70.6968221,14.824115 L70.6547699,13.4994695 C69.8838122,13.9690529 68.9446455,14.3615404 68.1106095,14.585819 C67.2695647,14.8100976 66.5897201,14.9012108 65.5594403,14.9012108 C63.8493159,14.9012108 62.8751057,14.7330019 62.1952612,14.1302531 C61.5013993,13.5134869 61.17199,13.1139907 61.2070336,12.2729459 C61.2280597,11.7823364 61.4803731,11.1585616 61.8448259,10.7310305 C62.2092786,10.2824733 62.7139055,10.002125 63.2605846,9.74280286 C63.8072637,9.48348072 64.4520647,9.29424565 65.3772139,9.1400541 C66.3163806,8.99287127 67.6270087,8.83867973 69.3721766,8.69149689 C70.2833085,8.61440112 70.844005,8.41114863 71.1033271,8.30601803 C71.4747886,8.16584391 71.6149627,8.00464366 71.6710323,7.70326928 C71.7621455,7.17761629 71.6009453,6.86923321 70.8930659,6.72205037 C68.9726803,6.34358022 65.4052488,6.9673551 63.561959,7.42292102 L64.5571953,4.71756032 C66.9962251,4.36011629 69.267046,4.13583769 71.6710323,4.13583769 C75.4907774,4.14284639 76.7102923,5.2362046 76.6752488,6.63093719 Z" id="Shape"></path>
                <path d="M14.7624384,11.0814658 C13.1083837,11.410875 12.1832345,11.5370317 10.5502058,11.5370317 C8.12519341,11.5370317 6.19779913,10.3315342 6.30292973,8.12379167 C6.3800255,6.65196331 8.1181847,3.55411505 12.5406785,3.55411505 C13.9354111,3.55411505 15.0217606,3.79941978 16.4865802,4.63345585 L17.1313812,1.03098072 C15.1409086,0.281049129 13.8232718,0.168909826 12.1131474,0.182927239 C6.30993843,0.246005597 0.745025498,2.88127923 0.0511635572,8.24293968 C-0.64970709,13.6887046 6.00155535,15.0554024 8.95222077,15.041385 C10.6553364,15.0343762 12.4285392,14.9642892 14.0825939,14.7960802 L14.7624384,11.0814658 Z" id="Shape"></path>
                <path d="M55.9876499,4.37413371 L56.3521026,2.25750435 L61.6576934,1.10106779 L61.0899882,4.367125 L63.6902183,4.367125 L63.1996088,6.45571953 L60.6764745,6.44871082 L59.1415678,14.7960802 C59.1415678,14.7960802 54.0322208,14.7610367 54.0111947,14.7960802 L55.5390927,6.46973694 L53.6187071,6.46973694 L54.0111947,4.367125 L55.9876499,4.367125 L55.9876499,4.37413371 Z" id="Shape"></path>
                <polygon id="Shape" points="84.2960279 0.469996195 81.8289632 14.8028009 76.6635465 14.8098096 79.2637766 0.329822066"></polygon>
                <path d="M39.5662506,6.8622245 C38.9004235,6.8622245 38.2976748,7.06547699 37.7650131,7.46497326 C37.2323514,7.87147823 36.8959335,8.46020958 36.762768,9.238176 C36.6015678,10.1422991 36.6996897,10.7941088 37.0571337,11.1936051 C37.4215864,11.5931014 37.9402307,11.7963539 38.627084,11.7963539 C39.0896586,11.7963539 39.5662506,11.7122494 39.9166859,11.5370317 C40.3512257,11.3057444 40.6526001,11.0674484 40.9119223,10.6819695 C41.1922705,10.2824733 41.3744969,9.83391604 41.4726188,9.31527177 C41.6198016,8.49525311 41.4936449,7.88549565 41.1151748,7.47899067 C40.7437133,7.0724857 40.2320777,6.8622245 39.5662506,6.8622245 Z M30.3287755,18.3915466 L32.8028489,4.48627301 L37.2603862,4.48627301 L36.9169596,6.25947575 C37.3024384,5.72681405 37.9192046,5.29227425 38.7742668,4.94183893 C39.6363377,4.59140361 40.6035392,4.33208147 41.6548451,4.33208147 C42.8182904,4.33208147 43.5331785,4.39515983 44.4022581,4.84371704 C45.264329,5.29928296 45.8740864,5.95810137 46.1964869,6.81316356 C46.5329049,7.65420833 46.6029919,8.60739241 46.4207655,9.63767226 C46.1193912,11.3548053 45.2853551,12.700477 43.9116486,13.6957133 C42.5519596,14.6909496 41.3254359,14.9502718 39.580268,14.9572805 C38.9635019,14.9572805 38.4448576,14.8942021 38.0173265,14.7890715 C37.5968041,14.6769322 37.2603862,14.5437668 37.0080728,14.3825665 C36.762768,14.2213663 36.5034459,13.990079 36.1740367,13.6256262 L35.3470093,18.3915466 L30.3287755,18.3915466 Z" id="Shape"></path>
                <path d="M122.435093,8.13780908 C122.407058,7.30377301 121.986536,6.73606779 121.124465,6.73606779 C119.042879,6.73606779 116.828128,10.815135 116.449658,12.4551903 C119.862898,12.462181 122.519198,10.4296561 122.435093,8.13780908 Z M122.88365,14.5297494 L123.283147,14.8030889 C122.266884,16.8706573 120.199316,18.5317208 117.774303,18.5317208 C115.79084,18.5317208 114.157811,17.2070752 114.073706,14.7259932 C113.912506,10.2754646 118.082687,6.14733644 121.495927,6.14733644 C122.960746,6.14733644 124.320435,6.78512873 124.376505,8.36208769 C124.502662,11.9014845 119.533489,12.9808252 116.260423,13.057921 C116.155292,13.4293825 116.11324,13.8008439 116.134266,14.3615404 C116.190336,15.8263601 117.073433,17.0598924 118.909714,17.0598924 C120.493682,17.0598924 122.077649,15.7843078 122.88365,14.5297494 Z" id="Shape"></path>
                <path d="M102.530367,8.02566978 C102.880802,7.97660883 103.448507,7.91353047 103.693812,7.91353047 C104.065274,7.91353047 104.415709,7.98361754 104.436735,8.35507898 C104.443744,8.57234888 104.051256,10.1493078 103.967152,10.5137606 L103.175168,14.0040964 C102.852767,15.4338725 102.509341,16.926727 102.200958,18.1111984 L104.233483,18.1111984 L105.375902,12.581329 C108.859229,8.95081903 110.2049,7.76634764 111.024919,7.76634764 C111.396381,7.76634764 111.648694,7.96259142 111.66972,8.40413993 C111.690746,9.04193221 111.29125,10.4927345 111.158085,10.9132568 L109.994639,14.9432631 C109.728308,15.8473862 109.532065,16.6674049 109.553091,17.2491275 C109.588134,18.1322245 110.120796,18.5247121 110.919789,18.5247121 C112.405634,18.5247121 113.484975,16.9757879 114.424142,15.4548986 L114.150802,14.9572805 C113.772332,15.5670379 112.889235,16.9057009 112.195373,16.9057009 C111.978103,16.9057009 111.767842,16.758518 111.760833,16.3940653 C111.739807,15.924482 111.936051,15.2166026 112.076225,14.7470193 L113.372836,10.0231511 C113.723271,8.71953172 113.884471,7.88549565 113.877463,7.43693843 C113.842419,6.55384142 113.330784,6.14032774 112.5388,6.14032774 C111.200137,6.14032774 109.426934,7.12154664 105.663259,11.4459185 L105.607189,11.4459185 L106.083781,9.33629789 C106.343103,8.17986132 106.595417,6.97436381 106.833713,6.14032774 C105.530093,6.60991107 103.665777,7.13556405 102.51635,7.35984266 L102.530367,8.02566978 Z" id="Shape"></path>
            </g>
        </g>
    </g>
</svg>