<?xml version="1.0" encoding="UTF-8"?>
<svg width="195px" height="36px" viewBox="0 0 195 36" version="1.1" xmlns="http://www.w3.org/2000/svg" xmlns:xlink="http://www.w3.org/1999/xlink">
    <!-- Generator: Sketch 51.3 (57544) - http://www.bohemiancoding.com/sketch -->
    <title>Johnson-and-Johnson_Logo</title>
    <desc>Created with Sketch.</desc>
    <defs></defs>
    <g id="Design-assets" stroke="none" stroke-width="1" fill="none" fill-rule="evenodd">
        <g id="Johnson-and-Johnson_Logo" fill="#D51900">
            <path d="M70.7189575,13.1765695 C70.7189575,12.8578458 70.9357413,12.6875158 71.2080113,12.6875158 C71.6686767,12.6875158 72.3641911,13.1765695 72.7564664,14.1546769 C72.6158151,14.1546769 72.4041928,14.1972595 72.2622511,14.1972595 C71.4235046,14.1972595 70.7189575,13.7985323 70.7189575,13.1765695 Z M19.9735043,13.1765695 C19.9735043,12.8578458 20.1812553,12.6875158 20.4651388,12.6875158 C20.9141908,12.6875158 21.5813168,13.1765695 21.9684306,14.1546769 C20.6728899,14.1546769 19.9735043,13.8746647 19.9735043,13.1765695 Z M29.7610307,8.12215408 C29.7610307,2.88966635 30.7804302,2.08576009 31.0965731,2.08576009 C31.6591785,2.08576009 31.7262783,2.43674324 31.7262783,4.44328293 C31.7262783,6.50530892 30.8475301,9.20349188 29.7610307,10.6848472 L29.7610307,8.12215408 Z M65.3896913,13.2810902 C64.7857939,14.1224175 64.2967403,15.3173086 64.2967403,16.856731 C64.2967403,19.8052476 65.9781043,22.6195646 69.2453446,22.6195646 C72.4041928,22.6195646 74.6171932,20.1239713 74.6171932,16.6438184 C74.6171932,15.6334516 74.5784819,15.4940905 74.5126725,15.0747173 C75.2468983,14.7547033 75.8804745,14.2656496 76.3733993,13.8746647 C76.7927726,13.5585217 77.1063348,13.3817398 77.3566684,13.3817398 C77.6715208,13.3817398 77.8095915,13.6282022 77.8095915,14.0837061 L77.8095915,20.9691697 C77.8095915,22.0905092 78.1644457,22.6195646 79.0380325,22.6195646 C79.8432291,22.6195646 80.4097056,22.0543785 80.7232676,21.3885428 C81.8846089,18.9665011 83.5659731,15.7379722 84.300199,14.512112 C84.4769808,14.2308093 84.6202129,14.015316 84.7208625,14.015316 C84.8615138,14.015316 84.9337751,14.1224175 84.9337751,14.576631 L84.9337751,20.0581619 C84.9337751,21.600165 85.6383221,22.6195646 87.1764542,22.6195646 C88.7945898,22.6195646 89.5972056,21.0698192 91.0114613,18.6839081 C91.078561,18.5406759 91.1082396,18.438736 91.1082396,18.336796 C91.1082396,18.020653 90.8346793,17.8412905 90.5520863,17.8412905 C90.2333626,17.8412905 90.057871,18.160014 89.0075023,19.3149034 C88.7945898,19.534268 88.5881291,19.8387974 88.1984346,19.8387974 C88.0590735,19.8387974 87.9519721,19.6697578 87.9519721,19.4555547 L87.9519721,13.3107689 C87.9519721,11.6603739 87.2138751,10.9945382 86.2667369,10.9945382 C85.4963805,10.9945382 84.8615138,11.3106811 84.1956782,12.2939501 C83.0020775,14.052737 81.7736365,16.5470401 81.109091,17.8038694 C81.0342491,17.9509726 80.9335996,18.160014 80.8652095,18.160014 C80.7916579,18.160014 80.7606887,18.0516222 80.7606887,17.8038694 L80.7606887,13.3107689 C80.7606887,12.0152282 80.4097056,10.9945382 79.0380325,10.9945382 C77.5979692,10.9945382 76.8624531,11.9790976 75.8095037,12.7146137 C75.1423776,13.2114097 74.5475127,13.5585217 74.0932992,13.7688536 C73.3874619,11.9790976 72.0906308,11.071961 71.0028411,11.099059 C69.9111802,11.1364799 69.1395334,11.8074772 69.1395334,12.9313975 C69.1395334,14.0837061 69.8453709,14.886322 70.788638,15.243757 C71.3125321,15.4540889 71.8054569,15.4940905 72.5112943,15.4940905 C72.7229165,15.4940905 72.9319579,15.4940905 73.0674478,15.4540889 C73.1422898,15.8037816 73.1087399,16.301868 73.1087399,16.686401 C73.1087399,18.4090572 72.0906308,20.1239713 70.1976443,20.1239713 C68.2272353,20.1239713 67.0736362,18.2284042 67.0736362,16.0541152 C67.0736362,14.4024298 67.56269,13.0359182 68.3640155,12.0913606 C68.6879007,11.7377967 68.9292016,11.5235937 68.9292016,11.1997085 C68.9292016,11.0358304 68.6879007,10.9945382 68.4749881,10.9945382 C67.1381552,10.9945382 65.6684134,11.5932742 64.6528849,12.1171682 C63.3121808,12.8204248 61.7366278,13.9830565 60.4359256,15.1405267 C59.8049301,13.7327229 59.0332833,12.5042819 58.6448793,11.5532724 C58.5055182,11.167449 58.4035783,10.7196875 58.1222756,10.7196875 C57.8732325,10.7196875 57.7648406,10.9648595 57.5932201,11.4487517 C56.9635151,13.3107689 53.5917542,18.7561693 52.8549476,19.4929758 C52.7852671,19.5936254 52.6833273,19.7045979 52.6497773,19.7045979 C52.573645,19.7045979 52.5336431,19.6697578 52.5336431,19.4555547 L52.5336431,13.3107689 C52.5336431,11.6603739 51.8678075,10.9945382 50.9619613,10.9945382 C50.1864434,10.9945382 49.5218981,11.3106811 48.8909026,12.2939501 C47.734723,14.052737 46.3243384,16.6154302 45.6597932,17.8761306 C45.5526916,18.0929143 45.4468805,18.160014 45.41075,18.160014 C45.3759096,18.160014 45.3475214,18.020653 45.3475214,17.8038694 L45.3475214,13.3107689 C45.3475214,11.6603739 44.6778144,10.9945382 43.764226,10.9945382 C42.9899984,10.9945382 42.2570631,11.2822928 41.6570368,12.2939501 C40.1860044,14.7895435 37.7304129,18.6155178 37.2736185,19.2426422 C37.2026476,19.3510341 37.1316768,19.422005 37.0619963,19.4555547 C36.9923158,19.4555547 36.9523142,19.3871646 36.9523142,19.2129636 L36.9523142,13.3107689 C36.9523142,11.6603739 36.2864784,10.9945382 35.3793418,10.9945382 C34.1134799,10.9945382 33.4153847,12.1584603 32.9547193,12.8913957 C32.3198527,13.9095049 31.4811062,15.281178 30.8165609,16.5470401 C30.3584763,17.3935289 29.9700721,18.160014 29.8281305,18.160014 C29.7610307,18.160014 29.7610307,17.8412905 29.7610307,17.2464255 L29.7610307,12.5442837 C31.9688696,10.0822401 33.3392523,7.06662389 33.3392523,3.76712422 C33.3392523,1.86768599 32.5005058,0.819898071 31.2049651,0.819898071 C28.7777618,0.819898071 26.9221964,4.61232261 26.9221964,9.10155192 L26.9221964,12.7520347 C25.7969858,13.4552914 24.742746,13.7985323 23.4420437,14.052737 C22.7774983,12.0913606 21.3709851,11.071961 20.2522262,11.099059 C19.1670173,11.1364799 18.3914994,11.8074772 18.3914994,12.9313975 C18.3914994,14.7895435 20.217386,15.5611902 21.8277793,15.5611902 L22.2845735,15.5611902 C22.3529636,15.9147542 22.3529636,16.301868 22.3529636,16.686401 C22.3529636,18.4090572 21.3361448,20.1239713 19.4457392,20.1239713 C17.4817821,20.1239713 16.3204407,18.2284042 16.3204407,16.0541152 C16.3204407,14.4024298 16.8069136,13.0359182 17.6146911,12.0913606 C17.9334148,11.7377967 18.1811676,11.4216538 18.1811676,11.1997085 C18.1811676,11.0358304 17.9334148,10.9945382 17.7205021,10.9945382 C16.3875405,10.9945382 13.4428951,12.7920365 9.93048283,16.301868 C9.61950143,13.4927124 9.26593752,10.7519469 9.26593752,8.08344271 C9.26593752,5.10137633 9.85564082,2.56836191 9.99629216,1.83800728 C10.067263,1.38508417 10.1111359,1.09991036 10.1111359,0.893449681 C10.1111359,0.610856637 9.96145193,0.466334165 9.58337081,0.466334165 C6.73679425,0.466334165 0.488778055,4.99685561 0.488778055,11.7713465 C0.488778055,16.5754284 2.24756494,18.8942399 5.29544065,21.8775966 C3.44503685,24.8622438 1.96110075,28.405625 1.96110075,31.5657638 C1.96110075,33.8432831 2.49273699,35.5685202 4.17281073,35.5685202 C7.6839326,35.5685202 10.3137255,28.2714256 10.3137255,22.862156 C10.3137255,21.2491819 10.2492065,19.6323367 10.1111359,18.020653 C11.4053863,16.6438184 13.4067644,14.7895435 13.8945278,14.614052 C13.6854864,15.3521489 13.544835,16.1263764 13.544835,16.856731 C13.544835,19.8052476 15.232651,22.6195646 18.4934393,22.6195646 C21.551638,22.6195646 23.8639977,20.1239713 23.8639977,16.6438184 C23.8639977,16.1947665 23.827867,15.8037816 23.7968979,15.3844083 C24.9143663,15.1740765 25.9427986,14.886322 26.9221964,14.2991994 L26.9221964,21.3537027 C26.9221964,22.2621297 27.5493208,22.6195646 28.1467663,22.6195646 C28.9584148,22.6195646 29.3790785,22.0543785 29.9700721,20.762709 C30.4668682,19.7045979 31.7959587,17.2851369 32.6024458,15.8412026 C33.2386027,14.7147015 33.5895859,13.9830565 33.8721789,13.9830565 C33.9379882,13.9830565 34.0128302,14.1546769 34.0128302,14.576631 L34.0128302,20.5807655 C34.0128302,22.1963203 34.8554478,22.6195646 35.5845121,22.6195646 C36.2864784,22.6195646 36.7458534,22.2337412 37.2026476,21.600165 C39.0298247,19.0000509 40.9628127,15.9147542 41.729298,14.576631 C41.8712397,14.3366204 42.0454409,14.1546769 42.1873826,14.1546769 C42.3241628,14.1546769 42.3951336,14.2308093 42.3951336,14.6811517 L42.3951336,20.9691697 C42.3951336,22.0905092 42.7461169,22.6195646 43.6274458,22.6195646 C44.4300618,22.6195646 44.9552461,22.0543785 45.2688083,21.3885428 C46.4353111,18.9665011 48.150225,15.7702318 48.8909026,14.512112 C49.0625231,14.2308093 49.2393051,13.9830565 49.3438257,13.9830565 C49.4896387,13.9830565 49.5218981,14.1546769 49.5218981,14.614052 L49.5218981,20.5807655 C49.5218981,22.1963203 50.3645157,22.6195646 51.1064837,22.6195646 C52.08072,22.6195646 52.7194578,21.9137272 53.3504533,21.109821 C54.5014716,19.5936254 56.1879972,16.9018943 57.2073967,15.1740765 C57.5609607,15.7379722 57.942913,16.4063886 58.2642174,17.1419049 C57.4203094,18.160014 56.5764014,19.3149034 56.5764014,20.5420541 C56.5764014,21.8427563 57.4886995,22.6195646 58.4371281,22.6195646 C60.0488118,22.6195646 61.5211345,21.0698192 61.5211345,18.9329511 C61.5211345,18.0929143 61.2798336,17.2128757 60.9662714,16.3728388 C62.3973019,14.9650351 64.1199583,13.5959427 65.3896913,13.2810902 Z M7.57554074,20.933039 C7.85942417,22.7911851 8.10588661,24.6209428 8.10588661,26.0571349 C8.10588661,29.4211535 6.98583743,33.3542293 5.05413974,33.3219699 C4.30830055,33.3219699 3.68117626,32.5761307 3.65020715,31.2844612 C3.57923629,27.0765345 5.57932409,23.4944418 7.57554074,20.933039 Z M58.8203708,18.5406759 C59.0332833,19.1445735 59.1403848,19.6323367 59.1403848,20.1239713 C59.1403848,20.6865765 58.9287627,21.2491819 58.5403585,21.2491819 C58.2642174,21.2491819 57.9829146,20.933039 57.9829146,20.4401142 C57.9829146,19.912349 58.4371281,19.0697313 58.8203708,18.5406759 Z M8.84269313,1.80058628 C8.84269313,2.01478923 8.35105866,2.99418706 7.7213536,4.75168355 C7.05422754,6.57369902 6.41807058,9.16865163 6.41807058,12.2939501 C6.41807058,14.1546769 6.87873596,16.6154302 7.26714011,19.105862 L6.14321981,20.6207672 C4.35088307,18.438736 3.22954352,15.9857251 3.22954352,11.7713465 C3.22954352,5.80592339 6.84389573,1.66767723 8.70075142,1.66767723 C8.81172404,1.66767723 8.84269313,1.69864632 8.84269313,1.80058628 Z" id="Fill-1"></path>
            <path d="M173.658186,13.1765695 C173.658186,12.8578458 173.863357,12.6875158 174.14724,12.6875158 C174.600162,12.6875158 175.303419,13.1765695 175.687952,14.1546769 C175.551173,14.1546769 175.34084,14.1972595 175.193737,14.1972595 C174.358862,14.1972595 173.658186,13.7985323 173.658186,13.1765695 Z M122.90241,13.1765695 C122.90241,12.8578458 123.116612,12.6875158 123.394044,12.6875158 C123.850838,12.6875158 124.524416,13.1765695 124.902497,14.1546769 C123.604376,14.1546769 122.90241,13.8746647 122.90241,13.1765695 Z M132.696388,8.12215408 C132.696388,2.88966635 133.709335,2.08576009 134.02935,2.08576009 C134.589374,2.08576009 134.660345,2.43674324 134.660345,4.44328293 C134.660345,6.50530892 133.780306,9.20349188 132.696388,10.6848472 L132.696388,8.12215408 Z M110.51735,20.933039 C110.78962,22.7911851 111.045115,24.6209428 111.045115,26.0571349 C111.045115,29.4211535 109.923775,33.3542293 107.988206,33.3219699 C107.25269,33.3219699 106.620404,32.5761307 106.585564,31.2844612 C106.513303,27.0765345 108.517262,23.4944418 110.51735,20.933039 Z M161.760889,18.5406759 C161.973802,19.1445735 162.074452,19.6323367 162.074452,20.1239713 C162.074452,20.6865765 161.86412,21.2491819 161.478296,21.2491819 C161.200865,21.2491819 160.91182,20.933039 160.91182,20.4401142 C160.91182,19.912349 161.372485,19.0697313 161.760889,18.5406759 Z M111.774179,1.80058628 C111.774179,2.01478923 111.287706,2.99418706 110.651549,4.75168355 C109.989585,6.57369902 109.353428,9.16865163 109.353428,12.2939501 C109.353428,14.1546769 109.821835,16.6154302 110.205078,19.105862 L109.078577,20.6207672 C107.291402,18.438736 106.16232,15.9857251 106.16232,11.7713465 C106.16232,5.80592339 109.784414,1.66767723 111.64127,1.66767723 C111.74321,1.66767723 111.774179,1.69864632 111.774179,1.80058628 Z M105.922309,19.3510341 C106.549434,20.1936517 107.323661,21.0001387 108.235959,21.8775966 C106.373942,24.8622438 104.901619,28.405625 104.901619,31.5657638 C104.901619,33.8432831 105.431965,35.5685202 107.117201,35.5685202 C110.623161,35.5685202 113.252954,28.2714256 113.252954,22.862156 C113.252954,21.2491819 113.184564,19.6323367 113.043912,18.020653 C114.344615,16.6438184 116.33825,14.7895435 116.836337,14.614052 C116.624715,15.3521489 116.478902,16.1263764 116.478902,16.856731 C116.478902,19.8052476 118.165427,22.6195646 121.432668,22.6195646 C124.483124,22.6195646 126.799355,20.1239713 126.799355,16.6438184 C126.799355,16.1947665 126.767095,15.8037816 126.728384,15.3844083 C127.853595,15.1740765 128.878156,14.886322 129.854973,14.2991994 L129.854973,21.3537027 C129.854973,22.2621297 130.483387,22.6195646 131.075672,22.6195646 C131.893772,22.6195646 132.314436,22.0543785 132.90801,20.762709 C133.397064,19.7045979 134.733897,17.2851369 135.542964,15.8412026 C136.172669,14.7147015 136.523652,13.9830565 136.811407,13.9830565 C136.877216,13.9830565 136.943026,14.1546769 136.943026,14.576631 L136.943026,20.5807655 C136.943026,22.1963203 137.783063,22.6195646 138.52116,22.6195646 C139.225707,22.6195646 139.677339,22.2337412 140.143166,21.600165 C141.962601,19.0000509 143.895589,15.9147542 144.665945,14.576631 C144.806597,14.3366204 144.984669,14.1546769 145.120159,14.1546769 C145.256939,14.1546769 145.334362,14.2308093 145.334362,14.6811517 L145.334362,20.9691697 C145.334362,22.0905092 145.681474,22.6195646 146.557641,22.6195646 C147.365419,22.6195646 147.891893,22.0543785 148.210617,21.3885428 C149.369378,18.9665011 151.088163,15.7702318 151.822389,14.512112 C152.001751,14.2308093 152.175952,13.9830565 152.285635,13.9830565 C152.422415,13.9830565 152.461126,14.1546769 152.461126,14.614052 L152.461126,20.5807655 C152.461126,22.1963203 153.296002,22.6195646 154.031518,22.6195646 C155.021239,22.6195646 155.653525,21.9137272 156.280649,21.109821 C157.438119,19.5936254 159.127225,16.9018943 160.144044,15.1740765 C160.491156,15.7379722 160.882141,16.4063886 161.200865,17.1419049 C160.349214,18.160014 159.515629,19.3149034 159.515629,20.5420541 C159.515629,21.8427563 160.417605,22.6195646 161.372485,22.6195646 C162.984169,22.6195646 164.456491,21.0698192 164.456491,18.9329511 C164.456491,18.0929143 164.212609,17.2128757 163.896466,16.3728388 C165.333949,14.9650351 167.055316,13.5959427 168.318596,13.2810902 C167.722442,14.1224175 167.230806,15.3173086 167.230806,16.856731 C167.230806,19.8052476 168.917333,22.6195646 172.181992,22.6195646 C175.34084,22.6195646 177.546098,20.1239713 177.546098,16.6438184 C177.546098,15.6334516 177.513838,15.4940905 177.44803,15.0747173 C178.177093,14.7547033 178.81325,14.2656496 179.310047,13.8746647 C179.721679,13.5585217 180.044273,13.3817398 180.285573,13.3817398 C180.603007,13.3817398 180.751401,13.6282022 180.751401,14.0837061 L180.751401,20.9691697 C180.751401,22.0905092 181.097222,22.6195646 181.97468,22.6195646 C182.778587,22.6195646 183.343772,22.0543785 183.661206,21.3885428 C184.812224,18.9665011 186.50004,15.7379722 187.234266,14.512112 C187.409757,14.2308093 187.552989,14.015316 187.6588,14.015316 C187.802032,14.015316 187.870423,14.1224175 187.870423,14.576631 L187.870423,20.0581619 C187.870423,21.600165 188.565937,22.6195646 190.114391,22.6195646 C191.733817,22.6195646 192.539014,21.0698192 193.945529,18.6839081 C194.011337,18.5406759 194.044888,18.438736 194.044888,18.336796 C194.044888,18.020653 193.763585,17.8412905 193.484863,17.8412905 C193.1713,17.8412905 192.991938,18.160014 191.941568,19.3149034 C191.733817,19.534268 191.519615,19.8387974 191.135083,19.8387974 C190.99056,19.8387974 190.8912,19.6697578 190.8912,19.4555547 L190.8912,13.3107689 C190.8912,11.6603739 190.145361,10.9945382 189.198223,10.9945382 C188.430447,10.9945382 187.802032,11.3106811 187.132326,12.2939501 C185.936144,14.052737 184.711574,16.5470401 184.04961,17.8038694 C183.973478,17.9509726 183.871537,18.160014 183.796695,18.160014 C183.721854,18.160014 183.694755,18.0516222 183.694755,17.8038694 L183.694755,13.3107689 C183.694755,12.0152282 183.343772,10.9945382 181.97468,10.9945382 C180.532035,10.9945382 179.799101,11.9790976 178.747442,12.7146137 C178.073863,13.2114097 177.48158,13.5585217 177.020914,13.7688536 C176.3254,11.9790976 175.022117,11.071961 173.939489,11.099059 C172.845247,11.1364799 172.080051,11.8074772 172.080051,12.9313975 C172.080051,14.0837061 172.782018,14.886322 173.721414,15.243757 C174.249179,15.4540889 174.740814,15.4940905 175.451813,15.4940905 C175.656983,15.4940905 175.860863,15.4940905 176.010548,15.4540889 C176.078937,15.8037816 176.042806,16.301868 176.042806,16.686401 C176.042806,18.4090572 175.022117,20.1239713 173.125259,20.1239713 C171.161303,20.1239713 170.007703,18.2284042 170.007703,16.0541152 C170.007703,14.4024298 170.495466,13.0359182 171.299373,12.0913606 C171.619387,11.7377967 171.86714,11.5235937 171.86714,11.1997085 C171.86714,11.0358304 171.619387,10.9945382 171.409054,10.9945382 C170.081255,10.9945382 168.602481,11.5932742 167.584371,12.1171682 C166.248828,12.8204248 164.669404,13.9830565 163.375154,15.1405267 C162.741578,13.7327229 161.973802,12.5042819 161.582817,11.5532724 C161.438295,11.167449 161.342807,10.7196875 161.051181,10.7196875 C160.808589,10.7196875 160.701488,10.9648595 160.528577,11.4487517 C159.895001,13.3107689 156.528402,18.7561693 155.791595,19.4929758 C155.720624,19.5936254 155.616103,19.7045979 155.578683,19.7045979 C155.512873,19.7045979 155.474162,19.6697578 155.474162,19.4555547 L155.474162,13.3107689 C155.474162,11.6603739 154.812197,10.9945382 153.890867,10.9945382 C153.117929,10.9945382 152.461126,11.3106811 151.822389,12.2939501 C150.662338,14.052737 149.262276,16.6154302 148.59515,17.8761306 C148.49192,18.0929143 148.388689,18.160014 148.35514,18.160014 C148.315138,18.160014 148.279007,18.020653 148.279007,17.8038694 L148.279007,13.3107689 C148.279007,11.6603739 147.617043,10.9945382 146.703454,10.9945382 C145.929227,10.9945382 145.187259,11.2822928 144.596265,12.2939501 C143.11749,14.7895435 140.664479,18.6155178 140.205104,19.2426422 C140.143166,19.3510341 140.068324,19.422005 139.993482,19.4555547 C139.931544,19.4555547 139.890252,19.3871646 139.890252,19.2129636 L139.890252,13.3107689 C139.890252,11.6603739 139.225707,10.9945382 138.309537,10.9945382 C137.042385,10.9945382 136.34558,12.1584603 135.886205,12.8913957 C135.25521,13.9095049 134.417754,15.281178 133.748047,16.5470401 C133.295124,17.3935289 132.90801,18.160014 132.767359,18.160014 C132.696388,18.160014 132.696388,17.8412905 132.696388,17.2464255 L132.696388,12.5442837 C134.910679,10.0822401 136.274609,7.06662389 136.274609,3.76712422 C136.274609,1.86768599 135.434573,0.819898071 134.13129,0.819898071 C131.713119,0.819898071 129.854973,4.61232261 129.854973,9.10155192 L129.854973,12.7520347 C128.728472,13.4552914 127.675522,13.7985323 126.37482,14.052737 C125.712855,12.0913606 124.307632,11.071961 123.191454,11.099059 C122.095922,11.1364799 121.326856,11.8074772 121.326856,12.9313975 C121.326856,14.7895435 123.146291,15.5611902 124.764427,15.5611902 L125.223802,15.5611902 C125.288321,15.9147542 125.288321,16.301868 125.288321,16.686401 C125.288321,18.4090572 124.274083,20.1239713 122.377225,20.1239713 C120.410687,20.1239713 119.258379,18.2284042 119.258379,16.0541152 C119.258379,14.4024298 119.748723,13.0359182 120.550048,12.0913606 C120.864901,11.7377967 121.112653,11.4216538 121.112653,11.1997085 C121.112653,11.0358304 120.864901,10.9945382 120.65715,10.9945382 C119.321607,10.9945382 116.375671,12.7920365 112.861969,16.301868 C112.553568,13.4927124 112.198714,10.7519469 112.198714,8.08344271 C112.198714,5.10137633 112.794869,2.56836191 112.93552,1.83800728 C113.005201,1.38508417 113.043912,1.09991036 113.043912,0.893449681 C113.043912,0.610856637 112.90068,0.466334165 112.521309,0.466334165 C109.677313,0.466334165 103.429297,4.99685561 103.429297,11.7713465 C103.429297,14.5405003 104.025452,16.5109094 105.078401,18.2284042 C104.686126,18.160014 104.377725,18.160014 104.089971,18.160014 C102.971212,18.160014 101.914392,18.438736 101.258879,18.5819681 L101.258879,17.8761306 C101.258879,16.3728388 100.902734,14.2991994 100.269158,13.5959427 C100.194316,13.5236815 100.089795,13.4927124 99.9917264,13.4927124 C99.7026814,13.4927124 99.3568598,13.6282022 98.9723268,13.8411148 C98.5465017,14.052737 98.125838,14.2656496 98.125838,14.4024298 C98.125838,14.4695295 98.125838,14.5405003 98.2316492,14.7147015 C98.479402,15.0747173 99.1478184,15.7702318 99.3891194,17.4244979 C98.1929377,16.2296068 96.8302973,15.6992609 95.0469933,15.6992609 C92.9372231,15.6992609 92.3023567,16.6438184 92.3023567,17.5974087 C92.3023567,19.422005 94.7243984,20.3343031 97.7825972,20.3343031 C98.3426218,20.3343031 98.9723268,20.2284919 99.6007415,20.0852598 C99.6007415,20.6478652 99.6717124,21.1459515 99.6717124,21.5640345 C99.6717124,22.16148 99.7736524,22.6195646 100.164637,22.6195646 C100.759502,22.6195646 101.113066,21.4208024 101.180166,19.7045979 C102.267955,19.422005 103.393166,19.1794136 104.344176,19.1794136 C104.798389,19.1794136 105.366156,19.2426422 105.922309,19.3510341 Z M99.0084575,19.0000509 C98.4174638,19.0697313 98.0574479,19.0697313 97.4316141,19.0697313 C96.0586505,19.0697313 95.0469933,18.5406759 95.0469933,17.7754811 C95.0469933,17.2851369 95.2895846,16.9999632 95.9915508,16.9999632 C97.1167615,16.9999632 98.0238981,17.7754811 99.0084575,19.0000509 Z" id="Fill-4"></path>
        </g>
    </g>
</svg>