<?xml version="1.0" encoding="UTF-8"?>
<svg width="119px" height="120px" viewBox="0 0 119 120" version="1.1" xmlns="http://www.w3.org/2000/svg" xmlns:xlink="http://www.w3.org/1999/xlink">
    <!-- Generator: Sketch 51.3 (57544) - http://www.bohemiancoding.com/sketch -->
    <title>Slice 1</title>
    <desc>Created with Sketch.</desc>
    <defs></defs>
    <g id="Page-1" stroke="none" stroke-width="1" fill="none" fill-rule="evenodd">
        <g id="reinvent" transform="translate(0.000000, 49.000000)" fill="#AAB7B8" fill-rule="nonzero">
            <path d="M5.9,8.2 L5.2,6.1 L1.9,6.1 L1.2,8.2 L0,8.2 L2.9,0.2 L4.2,0.2 L7.1,8.2 L5.9,8.2 Z M2.2,5.2 L4.9,5.2 L3.5,1.3 L2.2,5.2 Z M13.3,8.2 L11.8,2 L10.3,8.2 L9,8.2 L6.7,0.2 L8,0.2 L9.7,6.9 L11.2,0.5 L12.5,0.5 L14,7 L15.7,0.3 L16.9,0.3 L14.6,8.3 L13.3,8.2 Z M19.2,4.5 C18.7,4.3 18.2,4 17.8,3.6 C17.5,3.2 17.3,2.8 17.4,2.3 C17.4,1.9 17.5,1.5 17.7,1.2 C17.9,0.9 18.2,0.6 18.6,0.4 C19.1,0.2 19.5,0.1 20,0.1 C20.7,0.1 21.5,0.3 22.1,0.5 L22.1,1.4 C21.4,1.2 20.7,1.1 20.1,1.1 C19.7,1.1 19.3,1.2 18.9,1.4 C18.6,1.6 18.5,1.9 18.5,2.3 C18.5,2.6 18.6,2.8 18.8,3 C19.1,3.2 19.4,3.4 19.8,3.5 L20.9,3.9 C21.4,4.1 21.9,4.3 22.3,4.7 C22.6,5.1 22.7,5.5 22.7,6 C22.7,6.7 22.4,7.3 21.9,7.8 C21.3,8.3 20.5,8.5 19.8,8.5 C19,8.5 18.2,8.4 17.5,8 L17.5,7 C18.2,7.2 19,7.4 19.8,7.4 C20.3,7.4 20.7,7.3 21.1,7.1 C21.4,6.9 21.6,6.5 21.6,6.1 C21.6,5.9 21.5,5.6 21.3,5.4 C21,5.1 20.7,4.9 20.3,4.8 L19.2,4.5 Z M29.1,26.4 L29.1,0.2 L31.3,0.2 L31.3,26.4 L29.1,26.4 Z M49.4,26.4 L49.4,13.5 C49.4,11.9 49.1,10.7 48.4,9.9 C47.6,9.1 46.5,8.7 45.4,8.8 C42.7,8.8 40.2,9.7 38,11.2 L38,26.4 L35.8,26.4 L35.8,7.4 L37.7,7.4 L37.9,9.6 C39.1,8.7 40.4,8.1 41.8,7.6 C43.1,7.1 44.4,6.9 45.8,6.9 C47.3,6.8 48.9,7.3 50,8.4 C51,9.4 51.5,10.8 51.5,12.7 L51.5,26.6 L49.4,26.4 Z M60.3,26.4 L52.6,7.4 L55,7.4 L61.5,24.2 L68,7.4 L70.3,7.4 L62.6,26.4 L60.3,26.4 Z M72.5,17.3 C72.5,19.9 73.1,21.9 74.2,23.2 C75.3,24.5 77.1,25.1 79.5,25.1 C81.7,25.1 83.8,24.6 85.7,23.7 L85.7,25.5 C83.7,26.6 81.5,27.1 79.3,27 C76.3,27 74,26.2 72.5,24.4 C71,22.7 70.2,20.2 70.2,16.8 C70.2,13.6 71,11.2 72.5,9.4 C74,7.6 76.2,6.8 78.9,6.8 C81.2,6.8 83,7.5 84.2,8.8 C85.4,10.1 86,12 86,14.4 C86,15.4 85.9,16.3 85.8,17.2 C85.8,17.3 72.5,17.3 72.5,17.3 Z M78.8,8.7 C74.8,8.7 72.7,11 72.5,15.5 L84,15.5 C84,15.2 84,14.7 84,14.3 C84,12.5 83.6,11.1 82.7,10.2 C81.7,9.2 80.2,8.7 78.8,8.7 Z M102.4,26.4 L102.4,13.5 C102.4,11.9 102.1,10.7 101.5,9.9 C100.7,9.1 99.6,8.7 98.5,8.8 C95.8,8.8 93.3,9.7 91.1,11.2 L91.1,26.4 L88.9,26.4 L88.9,7.4 L90.8,7.4 L91,9.6 C92.2,8.7 93.5,8.1 94.9,7.6 C96.2,7.1 97.5,6.9 98.9,6.9 C100.5,6.8 102,7.3 103.1,8.4 C104.1,9.4 104.6,10.8 104.6,12.7 L104.6,26.6 L102.4,26.6 L102.4,26.4 Z M118.2,26 C117,26.5 115.7,26.7 114.4,26.6 C113.2,26.7 111.9,26.3 111,25.4 C110.2,24.5 109.7,23.2 109.8,21.9 L109.8,9.3 L106.2,9.3 L106.2,7.8 L109.8,7.5 L110.1,1.9 L111.9,1.9 L111.9,7.4 L118,7.4 L118,9.3 L111.9,9.3 L111.9,21.9 C111.8,22.7 112.1,23.5 112.6,24.1 C113.2,24.6 114,24.9 114.8,24.8 C115.9,24.8 117.1,24.6 118.2,24.3 L118.2,26 Z M0.5,26.4 L0.5,13.8 L1.8,13.8 L2,15.6 C2.5,15 3.2,14.5 3.9,14.1 C4.6,13.8 5.3,13.6 6,13.7 C6.3,13.7 6.7,13.7 7,13.8 L7,15 C6.5,15 6.2,15 5.8,15 C5.1,15 4.4,15.1 3.8,15.4 C3.1,15.7 2.6,16.2 2.1,16.8 L2.1,26.5 L0.5,26.5 L0.5,26.4 Z M9.2,20.3 C9.2,22.1 9.6,23.4 10.4,24.2 C11.2,25 12.3,25.5 13.9,25.5 C15.3,25.5 16.7,25.2 18,24.6 L18,25.8 C16.7,26.5 15.2,26.9 13.8,26.8 C11.8,26.8 10.3,26.2 9.3,25.1 C8.3,24 7.8,22.3 7.8,20.1 C7.8,18 8.3,16.3 9.3,15.2 C10.4,14 11.9,13.4 13.6,13.4 C14.9,13.3 16.2,13.8 17.1,14.7 C18,15.7 18.4,17.1 18.3,18.4 C18.3,19 18.3,19.7 18.2,20.3 L9.2,20.3 Z M13.4,14.7 C10.8,14.7 9.3,16.2 9.2,19.2 L16.8,19.2 C16.8,19 16.8,18.7 16.8,18.4 C16.9,17.4 16.6,16.4 15.9,15.7 C15.3,15 14.4,14.6 13.4,14.7 Z M21.6,16 C21.3,16 21,15.9 20.8,15.7 C20.6,15.5 20.5,15.2 20.5,14.9 C20.5,14.6 20.6,14.3 20.8,14 C21.3,13.6 22,13.6 22.4,14 C22.6,14.2 22.7,14.5 22.7,14.9 C22.7,15.2 22.6,15.5 22.4,15.7 C22.2,15.9 22,16 21.6,16 Z M21.6,26.6 C21.3,26.6 21,26.5 20.8,26.3 C20.6,26.1 20.5,25.8 20.5,25.5 C20.5,25.2 20.6,24.9 20.8,24.6 C21.3,24.2 22,24.2 22.4,24.6 C22.6,24.8 22.7,25.1 22.7,25.5 C22.7,25.8 22.6,26.1 22.4,26.3 C22.2,26.5 22,26.6 21.6,26.6 Z" id="Shape"></path>
        </g>
    </g>
</svg>