<?xml version="1.0" encoding="UTF-8"?>
<svg width="94px" height="23px" viewBox="0 0 94 23" version="1.1" xmlns="http://www.w3.org/2000/svg" xmlns:xlink="http://www.w3.org/1999/xlink">
    <!-- Generator: sketchtool 55.2 (78181) - https://sketchapp.com -->
    <title>B84FA8E7-D798-4071-856E-3F211FCC04B3@1x</title>
    <desc>Created with sketchtool.</desc>
    <g id="Navigation" stroke="none" stroke-width="1" fill="none" fill-rule="evenodd" opacity="0.450000018">
        <g id="New-footer/Homepage/1170-Redesigned" transform="translate(-466.000000, -1561.000000)" fill="#81789B">
            <g id="Footer" transform="translate(0.000000, 1240.000000)">
                <g id="Footer/Body/1280">
                    <g>
                        <g id="Group-2" transform="translate(455.000000, 272.000000)">
                            <g id="Clutch-Logo" transform="translate(11.000000, 49.000000)">
                                <g id="Group" transform="translate(0.000000, 0.024109)">
                                    <path d="M19.7254239,0.614805445 L23.1844979,0.614805445 L23.1844979,22.3370021 L19.7254239,22.3370021 L19.7254239,0.614805445 Z M35.2912319,15.4253871 L35.2159917,15.4253871 L35.2159917,7.6023391 L38.6750911,7.6023391 L38.6750911,22.3370021 L35.2159917,22.3370021 L35.2159917,21.1217666 C34.4640201,22.0331996 32.8848875,22.3370021 31.681728,22.3370021 C30.0274059,22.3370021 28.5234628,21.8053158 27.5458973,20.8179641 C26.4931423,19.6027798 25.8163603,17.9318023 25.8163603,15.8811292 L25.8163603,7.6023391 L29.2754344,7.6023391 L29.2754344,15.8051594 C29.2754344,17.0203948 29.7266477,18.9951237 31.7569682,18.9951237 C32.5089651,18.9951237 35.2912319,18.6913212 35.2912319,15.4253871 Z M45.5180496,2.36167607 L45.5180496,7.6023391 L48.0747478,7.6023391 L48.0747478,11.0961315 L45.5180496,11.0961315 L45.5180496,22.3370021 L42.0589756,22.3370021 L42.0589756,11.0961315 L39.5022775,11.0961315 L39.5022775,7.6023391 L42.0589756,7.6023391 L42.0589756,2.36167607 L45.5180496,2.36167607 Z M58.9031326,17.9318023 L59.4294848,17.3241462 L61.8358038,19.7545916 L61.309401,20.2862779 C59.8806728,21.5774576 58.0759462,22.2610067 56.1208152,22.2610067 C51.9097696,22.2610067 48.6762895,18.9950726 48.6762895,14.7417868 C48.6762895,10.336587 51.8345801,7.22254126 56.1208152,7.29851105 C58.0007567,7.29851105 59.7302684,8.0580556 61.1590219,9.2732655 L61.6853994,9.80492623 L59.4294848,12.0834832 L58.9031326,11.6277667 C58.1511611,10.8682732 57.1735956,10.5644708 56.1208405,10.5644708 C53.7145215,10.5644708 51.9850098,12.2354227 51.9850098,14.7418379 C51.9850098,17.2482531 53.7145215,18.9951237 56.1208405,18.9951237 C57.1735956,18.9951237 58.1511611,18.6153514 58.9031326,17.9318023 Z M74.0929422,8.8935188 C75.2208868,10.03281 75.6720748,11.7797062 75.5968599,13.6784909 L75.5968599,22.3369765 L72.1377859,22.3369765 L72.1377859,13.7544351 C72.1377859,12.5391997 72.1377859,10.5644452 70.1074906,10.5644452 C69.3555191,10.5644452 66.9492001,10.8682477 66.9492001,14.1342074 L66.9492001,22.3369765 L63.490126,22.3369765 L63.490126,0.614779874 L66.9492001,0.614779874 L66.9492001,8.58971632 C67.8515507,7.6783089 69.1299251,7.37450642 70.3330593,7.37450642 C71.9122172,7.37450642 73.1153767,7.90616715 74.0929422,8.8935188 Z M14.9880007,16.8684808 L15.4391887,16.2608503 L17.6951286,18.6912957 L17.1687004,19.222982 C15.3639738,21.1977108 12.7320862,22.2610323 9.94979406,22.2610323 C4.23483073,22.2610323 0.023785141,17.7799138 0.023785141,11.7797062 C0.023785141,5.77949867 4.23483073,1.29835462 9.94981937,1.22238483 C12.6568966,1.22238483 15.2135947,2.28570628 17.1687257,4.2604863 L17.6951286,4.79214702 L15.439214,7.07067837 L14.9128365,6.53901765 C13.484083,5.24783795 11.754546,4.48831897 9.94981937,4.48831897 C6.1147722,4.48831897 3.3324801,7.52639487 3.3324801,11.7037364 C3.3324801,15.8811036 6.11474688,18.9191539 10.0250089,18.9191539 C11.8297355,18.9191539 13.709677,18.1596349 14.9880007,16.8684808 Z" id="Combined-Shape"></path>
                                    <path d="M80.3369555,21.312999 C80.3369555,21.8806529 79.8895235,22.3370021 79.2347451,22.3370021 C78.5690536,22.3370021 78.1216216,21.8806529 78.1216216,21.312999 C78.1216216,20.7230842 78.5690536,20.266735 79.2347451,20.266735 C79.8895235,20.266735 80.3369555,20.7230842 80.3369555,21.312999 Z M81.0681248,19.1425577 C81.0681248,17.1835952 82.3340299,15.9481132 84.1237578,15.9481132 C85.6515743,15.9481132 86.7319588,16.8051593 87.048435,18.2855116 L85.0622736,18.2855116 C84.909492,17.8514233 84.6039287,17.5731616 84.0910189,17.5731616 C83.4253274,17.5731616 82.9669824,18.1074241 82.9669824,19.1425577 C82.9669824,20.1776912 83.4253274,20.7119537 84.0910189,20.7119537 C84.6039287,20.7119537 84.898579,20.4559529 85.0622736,19.9996037 L87.048435,19.9996037 C86.7319588,21.4354342 85.6515743,22.3370021 84.1237578,22.3370021 C82.3340299,22.3370021 81.0681248,21.1126506 81.0681248,19.1425577 Z M94,19.1425577 C94,21.1126506 92.6031392,22.3370021 90.8134113,22.3370021 C89.0236835,22.3370021 87.6704746,21.1126506 87.6704746,19.1425577 C87.6704746,17.1724647 89.0564224,15.9481132 90.8352373,15.9481132 C92.6249652,15.9481132 94,17.1724647 94,19.1425577 Z M89.5693322,19.1425577 C89.5693322,20.1888217 90.1368069,20.6896928 90.8134113,20.6896928 C91.4791028,20.6896928 92.1011424,20.1888217 92.1011424,19.1425577 C92.1011424,18.0851631 91.4900158,17.5954225 90.8352373,17.5954225 C90.1586329,17.5954225 89.5693322,18.0851631 89.5693322,19.1425577 Z" id=".co"></path>
                                    <ellipse id="Oval" cx="55.9416901" cy="14.8241708" rx="2.48023353" ry="2.50217536"></ellipse>
                                </g>
                            </g>
                        </g>
                    </g>
                </g>
            </g>
        </g>
    </g>
</svg>