<svg viewBox="0 0 304 94" xmlns="http://www.w3.org/2000/svg"><defs><linearGradient x1="22.7046816%" y1="-0.249786724%" x2="104.465356%" y2="99.1171265%" id="linearGradient-1"><stop stop-color="#7CAAE7" offset="0%"></stop><stop stop-color="#7498DB" offset="8%"></stop><stop stop-color="#626DBD" offset="28%"></stop><stop stop-color="#544BA6" offset="49%"></stop><stop stop-color="#493395" offset="68%"></stop><stop stop-color="#43248B" offset="85%"></stop><stop stop-color="#411F88" offset="100%"></stop></linearGradient></defs><g stroke="none" stroke-width="1" fill="none" fill-rule="evenodd"><g fill-rule="nonzero"><path d="M112,37.7 C110.7,37.7 109.7,38.7 109.7,40 L109.7,48.3 C109.7,52.1 107.5,55 103.7,55.1 C100.6,55.1 98.6,53.1 98.6,49.8 L98.6,40 C98.6,38.7 97.6,37.7 96.3,37.7 C95,37.7 94,38.7 94,40 L94,51.2 C94,56.4 97,59.6 102,59.6 C105.5,59.6 108.3,58.2 109.7,55.2 L109.7,57.3 C109.7,58.6 110.7,59.6 112,59.6 C113.3,59.6 114.3,58.6 114.3,57.3 L114.3,40 C114.4,38.7 113.3,37.7 112,37.7 Z M131,37.5 C127.6,37.5 125,38.9 123.4,41.4 L123.4,31.6 C123.4,30.4 122.5,29.3 121.3,29.1 C119.9,29 118.7,30.1 118.7,31.4 L118.7,57.2 C118.7,58.5 119.7,59.5 121,59.5 C122.3,59.5 123.3,58.5 123.3,57.2 L123.3,55.6 C124.9,58.1 127.5,59.5 131,59.5 C137.2,59.5 141.3,55.1 141.3,48.6 C141.3,42 137.1,37.5 131,37.5 Z M130,55.5 C126.1,55.5 123.4,52.6 123.4,48.4 C123.4,44.3 126.1,41.4 130,41.4 C133.9,41.4 136.6,44.4 136.6,48.4 C136.6,52.6 133.9,55.5 130,55.5 Z M146.9,37.7 C148.1,37.7 149.1,38.7 149.1,39.9 L149.1,48 C149.1,51.9 151.7,54.7 155.4,54.7 C159.1,54.7 161.6,51.9 161.6,48 L161.6,41.2 L161.6,39.9 C161.6,38.7 162.6,37.7 163.8,37.7 L164,37.7 C165.2,37.7 166.2,38.7 166.2,39.9 L166.2,57.3 C166.2,63.5 161.8,67.5 154.9,67.5 C152.3,67.5 149.9,66.9 147.7,65.7 C146.7,65.2 146.3,63.9 146.9,63 C147.4,62.1 148.6,61.8 149.5,62.3 C151.1,63.2 152.8,63.7 154.8,63.7 C158.9,63.7 161.6,61.3 161.6,57.5 L161.6,54.8 C160.1,57.2 157.7,58.5 154.4,58.5 C148.5,58.5 144.6,54.3 144.6,48 L144.6,40 C144.7,38.6 145.6,37.7 146.9,37.7 Z M93.7,63.6 L85,49.8 C88.5,48.2 90.5,45.1 90.5,40.7 C90.5,34.5 86.3,31 79,31 L69.8,31 C68.5,31 67.4,32.1 67.4,33.4 L67.4,57.1 C67.4,58.4 68.5,59.5 69.8,59.5 C71.1,59.5 72.2,58.4 72.2,57.1 L72.2,50.9 C72.2,50.9 79.6,50.9 80,50.9 L89.6,66.1 C90.3,67.3 91.8,67.6 92.9,66.9 C94,66.2 94.3,64.7 93.7,63.6 Z M72.2,46.7 L72.2,35.4 L79,35.4 C83.4,35.4 85.9,37.1 85.9,40.9 C85.9,44.2 84.1,46.1 80.7,46.6 C80.2,46.7 79,46.7 79,46.7 L72.2,46.7 Z M231.9,38.1 C233.4,37.6 234.6,38.6 234.6,40.1 C234.6,41.1 233.8,42.1 232.8,42.2 C229.5,42.7 227.5,45 227.2,48.1 L227.2,57.2 C227.2,58.5 226.2,59.5 224.9,59.5 C223.6,59.5 222.6,58.5 222.6,57.2 L222.6,40.2 C222.6,38.9 223.6,37.9 224.9,37.9 C226.2,37.9 227.2,38.9 227.2,40.2 L227.2,42.2 C228.2,40.1 229.8,38.7 231.9,38.1 Z M276.7,37.7 C275.4,37.7 274.4,38.7 274.4,40 L274.4,41.3 C272.9,39 270.4,37.6 267.1,37.7 C261.4,37.7 257.6,41.9 257.6,47.9 C257.6,54.1 261.5,58.3 267.3,58.3 C270.5,58.3 273,57 274.4,54.7 L274.4,57.4 C274.4,61.1 271.7,63.5 267.7,63.5 C265.7,63.5 264.1,63 262.5,62.2 C261.6,61.7 260.5,62 260,62.8 L259.9,62.9 C259.4,63.8 259.7,65 260.6,65.5 C262.8,66.7 265.2,67.3 267.9,67.3 C274.6,67.3 279,63.4 279,57.2 L279,40 C279,38.7 278,37.7 276.7,37.7 Z M268.2,54.7 C264.5,54.7 262,52 261.9,48.1 C261.9,44.3 264.5,41.5 268.2,41.5 C271.8,41.5 274.4,44.2 274.4,48.1 C274.4,51.9 271.9,54.7 268.2,54.7 Z M293.3,37.7 C286.9,37.7 282.4,42.1 282.4,48.6 C282.4,55.1 286.8,59.5 293.4,59.5 C296.3,59.5 298.8,58.7 300.8,57.2 C301.7,56.5 301.8,55.3 301,54.5 C300.4,53.9 299.3,53.8 298.6,54.3 C297.2,55.3 295.6,55.8 293.8,55.8 C290.4,55.8 287.9,53.7 287.1,50.4 L301.5,50.4 C302.6,50.4 303.4,49.5 303.3,48.5 C303.1,41.9 299.9,37.7 293.3,37.7 Z M287.1,47 C287.6,43.6 290,41.4 293.4,41.4 C296.9,41.4 299.2,43.5 299.4,47 L287.1,47 Z M210.1,37.7 C206.8,37.7 204.8,38.3 202.5,39.5 C201.6,40 201.2,41.2 201.8,42.1 C202.3,43 203.4,43.2 204.3,42.8 C205.9,42 207.5,41.5 209.1,41.5 C212.5,41.5 214.2,43.1 214.2,45.8 L214.2,46.4 L207.7,46.4 C202.5,46.4 199.6,48.9 199.6,52.9 C199.6,56.7 202.5,59.6 207.2,59.6 C210.2,59.6 212.6,58.7 214.2,56.9 L214.2,57.3 C214.2,58.6 215.2,59.6 216.5,59.6 C217.8,59.6 218.8,58.6 218.8,57.3 L218.8,55.2 L218.8,50.9 L218.8,45.3 C218.7,40.5 215.6,37.7 210.1,37.7 Z M214.2,51.8 C214,54.1 211.4,55.9 208.1,55.9 C205.5,55.9 203.9,54.6 203.9,52.7 C203.9,50.6 205.3,49.8 208.3,49.8 L214.1,49.8 L214.1,51.8 C214.1,51.8 214.2,51.8 214.2,51.8 Z M246.1,37.7 C242.8,37.7 240.8,38.3 238.5,39.5 C237.6,40 237.2,41.2 237.8,42.1 C238.3,43 239.4,43.2 240.3,42.8 C241.9,42 243.5,41.5 245.1,41.5 C248.5,41.5 250.2,43.1 250.2,45.8 L250.2,46.4 L243.7,46.4 C238.5,46.4 235.6,48.9 235.6,52.9 C235.6,56.7 238.5,59.6 243.2,59.6 C246.2,59.6 248.6,58.7 250.2,56.9 L250.2,57.3 C250.2,58.6 251.2,59.6 252.5,59.6 C253.8,59.6 254.8,58.6 254.8,57.3 L254.8,45.3 C254.7,40.5 251.6,37.7 246.1,37.7 Z M250.1,51.8 C249.9,54.1 247.4,55.9 244.1,55.9 C241.5,55.9 239.9,54.6 239.9,52.7 C239.9,50.6 241.3,49.8 244.3,49.8 L250.1,49.8 L250.1,51.8 Z M193.7,44.2 C194.9,44.2 195.8,45.1 196,46.2 C196,46.3 196,46.3 196,46.3 C196,46.4 196,46.4 196,46.4 L196,54.6 C196,55.5 195.6,56.3 194.9,56.7 C192.1,58.4 188.4,59.6 185,59.6 C176.6,59.6 170.1,53.4 170.1,45.3 C170.1,37.2 176.6,31 185.2,31 C188.4,31 191.5,31.9 194.1,33.5 C195.3,34.2 195.5,35.6 194.7,36.7 C194,37.5 192.7,37.8 191.8,37.2 C189.8,35.9 187.5,35.2 185.2,35.2 C179.4,35.2 174.9,39.6 174.9,45.2 C174.9,50.9 179.4,55.3 185.2,55.3 C187.3,55.3 189.7,54.6 191.7,53.4 L191.7,48.4 L188.7,48.4 C187.5,48.4 186.6,47.4 186.6,46.3 C186.6,45.1 187.6,44.2 188.7,44.2 L193.7,44.2 Z" fill="#000000"></path><path d="M27.2,67.3 C34.5,67.1 40.6,72.9 40.8,80.2 C41,87.5 35.2,93.6 27.9,93.8 C27.7,93.8 27.4,93.8 27.2,93.8 C19.9,94 13.8,88.2 13.6,80.9 C13.4,73.6 19.2,67.5 26.5,67.3 C26.7,67.3 27,67.3 27.2,67.3 Z M27.2,11.8 C42,11.8 53.9,23.5 53.9,38 C53.9,52.5 42,64.2 27.2,64.2 C12.4,64.2 0.5,52.4 0.5,38 C0.5,23.6 12.4,11.8 27.2,11.8 Z M27.2,21.6 C18.2,21.6 10.8,28.9 10.8,38 C10.8,47.1 18.1,54.4 27.2,54.4 C36.2,54.4 43.6,47.1 43.6,38 C43.6,28.9 36.2,21.6 27.2,21.6 Z M46.7,0.7 C43,0.6 40,3.6 40,7.2 C40,10.9 43,13.9 46.7,13.9 C50.4,13.9 53.4,10.9 53.4,7.2 C53.3,3.6 50.3,0.6 46.7,0.7 Z" fill="url(#linearGradient-1)"></path></g></g></svg>
