<?xml version="1.0" encoding="UTF-8"?>
<svg width="139px" height="36px" viewBox="0 0 139 36" version="1.1" xmlns="http://www.w3.org/2000/svg" xmlns:xlink="http://www.w3.org/1999/xlink">
    <!-- Generator: sketchtool 48.2 (47327) - http://www.bohemiancoding.com/sketch -->
    <title>206FDE0B-23BE-4EFE-95CE-1374D5515A39</title>
    <desc>Created with sketchtool.</desc>
    <defs>
        <linearGradient x1="-5.97547206%" y1="102.384143%" x2="158.62693%" y2="-53.8343814%" id="linearGradient-1">
            <stop stop-color="#61ADEB" offset="0%"></stop>
            <stop stop-color="#5C92DA" offset="11%"></stop>
            <stop stop-color="#5567BE" offset="31%"></stop>
            <stop stop-color="#4F45A9" offset="50%"></stop>
            <stop stop-color="#4B2D9A" offset="69%"></stop>
            <stop stop-color="#491E90" offset="86%"></stop>
            <stop stop-color="#48198D" offset="100%"></stop>
        </linearGradient>
    </defs>
    <g id="Blog,Articles/Subscribe-form-(modal)/320" stroke="none" stroke-width="1" fill="none" fill-rule="evenodd" transform="translate(-90.000000, -47.000000)">
        <g id="Icons/RubyBlog_logo" transform="translate(90.000000, 47.000000)">
            <g id="Group-2">
                <g id="logo/color-symbol+dark-text" transform="translate(0.000000, 0.513606)" fill="url(#linearGradient-1)">
                    <g id="ic_rg_logo">
                        <path d="M9.86695545,24.7530585 C11.8827733,24.7485503 13.7025748,25.9421347 14.4768143,27.7766056 C15.2510538,29.6110765 14.8270407,31.7246512 13.4027188,33.1306406 C11.978397,34.53663 9.83466207,34.9577539 7.97228299,34.1974171 C6.10990391,33.4370803 4.8961673,31.6452317 4.89768694,29.6583676 C4.89975613,26.9529834 7.12214691,24.759197 9.86695545,24.7530585 L9.86695545,24.7530585 Z M9.86695545,4.12922308 C13.8581092,4.12922337 17.4561973,6.49909707 18.9831935,10.1336155 C20.5101897,13.7681339 19.6653242,17.9514119 16.8426135,20.7325106 C14.0199028,23.5136094 9.77533152,24.3447404 6.08842384,22.8382923 C2.40151616,21.3318443 -0.00152392277,17.7845398 -1.09545215e-15,13.8507213 C-2.64473099e-15,11.2714348 1.03955125,8.79778922 2.88996434,6.97395826 C4.74037743,5.15012731 7.25007616,4.12550975 9.86695545,4.12550975 L9.86695545,4.12922308 Z M9.86695545,7.77571324 C7.37216539,7.7757137 5.12309944,9.25714872 4.16873695,11.5290671 C3.21437446,13.8009856 3.7427149,16.4158431 5.50733676,18.1540528 C7.27195863,19.8922625 9.92524979,20.4114151 12.2296976,19.4693744 C14.5341454,18.5273337 16.0357975,16.309672 16.0342735,13.8507213 C16.0321937,10.4949864 13.2716004,7.77571262 9.86695545,7.77571324 Z M17.0439505,0 C15.6810881,-8.22524355e-17 14.5762698,1.08894701 14.5762698,2.43223122 C14.5762698,3.77551543 15.6810881,4.86446244 17.0439505,4.86446244 C18.406813,4.86446244 19.5116313,3.77551543 19.5116313,2.43223122 C19.5116313,1.78716339 19.2516442,1.16851587 18.7888643,0.712384031 C18.3260844,0.256252196 17.6984202,3.94990125e-17 17.0439505,0 Z" id="Shape"></path>
                    </g>
                </g>
                <path d="M37.0594393,11.4093458 L37.0594393,12.6026168 L32.8515888,12.6026168 L32.8515888,26.1682243 L31.3861682,26.1682243 L31.3861682,12.6026168 L27.1992523,12.6026168 L27.1992523,11.4093458 L37.0594393,11.4093458 Z M44.0097196,25.1005607 C45.0424974,25.1005607 45.9077847,24.8423702 46.6056075,24.3259813 C47.3034303,23.8095924 47.7221177,23.1117801 47.8616822,22.2325234 L49.4108411,22.2325234 C49.2014943,23.446735 48.62231,24.4306504 47.673271,25.1842991 C46.724232,25.9379477 45.5239948,26.3147664 44.0725234,26.3147664 C42.9839198,26.3147664 42.0174497,26.0809992 41.1730841,25.6134579 C40.3287185,25.1459167 39.6692859,24.4690387 39.1947664,23.5828037 C38.7202468,22.6965688 38.4829907,21.6533393 38.4829907,20.4530841 C38.4829907,19.2528289 38.7202468,18.2095994 39.1947664,17.3233645 C39.6692859,16.4371295 40.3287185,15.7602516 41.1730841,15.2927103 C42.0174497,14.825169 42.9839198,14.5914019 44.0725234,14.5914019 C45.1890399,14.5914019 46.1555099,14.825169 46.9719626,15.2927103 C47.7884153,15.7602516 48.4094683,16.3847936 48.8351402,17.1663551 C49.2608121,17.9479167 49.4736449,18.7992477 49.4736449,19.7203738 C49.4736449,20.1111546 49.4457324,20.4670389 49.3899065,20.7880374 L39.9274766,20.7880374 C39.9414331,21.7510329 40.1403096,22.5570061 40.5241121,23.2059813 C40.9079147,23.8549565 41.4068505,24.332958 42.0209346,24.64 C42.6350186,24.947042 43.2979404,25.1005607 44.0097196,25.1005607 Z M44.0725234,15.7846729 C43.3328312,15.7846729 42.6559532,15.9381916 42.0418692,16.2452336 C41.4277851,16.5522757 40.9288493,17.023299 40.5450467,17.6583178 C40.1612442,18.2933365 39.9553895,19.0853535 39.9274766,20.0343925 L48.0082243,20.0343925 C48.0640501,19.09931 47.9105314,18.310782 47.5476636,17.668785 C47.1847957,17.0267881 46.6963271,16.5522757 46.082243,16.2452336 C45.4681589,15.9381916 44.7982591,15.7846729 44.0725234,15.7846729 Z M57.1566355,14.5914019 C58.6081069,14.5914019 59.8118332,14.9751987 60.7678505,15.7428037 C61.7238677,16.5104088 62.306541,17.5292148 62.5158879,18.7992523 L60.9876636,18.7992523 C60.8341425,17.8920827 60.408477,17.176825 59.7106542,16.6534579 C59.0128314,16.1300908 58.1545222,15.8684112 57.1357009,15.8684112 C56.3960088,15.8684112 55.7156417,16.0358862 55.0945794,16.3708411 C54.4735171,16.7057961 53.9780704,17.2186881 53.6082243,17.9095327 C53.2383782,18.6003773 53.0534579,19.4482193 53.0534579,20.4530841 C53.0534579,21.4579489 53.2383782,22.3057909 53.6082243,22.9966355 C53.9780704,23.6874801 54.4735171,24.2003722 55.0945794,24.5353271 C55.7156417,24.870282 56.3960088,25.037757 57.1357009,25.037757 C58.1545222,25.037757 59.0128314,24.7760774 59.7106542,24.2527103 C60.408477,23.7293432 60.8341425,23.0140855 60.9876636,22.1069159 L62.5158879,22.1069159 C62.306541,23.3769534 61.7238677,24.3957594 60.7678505,25.1633645 C59.8118332,25.9309696 58.6081069,26.3147664 57.1566355,26.3147664 C56.0680319,26.3147664 55.1015619,26.0809992 54.2571963,25.6134579 C53.4128307,25.1459167 52.753398,24.4690387 52.2788785,23.5828037 C51.804359,22.6965688 51.5671028,21.6533393 51.5671028,20.4530841 C51.5671028,19.2528289 51.804359,18.2095994 52.2788785,17.3233645 C52.753398,16.4371295 53.4128307,15.7602516 54.2571963,15.2927103 C55.1015619,14.825169 56.0680319,14.5914019 57.1566355,14.5914019 Z M70.868785,14.5285981 C72.1946484,14.5285981 73.2727684,14.9507746 74.1031776,15.7951402 C74.9335867,16.6395058 75.348785,17.8781227 75.348785,19.511028 L75.348785,26.1682243 L73.9042991,26.1682243 L73.9042991,19.6157009 C73.9042991,18.3735763 73.5902835,17.4210625 72.962243,16.7581308 C72.3342025,16.0951992 71.4758933,15.7637383 70.3872897,15.7637383 C69.2428603,15.7637383 68.3322152,16.1300898 67.6553271,16.8628037 C66.978439,17.5955177 66.64,18.6736377 66.64,20.0971963 L66.64,26.1682243 L65.1536449,26.1682243 L65.1536449,10.6766355 L66.64,10.6766355 L66.64,17.5431776 C66.9330856,16.5662256 67.463423,15.8195664 68.231028,15.3031776 C68.9986331,14.7867887 69.8778767,14.5285981 70.868785,14.5285981 Z M95.4250467,26.1682243 L91.8452336,26.1682243 L85.8579439,17.0826168 L85.8579439,26.1682243 L82.2781308,26.1682243 L82.2781308,11.3674766 L85.8579439,11.3674766 L91.8452336,20.5368224 L91.8452336,11.3674766 L95.4250467,11.3674766 L95.4250467,26.1682243 Z M108.990654,20.0134579 C108.990654,20.3065435 108.955764,20.6275372 108.885981,20.9764486 L100.784299,20.9764486 C100.826168,21.8557053 101.049468,22.4872255 101.454206,22.871028 C101.858943,23.2548306 102.375324,23.446729 103.003364,23.446729 C103.53371,23.446729 103.973332,23.3141446 104.322243,23.048972 C104.671154,22.7837993 104.901432,22.4418713 105.013084,22.0231776 L108.802243,22.0231776 C108.648722,22.8466085 108.313772,23.5828005 107.797383,24.2317757 C107.280994,24.8807509 106.625051,25.3901539 105.829533,25.76 C105.034015,26.1298461 104.147793,26.3147664 103.170841,26.3147664 C102.026412,26.3147664 101.011095,26.0740211 100.12486,25.5925234 C99.2386249,25.1110256 98.5443016,24.4167024 98.0418692,23.5095327 C97.5394367,22.6023631 97.2882243,21.5416883 97.2882243,20.3274766 C97.2882243,19.0993085 97.5359477,18.0351447 98.0314019,17.1349533 C98.5268561,16.2347619 99.2211793,15.5439276 100.114393,15.0624299 C101.007606,14.5809322 102.026412,14.3401869 103.170841,14.3401869 C104.329227,14.3401869 105.348033,14.5774431 106.22729,15.0519626 C107.106546,15.5264821 107.786913,16.1928929 108.268411,17.051215 C108.749909,17.909537 108.990654,18.8969415 108.990654,20.0134579 Z M105.368972,19.4691589 C105.382928,18.7015538 105.177074,18.1258586 104.751402,17.7420561 C104.32573,17.3582535 103.798882,17.1663551 103.170841,17.1663551 C102.514888,17.1663551 101.970594,17.3617426 101.537944,17.7525234 C101.105294,18.1433041 100.861059,18.7155103 100.805234,19.4691589 L105.368972,19.4691589 Z M127.936449,14.486729 L124.942804,26.1682243 L120.944299,26.1682243 L118.829907,18.3386916 L116.694579,26.1682243 L112.696075,26.1682243 L109.70243,14.486729 L113.282243,14.486729 L114.831402,22.9024299 L117.008598,14.486729 L120.818692,14.486729 L123.058692,22.9233645 L124.60785,14.486729 L127.936449,14.486729 Z M133.484112,14.3401869 C134.963496,14.3401869 136.146288,14.7100275 137.032523,15.4497196 C137.918758,16.1894118 138.473519,17.1663491 138.696822,18.3805607 L135.34729,18.3805607 C135.249595,17.9060412 135.029784,17.5327116 134.68785,17.2605607 C134.345917,16.9884099 133.916763,16.8523364 133.400374,16.8523364 C132.995637,16.8523364 132.688599,16.939563 132.479252,17.1140187 C132.269905,17.2884744 132.165234,17.5361978 132.165234,17.8571963 C132.165234,18.2200641 132.357132,18.4922109 132.740935,18.6736449 C133.124737,18.8550788 133.728345,19.03651 134.551776,19.2179439 C135.444989,19.4272908 136.177692,19.6401235 136.749907,19.8564486 C137.322121,20.0727737 137.817568,20.4251689 138.236262,20.9136449 C138.654955,21.4021208 138.864299,22.0580644 138.864299,22.8814953 C138.864299,23.5514052 138.682868,24.1445457 138.32,24.6609346 C137.957132,25.1773235 137.433773,25.5820546 136.749907,25.8751402 C136.06604,26.1682258 135.256578,26.3147664 134.321495,26.3147664 C132.744416,26.3147664 131.481375,25.9658602 130.532336,25.2680374 C129.583297,24.5702146 129.004113,23.5723429 128.794766,22.2743925 L132.248972,22.2743925 C132.304798,22.7768249 132.517631,23.1606217 132.887477,23.4257944 C133.257323,23.6909671 133.735324,23.8235514 134.321495,23.8235514 C134.726233,23.8235514 135.03327,23.7293467 135.242617,23.5409346 C135.451964,23.3525224 135.556636,23.104799 135.556636,22.797757 C135.556636,22.3930198 135.364737,22.1034277 134.980935,21.928972 C134.597132,21.7545163 133.97259,21.569596 133.10729,21.3742056 C132.241989,21.1927717 131.530221,20.9973842 130.971963,20.7880374 C130.413704,20.5786905 129.932214,20.2402516 129.527477,19.7727103 C129.122739,19.305169 128.920374,18.6666707 128.920374,17.8571963 C128.920374,16.8104621 129.318127,15.9626201 130.113645,15.3136449 C130.909163,14.6646697 132.032641,14.3401869 133.484112,14.3401869 Z" id="Tech-News" fill="#000000"></path>
            </g>
        </g>
    </g>
</svg>