<?xml version="1.0" encoding="UTF-8"?>
<svg width="125px" height="39px" viewBox="0 0 125 39" version="1.1" xmlns="http://www.w3.org/2000/svg" xmlns:xlink="http://www.w3.org/1999/xlink">
    <!-- Generator: Sketch 51.3 (57544) - http://www.bohemiancoding.com/sketch -->
    <title>Airbnb_Logo</title>
    <desc>Created with Sketch.</desc>
    <defs></defs>
    <g id="Design-assets" stroke="none" stroke-width="1" fill="none" fill-rule="evenodd">
        <g id="Airbnb_Logo" fill="#FF5A5F" fill-rule="nonzero">
            <path d="M65.8793898,9.78605417 C65.8793898,11.1896317 64.7469607,12.3202913 63.3411866,12.3202913 C61.9354125,12.3202913 60.8029834,11.1896317 60.8029834,9.78605417 C60.8029834,8.38247668 61.8963632,7.25181703 63.3411866,7.25181703 C64.7860099,7.2908053 65.8793898,8.42146494 65.8793898,9.78605417 Z M55.4141827,14.8935167 C55.4141827,15.1274463 55.4141827,15.5173289 55.4141827,15.5173289 C55.4141827,15.5173289 54.203655,13.9577984 51.6264025,13.9577984 C47.370031,13.9577984 44.0508422,17.1938243 44.0508422,21.6774746 C44.0508422,26.1221366 47.3309817,29.3971508 51.6264025,29.3971508 C54.2427043,29.3971508 55.4141827,27.798632 55.4141827,27.798632 L55.4141827,28.4614324 C55.4141827,28.7733386 55.6484784,29.0072681 55.9608726,29.0072681 L59.1238643,29.0072681 L59.1238643,14.347681 C59.1238643,14.347681 56.2342176,14.347681 55.9608726,14.347681 C55.6484784,14.347681 55.4141827,14.6205989 55.4141827,14.8935167 Z M55.4141827,24.2896882 C54.8284435,25.14743 53.6569651,25.888207 52.251191,25.888207 C49.7520371,25.888207 47.8386223,24.3286765 47.8386223,21.6774746 C47.8386223,19.0262726 49.7520371,17.4667421 52.251191,17.4667421 C53.6179158,17.4667421 54.8674928,18.2465074 55.4141827,19.0652609 L55.4141827,24.2896882 Z M61.4668211,14.347681 L65.215552,14.347681 L65.215552,29.0072681 L61.4668211,29.0072681 L61.4668211,14.347681 Z M117.463489,13.9577984 C114.886236,13.9577984 113.675709,15.5173289 113.675709,15.5173289 L113.675709,7.2908053 L109.926978,7.2908053 L109.926978,29.0072681 C109.926978,29.0072681 112.816625,29.0072681 113.08997,29.0072681 C113.402364,29.0072681 113.636659,28.7343503 113.636659,28.4614324 L113.636659,27.798632 C113.636659,27.798632 114.847187,29.3971508 117.42444,29.3971508 C121.680811,29.3971508 125,26.1221366 125,21.6774746 C125,17.2328125 121.680811,13.9577984 117.463489,13.9577984 Z M116.8387,25.8492188 C115.393877,25.8492188 114.261448,25.1084418 113.675709,24.2507 L113.675709,19.0262726 C114.261448,18.2465074 115.511025,17.4277538 116.8387,17.4277538 C119.337854,17.4277538 121.251269,18.9872844 121.251269,21.6384863 C121.251269,24.2896882 119.337854,25.8492188 116.8387,25.8492188 Z M107.974514,20.3128853 L107.974514,29.0462564 L104.225783,29.0462564 L104.225783,20.7417562 C104.225783,18.3244839 103.444797,17.3497773 101.336136,17.3497773 C100.203707,17.3497773 99.0322287,17.9346013 98.2902923,18.7923431 L98.2902923,29.0072681 L94.5415615,29.0072681 L94.5415615,14.347681 L97.5093067,14.347681 C97.821701,14.347681 98.0559967,14.6205989 98.0559967,14.8935167 L98.0559967,15.5173289 C99.1493765,14.3866693 100.5942,13.9577984 102.039023,13.9577984 C103.679093,13.9577984 105.045818,14.4256575 106.139198,15.3613759 C107.466873,16.4530473 107.974514,17.8566247 107.974514,20.3128853 Z M85.4430792,13.9577984 C82.8658267,13.9577984 81.655299,15.5173289 81.655299,15.5173289 L81.655299,7.2908053 L77.9065681,7.2908053 L77.9065681,29.0072681 C77.9065681,29.0072681 80.7962148,29.0072681 81.0695598,29.0072681 C81.381954,29.0072681 81.6162497,28.7343503 81.6162497,28.4614324 L81.6162497,27.798632 C81.6162497,27.798632 82.8267774,29.3971508 85.4040299,29.3971508 C89.6604014,29.3971508 92.9795902,26.1221366 92.9795902,21.6774746 C93.0186395,17.2328125 89.6994507,13.9577984 85.4430792,13.9577984 Z M84.8182907,25.8492188 C83.3734673,25.8492188 82.2410382,25.1084418 81.655299,24.2507 L81.655299,19.0262726 C82.2410382,18.2465074 83.4906152,17.4277538 84.8182907,17.4277538 C87.3174446,17.4277538 89.2308593,18.9872844 89.2308593,21.6384863 C89.2308593,24.2896882 87.3174446,25.8492188 84.8182907,25.8492188 Z M74.6654778,13.9577984 C75.797907,13.9577984 76.3836462,14.1527397 76.3836462,14.1527397 L76.3836462,17.6226952 C76.3836462,17.6226952 73.2597037,16.570012 71.3072397,18.7923431 L71.3072397,29.0462564 L67.5585088,29.0462564 L67.5585088,14.347681 C67.5585088,14.347681 70.4481556,14.347681 70.7215005,14.347681 C71.0338948,14.347681 71.2681905,14.6205989 71.2681905,14.8935167 L71.2681905,15.5173289 C71.9710775,14.6985754 73.4939994,13.9577984 74.6654778,13.9577984 Z M35.7333455,27.6816672 C35.5380991,27.213808 35.3428527,26.7069606 35.1476063,26.2780897 C34.835212,25.5763009 34.5228178,24.9135005 34.2494728,24.2896882 L34.2104236,24.2507 C31.5160232,18.4024604 28.6263765,12.4762444 25.5805326,6.62800482 L25.4633848,6.39407523 C25.1509906,5.80925128 24.8385963,5.18543906 24.5262021,4.56162684 C24.1357093,3.8598381 23.7452165,3.11906109 23.120428,2.41727234 C21.870851,0.8577418 20.0745841,0 18.1611694,0 C16.2087054,0 14.4514878,0.8577418 13.1628615,2.33929582 C12.5771223,3.04108456 12.1475802,3.78186157 11.7570874,4.48365032 C11.4446932,5.10746253 11.132299,5.73127475 10.8199047,6.31609871 L10.7027569,6.55002829 C7.6959623,12.3982678 4.76726629,18.3244839 2.07286596,24.1727234 L2.03381668,24.2507 C1.76047172,24.8745122 1.44807747,25.5373127 1.13568323,26.2391014 C0.940436831,26.6679723 0.74519043,27.1358315 0.549944029,27.6426789 C0.0423033869,29.0852447 -0.113893734,30.4498339 0.0813526671,31.8534114 C0.510894749,34.7775312 2.46335876,37.2337918 5.15775909,38.3254631 C6.17304038,38.754334 7.22737094,38.9492754 8.32075079,38.9492754 C8.63314503,38.9492754 9.02363783,38.9102871 9.33603207,38.8712988 C10.6246583,38.7153458 11.9523338,38.2864749 13.2409601,37.5456979 C14.8419806,36.6489678 16.3649025,35.3623551 18.0830708,33.4909185 C19.8012392,35.3623551 21.3632104,36.6489678 22.9251816,37.5456979 C24.2138078,38.2864749 25.5414834,38.7153458 26.8301096,38.8712988 C27.1425038,38.9102871 27.5329966,38.9492754 27.8453909,38.9492754 C28.9387707,38.9492754 30.0321506,38.754334 31.0083826,38.3254631 C33.7418322,37.2337918 35.6552469,34.7385429 36.084789,31.8534114 C36.3971832,30.4888222 36.2409861,29.1242329 35.7333455,27.6816672 Z M18.1221201,29.7090569 C16.013459,27.057855 14.6467342,24.5626061 14.1781428,22.4572398 C13.9828964,21.5605098 13.9438471,20.7807445 14.060995,20.0789558 C14.1390935,19.4551435 14.3733892,18.9093079 14.6857835,18.4414487 C15.4277198,17.3887656 16.6772967,16.7259651 18.1221201,16.7259651 C19.5669435,16.7259651 20.8555697,17.3497773 21.5584568,18.4414487 C21.870851,18.9093079 22.1051467,19.4551435 22.1832453,20.0789558 C22.3003931,20.7807445 22.2613438,21.599498 22.0660974,22.4572398 C21.5975061,24.5236178 20.2307812,27.0188667 18.1221201,29.7090569 Z M33.7027829,31.5415053 C33.429438,33.568895 32.0627131,35.3233668 30.1492984,36.1031321 C29.2121157,36.4930148 28.1968344,36.6099795 27.1815531,36.4930148 C26.2053211,36.37605 25.2290891,36.0641439 24.2138078,35.4793199 C22.8080337,34.6995546 21.4022597,33.4909185 19.7621899,31.6974583 C22.3394424,28.539409 23.9014136,25.6542775 24.4871528,23.0810521 C24.7604977,21.8724159 24.799547,20.7807445 24.6823992,19.7670497 C24.5262021,18.7923431 24.1747585,17.895613 23.6280686,17.1158477 C22.4175409,15.3613759 20.3869784,14.347681 18.1221201,14.347681 C15.8572619,14.347681 13.8266993,15.4003641 12.6161716,17.1158477 C12.0694817,17.895613 11.7180382,18.7923431 11.561841,19.7670497 C11.4056439,20.7807445 11.4446932,21.9114042 11.7570874,23.0810521 C12.3428266,25.6542775 13.9438471,28.5783972 16.4820503,31.7364466 C14.8810299,33.5299067 13.4362065,34.7385429 12.0304324,35.5183082 C11.0151511,36.1031321 10.0389191,36.4150382 9.06268711,36.532003 C8.00835655,36.6489678 6.99307526,36.4930148 6.09494182,36.1421204 C4.18152709,35.3623551 2.81480228,33.6078832 2.54145732,31.5804935 C2.42430948,30.6057869 2.50240804,29.6310804 2.89290084,28.539409 C3.01004868,28.1495263 3.20529508,27.7596437 3.40054148,27.2917845 C3.67388644,26.6679723 3.98628069,26.0051718 4.29867493,25.3423714 L4.33772421,25.2643948 C7.03212454,19.4551435 9.92177128,13.5289275 12.9285659,7.75866446 L13.0457137,7.52473488 C13.3581079,6.93991093 13.6705022,6.31609871 13.9828964,5.73127475 C14.2952907,5.10746253 14.6467342,4.52263858 15.0762763,4.01579115 C15.8963111,3.08007283 16.989691,2.5732254 18.2002187,2.5732254 C19.4107464,2.5732254 20.5041262,3.08007283 21.3241611,4.01579115 C21.7537032,4.52263858 22.1051467,5.10746253 22.4175409,5.73127475 C22.7299352,6.31609871 23.0423294,6.93991093 23.3547237,7.52473488 L23.4718715,7.75866446 C26.4396168,13.5679157 29.3292635,19.4941318 32.0236639,25.3033831 L32.0236639,25.3423714 C32.3360581,25.9661836 32.6094031,26.6679723 32.9217973,27.2917845 C33.1170437,27.7596437 33.3122901,28.1495263 33.429438,28.539409 C33.7418322,29.5531038 33.85898,30.5278104 33.7027829,31.5415053 Z" id="Shape"></path>
        </g>
    </g>
</svg>