<svg id="Icons_Final" data-name="Icons Final" xmlns="http://www.w3.org/2000/svg" width="48" height="48" viewBox="0 0 48 48"><title>Amazon-ElastiCache-for-Memcache_Icon_48_Squid</title><g id="Squid_Ink" data-name="Squid Ink"><g id="_16x_copy" data-name="16x copy"><rect width="48" height="48" style="fill:none"/><text transform="translate(16.71 39.36)" style="font-size:17px;fill:#232f3e;font-family:AmazonEmber-Medium, Amazon Ember;font-weight:500">M</text><path d="M24,15c-6,0-12,1.6-12,4.67a1.52,1.52,0,0,0,0,.21h0V40.33C12,43.4,18,45,24,45s12-1.6,12-4.67V19.88h0a1.52,1.52,0,0,0,0-.21C36,16.6,30,15,24,15Zm0,2c6.2,0,10,1.73,10,2.67s-3.8,2.67-10,2.67-10-1.73-10-2.67S17.8,17,24,17Zm7.8,13.34a10.63,10.63,0,0,0,2.2-.92v4.09c0,.35-.75,1.09-2.8,1.73l.6,1.91a11.21,11.21,0,0,0,2.2-.92v4.1C34,41.27,30.2,43,24,43s-10-1.73-10-2.67v-4.1a11.27,11.27,0,0,0,2.23.93l.59-1.91C14.75,34.61,14,33.86,14,33.51V29.42a10.7,10.7,0,0,0,2.23.93l.59-1.91C14.75,27.8,14,27.05,14,26.7V22.36c2.27,1.31,6.14,2,10,2s7.74-.67,10-2V26.7c0,.35-.75,1.09-2.8,1.74Z" style="fill:#232f3e"/><path d="M23,13V9a1,1,0,0,0-1-1H17a1,1,0,0,0-1,1v5h2V10h3v3Z" style="fill:#232f3e"/><path d="M32,14V9a1,1,0,0,0-1-1H26a1,1,0,0,0-1,1v4h2V10h3v4Z" style="fill:#232f3e"/><path d="M38,21H37v2h2a1,1,0,0,0,1-1V9a1,1,0,0,0-1-1H35a1,1,0,0,0-1,1v6h2V10h2Z" style="fill:#232f3e"/><path d="M10,10h2v5h2V9a1,1,0,0,0-1-1H9A1,1,0,0,0,8,9V22a1,1,0,0,0,1,1h2V21H10Z" style="fill:#232f3e"/><path d="M45,10a1,1,0,0,0,1-1V5a1,1,0,0,0-1-1H3A1,1,0,0,0,2,5V9a1,1,0,0,0,1,1,1.5,1.5,0,0,1,0,3,1,1,0,0,0-1,1V30a1,1,0,0,0,1,1h8V29H7V27h4V25H6a1,1,0,0,0-1,1v3H4V14.85a3.49,3.49,0,0,0,0-6.7V6H44V8.15a3.49,3.49,0,0,0,0,6.7V29H43V26a1,1,0,0,0-1-1H37v2h4v2H37v2h8a1,1,0,0,0,1-1V14a1,1,0,0,0-1-1,1.5,1.5,0,0,1,0-3Z" style="fill:#232f3e"/></g></g></svg>