<svg xmlns="http://www.w3.org/2000/svg" width="32" height="32" viewBox="0 0 32 32"><title>Amazon-Quantum-Ledger-Database_Icon_32_Squid</title><g id="Icons_Final" data-name="Icons Final"><path d="M19,24.87c0,1.24-3.08,2.62-7.5,2.62S4,26.11,4,24.87v-4a10.4,10.4,0,0,0,6.9,2.16,15.29,15.29,0,0,0,5.94-.94l-.42-.91a14.68,14.68,0,0,1-5.52.85c-3.59,0-6.16-1.35-6.9-2.71V15.07a5,5,0,0,0,1.71,1.05l.36-.94A3.48,3.48,0,0,1,4,13.38V9.21C5.53,10.38,8.57,11,11.5,11s6-.62,7.5-1.79V12h1V7h-.08c-.6-1.95-4.61-3-8.42-3s-7.82,1-8.42,3H3V24.87c0,2.35,4.38,3.62,8.5,3.62S20,27.22,20,24.87V21H19ZM11.5,5C15.79,5,19,6.32,19,7.5S15.79,10,11.5,10,4,8.68,4,7.5,7.21,5,11.5,5Z" style="fill:#232f3e"/><path d="M10.87,15h-.74A1.14,1.14,0,0,0,9,16.13v.74A1.14,1.14,0,0,0,10.13,18h.74A1.14,1.14,0,0,0,12,16.87v-.74A1.14,1.14,0,0,0,10.87,15ZM11,16.87a.13.13,0,0,1-.13.13h-.74a.13.13,0,0,1-.13-.13v-.74a.13.13,0,0,1,.13-.13h.74a.13.13,0,0,1,.13.13Z" style="fill:#232f3e"/><path d="M19.2,15H17.8a.8.8,0,0,0-.8.8v1.4a.8.8,0,0,0,.8.8h1.4a.8.8,0,0,0,.8-.8V15.8A.8.8,0,0,0,19.2,15ZM19,17H18V16h1Z" style="fill:#232f3e"/><path d="M26.13,18h.74A1.14,1.14,0,0,0,28,16.87v-.74A1.14,1.14,0,0,0,26.87,15h-.74A1.14,1.14,0,0,0,25,16.13v.74A1.14,1.14,0,0,0,26.13,18ZM26,16.13a.13.13,0,0,1,.13-.13h.74a.13.13,0,0,1,.13.13v.74a.13.13,0,0,1-.13.13h-.74a.13.13,0,0,1-.13-.13Z" style="fill:#232f3e"/><path d="M29.2,13H23.8a.8.8,0,0,0-.8.8V15H22V13.8a.8.8,0,0,0-.8-.8H15.8a.8.8,0,0,0-.8.8V15H14V13.8a.8.8,0,0,0-.8-.8H7.8a.8.8,0,0,0-.8.8v5.4a.8.8,0,0,0,.8.8h5.4a.8.8,0,0,0,.8-.8V18h1v1.2a.8.8,0,0,0,.8.8h5.4a.8.8,0,0,0,.8-.8V18h1v1.2a.8.8,0,0,0,.8.8h5.4a.8.8,0,0,0,.8-.8V13.8A.8.8,0,0,0,29.2,13ZM29,19H24V17H21v2H16V17H13v2H8V14h5v2h3V14h5v2h3V14h5Z" style="fill:#232f3e"/></g></svg>