<svg xmlns="http://www.w3.org/2000/svg" width="32" height="32" viewBox="0 0 32 32"><title>Amazon-RDS_Icon_32_Squid</title><g id="Icons_Final" data-name="Icons Final"><path d="M16,9c-2.65,0-5,1-5,2v9.52c0,1.48,2.27,2.24,5,2.24s5.5-.77,6-2.24V11C21.5,9.63,18.65,9,16,9Zm-4,2c.08-.28,1.58-1,4.5-1s4.4.72,4.5,1c-.1.28-1.6,1-4.5,1s-4.42-.73-4.5-1Zm9,9.51c0,.37-1.53,1.24-4.5,1.24S12,20.89,12,20.52V18.85a10.16,10.16,0,0,0,4.5.88,10.16,10.16,0,0,0,4.5-.88Zm0-2.94c-.23.45-1.88,1.15-4.5,1.15S12.23,18,12,17.58V15.4a10.16,10.16,0,0,0,4.5.88A10.16,10.16,0,0,0,21,15.4Zm0-3.45c-.23.45-1.88,1.15-4.5,1.15s-4.27-.7-4.5-1.15V12.21a10.93,10.93,0,0,0,4.5.79,10.93,10.93,0,0,0,4.5-.79Z" style="fill:#232f3e"/><path d="M8.26,11.39l-.34-1c-3.3,1.19-5.18,3-5.18,5s1.88,3.77,5.18,5l.34-.94c-2.83-1-4.52-2.52-4.52-4S5.43,12.41,8.26,11.39Z" style="fill:#232f3e"/><path d="M23.9,19.52l.32.95c3.5-1.18,5.51-3,5.51-5.07s-2-3.89-5.51-5.07l-.32.95c3,1,4.83,2.56,4.83,4.12S26.92,18.5,23.9,19.52Z" style="fill:#232f3e"/><path d="M3,3.88l4.15,4,.7-.72L3.53,3H7V2H2.5a.5.5,0,0,0-.5.5V7H3Z" style="fill:#232f3e"/><path d="M29.5,2H25V3h3.29L24.15,7.15l.7.7L29,3.71V7h1V2.5A.5.5,0,0,0,29.5,2Z" style="fill:#232f3e"/><path d="M29,28.29l-4.15-4.14-.7.7L28.29,29H25v1h4.5a.5.5,0,0,0,.5-.5V25H29Z" style="fill:#232f3e"/><path d="M7.15,24.15,3,28.29V25H2v4.5a.5.5,0,0,0,.5.5H7V29H3.71l4.14-4.15Z" style="fill:#232f3e"/></g></svg>