<svg xmlns="http://www.w3.org/2000/svg" width="48" height="48" viewBox="0 0 48 48"><title>Amazon-RDS_Icon_48_Squid</title><g id="Icons_Final" data-name="Icons Final"><path d="M23.9,12.2c-3.71,0-9.9.78-9.9,3.72v16.4c0,2.71,5.09,3.94,9.9,3.94S34,35,34,32.32V15.92C34,13,27.62,12.2,23.9,12.2Zm0,1.8c4.47,0,8.1,1,8.1,2,0,.72-3.53,2-8,2s-8-1.28-8-2C16,14.88,19.44,14,23.9,14ZM16,17.9c3,2.1,13,2.1,16,0V21c-.13.51-2.89,1.84-8.1,1.84S16.13,21.51,16,21ZM23.9,34c-5.22,0-7.78-1.38-7.9-1.9V29c4,2,12,2,16,0v3.12C31.88,32.65,29.13,34,23.9,34Zm0-5.2c-5.2,0-7.73-1.33-7.86-1.84h0V22.86c2,2.14,14,2.14,16,0V27C31.87,27.5,29.11,28.83,23.9,28.83Z" style="fill:#232f3e"/><path d="M10.45,36.25,4,42.59V37H2v7.8A1.2,1.2,0,0,0,3.2,46H11V44H5.44l6.45-6.34Z" style="fill:#232f3e"/><path d="M44,42.56l-6.25-6.37-1.42,1.44L42.59,44H37v2h8a1,1,0,0,0,1-1V37H44Z" style="fill:#232f3e"/><path d="M45,2H37V4h5.56l-6.37,6.25,1.44,1.42L44,5.41V11h2V3A1,1,0,0,0,45,2Z" style="fill:#232f3e"/><path d="M11,4V2H3A1,1,0,0,0,2,3v8H4V5.44l6.45,6.45,1.44-1.44L5.44,4Z" style="fill:#232f3e"/><path d="M10.71,17.48,10,15.6c-5.4,2-8.5,4.93-8.5,8.18S4.64,30,10,32l.67-1.88c-4.49-1.62-7.17-4-7.17-6.3S6.22,19.1,10.71,17.48Z" style="fill:#232f3e"/><path d="M35.83,30.26l.64,1.89c5.74-1.94,9-5,9-8.37s-3.29-6.43-9-8.37l-.64,1.9c4.8,1.62,7.67,4,7.67,6.47S40.63,28.63,35.83,30.26Z" style="fill:#232f3e"/></g></svg>