<svg id="Working_Review" data-name="Working/Review" xmlns="http://www.w3.org/2000/svg" width="32" height="32" viewBox="0 0 32 32"><title>Amazon-Timestream_Icon_32_Squid</title><g id="SQUID_OUTLINES" data-name="SQUID OUTLINES"><rect width="32" height="32" style="fill:none"/><g id="_16x" data-name="16x"><path d="M17,12H16V24.5a.5.5,0,0,0,.5.5H22v1.87c0,1.52-3.7,3.2-9,3.2s-9-1.68-9-3.2V22.41c1.67,1.33,5,2.18,8.81,2.18a25.2,25.2,0,0,0,2.75-.15l-.11-1a23.23,23.23,0,0,1-2.64.15c-4.64,0-8-1.31-8.81-2.63V15.13c1.68,1.32,5,2.18,8.81,2.18a25,25,0,0,0,2.76-.16l-.12-1a22.72,22.72,0,0,1-2.64.15c-4.76,0-8-1.34-8.81-2.63V7.81C5.73,9.24,9.44,10,13,10s7.27-.76,9-2.19V12h1V6c0-2.6-5.15-4-10-4S3,3.4,3,6V21.18H3v5.68c0,2.4,4.3,4.2,10,4.2s10-1.8,10-4.2V25h6V24H17ZM13,3c5.3,0,9,1.58,9,3s-3.7,3-9,3S4,7.42,4,6,7.7,3,13,3Z" style="fill:#232f3e"/><polygon points="21.92 14.21 20.71 13 18 13 18 14 20.29 14 22.08 15.79 23.27 14 24.24 14 25.65 15.36 26.35 14.64 24.65 13 22.73 13 21.92 14.21" style="fill:#232f3e"/><polygon points="28.35 19.65 27.65 20.35 28.29 21 25.55 21 24.02 19.27 22 21.29 20.25 19.54 22.17 18 25.1 18 26.66 16.3 28.29 18 27 18 27 19 30 19 30 16 29 16 29 17.29 27.33 15.56 29 13.74 29 15 30 15 30 12 27 12 27 13 28.32 13 24.66 17 21.83 17 19.54 18.83 18.35 17.65 17.65 18.35 22 22.71 23.98 20.73 25.09 22 28.29 22 27.65 22.65 28.35 23.35 30.21 21.5 28.35 19.65" style="fill:#232f3e"/></g></g></svg>