<svg id="Icons_Final" data-name="Icons Final" xmlns="http://www.w3.org/2000/svg" width="48" height="48" viewBox="0 0 48 48"><title>Amazon-Aurora_Icon_48_Squid</title><g id="Squid"><g id="_48x" data-name="48x"><rect width="48" height="48" style="fill:none"/><rect width="48" height="48" style="fill:none"/><path d="M25,36.88c0,1.43-4.09,3.51-10.5,3.51S4,38.31,4,36.88v-4.4c2.24,1.36,6,2.19,10.19,2.19a25.55,25.55,0,0,0,8-1.16l-.65-1.9a23.17,23.17,0,0,1-7.3,1.06C8.84,32.67,5,31.27,4,29.92V24.23a24.33,24.33,0,0,0,10.15,1.88c3.89,0,8.28-.73,10.85-2.27V26h2V12c0-3.28-6.29-5-12.5-5S2,8.72,2,12V22.81H2V36.88c0,3.58,6.44,5.51,12.5,5.51S27,40.46,27,36.88V34H25ZM14.15,24.11c-5,0-8.55-1.06-10.15-2.19V14.83C6.35,16.26,10.43,17,14.5,17s8.15-.74,10.5-2.17V21.3C24,22.7,19.8,24.11,14.15,24.11ZM14.5,9C21.29,9,25,11,25,12s-3.71,3-10.5,3S4,13,4,12,7.71,9,14.5,9Z" style="fill:#232f3e"/><path d="M45.63,28.85c-5.16,0-11-5.88-11-11a1,1,0,0,0-2,0c0,5.16-5.88,11-11,11a1,1,0,0,0,0,2c5.16,0,11,5.88,11,11a1,1,0,0,0,2,0c0-5.16,5.88-11,11-11a1,1,0,0,0,0-2Zm-12,8.73a16.06,16.06,0,0,0-7.72-7.73,16.15,16.15,0,0,0,7.72-7.73,16.21,16.21,0,0,0,7.73,7.73A16.13,16.13,0,0,0,33.59,37.58Z" style="fill:#232f3e"/><polygon points="37 16 37 17 39 17 39 16 39 15 41 15 41 13 39 13 39 11 37 11 37 13 35 13 35 15 37 15 37 16" style="fill:#232f3e"/><polygon points="28 9 30 9 30 7 32 7 32 5 30 5 30 3 28 3 28 5 26 5 26 7 28 7 28 9" style="fill:#232f3e"/></g></g></svg>