<svg xmlns="http://www.w3.org/2000/svg" width="32" height="32" viewBox="0 0 32 32"><title>Amazon-Neptune_Icon_32_Squid</title><g id="Icons_Final" data-name="Icons Final"><path d="M19,25.64c0,1.36-3.29,2.86-8,2.86S3,27,3,25.64V21.35c1.35,1.41,4.53,2.35,8.42,2.35a21.17,21.17,0,0,0,2.52-.14l-.11-1a21.62,21.62,0,0,1-2.41.13c-4.79,0-8.13-1.54-8.13-2.92H3V14.62C4.35,16,7.53,17,11.42,17a19.43,19.43,0,0,0,4.79-.56l-.25-1a18.93,18.93,0,0,1-4.54.52c-4.79,0-8.13-1.54-8.13-2.92H3V7.89C4.47,9.16,7.43,10,11,10s6.53-.84,8-2.11V13h1V6c0-2.28-3.87-4-9-4S2,3.72,2,6V25.64c0,2.2,3.87,3.86,9,3.86s9-1.66,9-3.86V23H19ZM11,3c4.71,0,8,1.58,8,3s-3.29,3-8,3S3,7.42,3,6,6.29,3,11,3Z" style="fill:#232f3e"/><path d="M23,23a3,3,0,0,0,3-3,3,3,0,0,0-.78-2l1.91-3.21A2,2,0,0,0,28,15a2,2,0,1,0-2-2,2,2,0,0,0,.56,1.38l-.26-.15-1.87,3.15A2.91,2.91,0,0,0,23,17a3,3,0,0,0-1.61.48L19.92,16a1.5,1.5,0,1,0-1.42,1,1.56,1.56,0,0,0,.8-.23l1.35,1.38A3,3,0,0,0,20,20a2.21,2.21,0,0,0,0,.37l-1.54.32A2,2,0,1,0,19,22a1.58,1.58,0,0,0,0-.38l1.37-.28A3,3,0,0,0,23,23Zm5-11a1,1,0,1,1-1,1A1,1,0,0,1,28,12ZM17,23a1,1,0,1,1,1-1A1,1,0,0,1,17,23Zm1.5-7a.5.5,0,1,1,.5-.5A.5.5,0,0,1,18.5,16Zm2.88,2.9.66-.64A1.94,1.94,0,0,1,23,18a2,2,0,1,1-1.65.87Z" style="fill:#232f3e"/><path d="M28.5,23A1.5,1.5,0,0,0,27,24.5a1.34,1.34,0,0,0,.05.35l-2.18,1.36A2,2,0,0,0,24,26a2,2,0,1,0,2,2,1.94,1.94,0,0,0-.34-1.11l1.93-1.2a1.54,1.54,0,0,0,.91.31,1.5,1.5,0,0,0,0-3ZM24,29a1,1,0,1,1,1-1A1,1,0,0,1,24,29Zm4.5-4a.5.5,0,1,1,.5-.5A.5.5,0,0,1,28.5,25Z" style="fill:#232f3e"/><rect x="22.99" y="22.5" width="1" height="4" style="fill:#232f3e"/></g></svg>