<?xml version="1.0" encoding="UTF-8"?>
<svg width="125px" height="36px" viewBox="0 0 125 36" version="1.1" xmlns="http://www.w3.org/2000/svg" xmlns:xlink="http://www.w3.org/1999/xlink">
    <!-- Generator: Sketch 51.3 (57544) - http://www.bohemiancoding.com/sketch -->
    <title>expedia</title>
    <desc>Created with Sketch.</desc>
    <defs></defs>
    <g id="Design-assets" stroke="none" stroke-width="1" fill="none" fill-rule="evenodd">
        <g id="expedia" fill-rule="nonzero">
            <path d="M60.0540806,27.6671583 L56.1701082,27.6671583 C56.1455261,27.6671583 56.1455261,27.6671583 56.133235,27.6548673 L52.7900688,23.574238 L49.4469027,27.6548673 C49.4346116,27.6671583 49.4223206,27.6671583 49.4100295,27.6671583 L46.3003933,27.6671583 C46.2758112,27.6671583 46.2635202,27.6548673 46.2512291,27.6425762 C46.2512291,27.6302852 46.2512291,27.605703 46.2635202,27.593412 L51.1922321,21.5462144 L46.3249754,15.560472 C46.3126844,15.5358899 46.3126844,15.5235988 46.3126844,15.4990167 C46.3249754,15.4867257 46.3372665,15.4744346 46.3495575,15.4744346 L50.23353,15.4744346 C50.245821,15.4744346 50.2581121,15.4867257 50.2704031,15.4990167 L53.2079646,19.1371681 L56.1946903,15.4990167 C56.2069813,15.4867257 56.2192724,15.4744346 56.2315634,15.4744346 L59.3903638,15.4744346 C59.4026549,15.4744346 59.427237,15.4867257 59.439528,15.4990167 C59.4518191,15.5235988 59.439528,15.5358899 59.427237,15.560472 L54.8180924,21.1037365 L60.1032448,27.593412 C60.1155359,27.605703 60.1155359,27.6302852 60.1155359,27.6425762 C60.0909538,27.6671583 60.0786627,27.6671583 60.0540806,27.6671583" id="path4354" fill="#072F54"></path>
            <path d="M81.0594887,17.6130777 C79.3387414,17.6130777 78.1710914,18.6578171 77.826942,20.4646018 L83.6774828,20.4646018 L83.6774828,20.3416912 C83.6774828,18.9036382 82.6081613,17.6130777 81.0594887,17.6130777 M86.6887906,22.3328417 C86.6764995,22.3451327 86.6642085,22.3574238 86.6519174,22.3574238 L77.7654867,22.3574238 C77.9498525,24.4223206 79.2895772,25.6022616 81.4650934,25.6022616 C82.8048181,25.6022616 84.2305801,25.1474926 86.2340216,24.0781711 C86.2708948,24.053589 86.3077679,24.0904621 86.3077679,24.1273353 L86.3077679,26.8559489 C86.3077679,26.880531 86.2954769,26.892822 86.2831858,26.892822 C84.4149459,27.6794494 82.5344149,28.2202557 81.0594887,28.2202557 C77.2369715,28.2202557 74.4591937,25.4301868 74.4591937,21.5953786 C74.4591937,17.7605703 77.2369715,14.9705015 81.0594887,14.9705015 C84.5501475,14.9705015 86.787119,17.3180924 86.787119,20.5506391 C86.787119,21.0791544 86.7010816,22.2959685 86.6887906,22.3328417" id="path4358" fill="#072F54"></path>
            <path d="M104.732055,12.9424779 C103.638151,12.9424779 102.753196,12.0698132 102.753196,11.0004916 C102.753196,9.89429695 103.638151,8.99705015 104.732055,8.99705015 C105.825959,8.99705015 106.710914,9.89429695 106.710914,11.0004916 C106.710914,12.0698132 105.825959,12.9424779 104.732055,12.9424779 Z M103.134218,27.6671583 C103.097345,27.6671583 103.085054,27.6548673 103.085054,27.6179941 L103.085054,15.5113078 C103.085054,15.4867257 103.097345,15.4621436 103.121927,15.4621436 L106.329892,15.4621436 C106.354474,15.4621436 106.366765,15.4867257 106.366765,15.5113078 L106.366765,27.6179941 C106.366765,27.6548673 106.342183,27.6671583 106.317601,27.6671583 L103.134218,27.6671583 Z" id="path4362" fill="#072F54"></path>
            <path d="M65.9292035,25.8480826 C65.3515241,25.8480826 64.7615536,25.7620452 64.0732547,25.5899705 L64.0855457,17.8220256 C64.8844641,17.5639135 65.572763,17.453294 66.2610619,17.453294 C68.4857424,17.453294 69.9729597,19.0880039 69.9729597,21.5339233 C69.9729597,24.1519174 68.387414,25.8480826 65.9292035,25.8480826 M66.8018682,14.9705015 C65.8923304,14.9705015 64.9827925,15.1302852 64.0240905,15.4621436 L60.8284169,15.4621436 C60.8038348,15.4621436 60.7792527,15.4867257 60.7792527,15.5113078 L60.7792527,35.3613569 C61.7379548,35.2261554 62.9178958,34.8820059 64.0732547,34.0707965 L64.0732547,28.0358899 C64.859882,28.1465093 65.5113078,28.2202557 66.1381514,28.2202557 C70.513766,28.2202557 73.340708,25.6022616 73.340708,21.5462144 C73.340708,17.6745329 70.6489676,14.9705015 66.8018682,14.9705015" id="path4366" fill="#072F54"></path>
            <path d="M97.2959685,24.8402163 C96.3003933,25.3687316 95.4031465,25.6145526 94.567355,25.6145526 C92.5884956,25.6145526 91.3962635,24.2133727 91.3962635,21.8657817 C91.3962635,19.1617502 92.9080629,17.4041298 95.2556539,17.4041298 C95.9070796,17.4041298 96.5339233,17.5639135 97.2959685,17.9080629 L97.2959685,24.8402163 Z M97.2959685,9.05850541 L97.2959685,15.3883972 C96.3618486,15.1179941 95.5383481,14.9950836 94.7025565,14.9950836 C90.8923304,14.9950836 88.0285152,17.8588987 88.0285152,21.6691249 C88.0285152,25.4547689 90.560472,28.2079646 94.0511308,28.2079646 C95.2556539,28.2079646 96.3864307,27.9006883 97.7138643,27.2246804 L97.7138643,28.3185841 C98.586529,28.1465093 99.5943953,27.8023599 100.589971,27.0894789 L100.589971,7.75565388 C99.6189774,7.89085546 98.4636185,8.22271386 97.2959685,9.05850541 Z" id="path4370" fill="#072F54"></path>
            <path d="M117.490167,24.8156342 C116.519174,25.3687316 115.695674,25.6391347 114.95821,25.6391347 C112.831858,25.6391347 111.56588,24.2379548 111.56588,21.8903638 C111.56588,19.2232055 113.065388,17.4287119 115.290069,17.4287119 C115.880039,17.4287119 116.605211,17.6622419 117.490167,18.1293019 L117.490167,24.8156342 Z M120.784169,15.3146509 C120.784169,15.2409046 120.722714,15.1794494 120.648968,15.1794494 L118.055556,15.1794494 C117.981809,15.1794494 117.908063,15.2409046 117.908063,15.3146509 L117.908063,15.7571288 L117.846608,15.7571288 C116.654376,15.2286136 115.621927,14.9950836 114.626352,14.9950836 C111.037365,14.9950836 108.222714,17.9695182 108.222714,21.7797443 C108.222714,25.6268437 110.74238,28.2079646 114.49115,28.2079646 C115.486726,28.2079646 116.777286,28.1342183 117.981809,26.7576205 L117.981809,28.3185841 C118.829892,28.1342183 119.837758,27.7777778 120.784169,27.0894789 L120.784169,15.3146509 Z" id="path4374" fill="#072F54"></path>
            <path d="M37.4262537,24.6435595 L45.4768928,24.6435595 C45.3539823,25.5408063 45.046706,26.5978368 44.3584071,27.6671583 L35.9882006,27.6671583 C34.9680433,27.6671583 34.1199607,26.8682399 34.0216323,25.8726647 C34.0216323,25.8603736 34.0093412,25.8480826 34.0093412,25.8235005 L34.0093412,9.94346116 C34.0093412,9.93117011 34.0216323,9.91887906 34.0216323,9.906588 C34.1199607,8.89872173 34.9680433,8.09980334 35.9882006,8.09980334 L45.4646018,8.09980334 C45.3416912,8.99705015 45.0344149,10.0786627 44.333825,11.1479843 L37.4262537,11.1479843 L37.4262537,15.4744346 L44.2723697,15.4744346 C44.2969518,15.4744346 44.3215339,15.4990167 44.3215339,15.5235988 L44.3215339,18.5226155 C44.3215339,18.5471976 44.2969518,18.5717797 44.2723697,18.5717797 L37.4262537,18.5717797 L37.4262537,24.6435595 Z" id="path4378" fill="#072F54"></path>
            <path d="M27.347591,27.9252704 C26.5486726,27.9252704 26.0570305,27.2984267 26.0570305,26.5363815 C26.0570305,25.7251721 26.6224189,25.1474926 27.347591,25.1474926 C28.060472,25.1474926 28.6258604,25.712881 28.6258604,26.5363815 C28.6258604,27.359882 28.060472,27.9252704 27.347591,27.9252704 M27.347591,25 C26.5363815,25 25.8357915,25.6145526 25.8357915,26.5363815 C25.8357915,27.4090462 26.4626352,28.072763 27.347591,28.072763 C28.1465093,28.072763 28.8470993,27.4582104 28.8470993,26.5363815 C28.8470993,25.6145526 28.1588004,25 27.347591,25" id="path4382" fill="#072F54"></path>
            <path d="M26.9911504,26.413471 L26.9911504,25.8480826 L27.3721731,25.8480826 C27.5688299,25.8480826 27.7900688,25.8726647 27.7900688,26.1061947 C27.7900688,26.3888889 27.5811209,26.4011799 27.347591,26.4011799 C27.3352999,26.413471 26.9911504,26.413471 26.9911504,26.413471 Z M28.060472,26.1430678 C28.060472,25.7743363 27.839233,25.6145526 27.3967552,25.6145526 L26.7084562,25.6145526 L26.7084562,27.4336283 L27.0034415,27.4336283 L27.0034415,26.659292 L27.2861357,26.659292 L27.7531957,27.4336283 L28.0973451,27.4336283 L27.593412,26.6347099 C27.8638151,26.6101278 28.060472,26.4749263 28.060472,26.1430678 Z" id="path4386" fill="#072F54"></path>
            <path d="M123.439036,17.4778761 C122.640118,17.4778761 122.148476,16.8510324 122.148476,16.0889872 C122.148476,15.2777778 122.713864,14.7000983 123.439036,14.7000983 C124.151917,14.7000983 124.717306,15.2654867 124.717306,16.0889872 C124.717306,16.9124877 124.151917,17.4778761 123.439036,17.4778761 M123.439036,14.5648968 C122.627827,14.5648968 121.927237,15.1794494 121.927237,16.1012783 C121.927237,16.973943 122.554081,17.6376598 123.439036,17.6376598 C124.237955,17.6376598 124.938545,17.0231072 124.938545,16.1012783 C124.938545,15.1671583 124.237955,14.5648968 123.439036,14.5648968" id="path4390" fill="#072F54"></path>
            <path d="M123.070305,15.9660767 L123.070305,15.4129794 L123.451327,15.4129794 C123.647984,15.4129794 123.869223,15.4375615 123.869223,15.6710914 C123.869223,15.9537856 123.660275,15.9660767 123.426745,15.9660767 L123.070305,15.9660767 Z M124.151917,15.7079646 C124.151917,15.339233 123.930678,15.1794494 123.488201,15.1794494 L122.799902,15.1794494 L122.799902,16.9985251 L123.094887,16.9985251 L123.094887,16.2241888 L123.377581,16.2241888 L123.844641,16.9985251 L124.188791,16.9985251 L123.684857,16.1996067 C123.94297,16.1750246 124.151917,16.039823 124.151917,15.7079646 Z" id="path4394" fill="#072F54"></path>
            <path d="M16.9616519,11.1356932 L16.3839725,9.48869223 L11.4183874,2.86381514 L12.3033432,2.6425762 L20.8456244,10.0294985 L25.8726647,8.59144543 C26.4626352,8.4439528 27.1386431,8.40707965 27.6425762,8.40707965 C26.0693215,5.00245821 23.1686332,2.20009833 19.3584071,0.848082596 C11.8239921,-1.84365782 3.52753196,2.10176991 0.848082596,9.64847591 C0.0122910521,11.9837758 -0.17207473,14.392822 0.17207473,16.6789577 L12.2050147,12.5 L16.9616519,11.1356932 Z" id="path4398" fill="#072F54"></path>
            <path d="M28.1833825,9.70993117 C27.7409046,9.99262537 27.0894789,10.373648 26.4503441,10.5825959 L21.4110128,12.020649 L18.0555556,22.8121927 L17.1828909,23.0948869 L17.8957719,14.859882 L17.5024582,13.1514258 L12.7826942,14.5034415 L0.294985251,17.4164208 C1.29056047,22.2099312 4.68289086,26.4011799 9.63618486,28.1588004 C17.1828909,30.8505408 25.46706,26.9051131 28.1588004,19.3584071 C29.3141593,16.1258604 29.240413,12.73353 28.1833825,9.70993117" id="path4402" fill="#072F54"></path>
            <path d="M17.4901672,13.1391347 L17.8834808,14.847591 L17.1705998,23.0825959 L18.0432645,22.7999017 L21.3987217,12.0083579 L26.4380531,10.5703048 C27.0771878,10.3613569 27.7286136,9.99262537 28.1710914,9.69764012 C28.0113078,9.25516224 27.839233,8.82497542 27.6425762,8.39478859 C27.126352,8.39478859 26.4626352,8.4193707 25.8726647,8.57915438 L20.8456244,10.0172075 L12.3033432,2.63028515 L11.4183874,2.85152409 L16.3716814,9.47640118 L16.9493609,11.1234022 L12.1927237,12.4877089 L0.159783677,16.6666667 C0.196656834,16.9124877 0.245821042,17.1705998 0.294985251,17.4164208 L12.7704031,14.4788594 L17.4901672,13.1391347 Z" id="path4406" fill="#FBC108"></path>
        </g>
    </g>
</svg>