<?xml version="1.0" encoding="utf-8"?>
<!-- Generator: Adobe Illustrator 24.0.1, SVG Export Plug-In . SVG Version: 6.00 Build 0)  -->
<svg version="1.1" id="Ebene_1" xmlns="http://www.w3.org/2000/svg" xmlns:xlink="http://www.w3.org/1999/xlink" x="0px" y="0px"
	 viewBox="0 0 1920 1080" style="enable-background:new 0 0 1920 1080;" xml:space="preserve">
<style type="text/css">
	.st0{fill:#09233C;}
	.st1{fill:#FFFFFF;}
	.st2{font-family:'ProximaNova-Bold';}
	.st3{font-size:86.5118px;}
	.st4{fill:#39BDE7;}
	.st5{fill:#FCC505;}
	.st6{fill:#00CAF4;}
	.st7{opacity:0.6;fill:url(#SVGID_1_);}
	.st8{opacity:0.2;fill:#FFFFFF;}
	.st9{opacity:0.35;fill:#FFFFFF;}
	.st10{opacity:0.4;fill:#004972;}
	.st11{fill:#002D4F;}
	.st12{fill:url(#SVGID_2_);}
	.st13{fill:url(#SVGID_3_);}
	.st14{opacity:0.3;fill:#004972;}
	.st15{fill:#FFC600;}
	.st16{fill:url(#SVGID_4_);}
	.st17{fill:url(#SVGID_5_);}
	.st18{fill:url(#SVGID_6_);}
	.st19{opacity:0.4;fill:#B47D4F;}
	.st20{fill:#005A82;}
	.st21{fill:url(#SVGID_7_);}
	.st22{fill:#DB9927;}
	.st23{opacity:0.35;fill:#002D4F;}
	.st24{opacity:0.2;fill:#004972;}
	.st25{opacity:0.4;fill:#002D4F;}
	.st26{fill:url(#SVGID_8_);}
	.st27{opacity:0.4;fill:url(#SVGID_9_);}
	.st28{fill:none;}
	.st29{opacity:0.42;fill:#002D4F;}
	.st30{fill:#CD7F1F;}
	.st31{opacity:0.4;fill:#CD7F1F;}
	.st32{opacity:0.4;fill:#FFE700;}
	.st33{opacity:0.4;fill:#FFFF00;}
	.st34{fill:url(#SVGID_10_);}
	.st35{fill:#FFF203;}
	.st36{fill:#083256;}
	.st37{opacity:0.28;fill:url(#SVGID_11_);}
	.st38{opacity:0.31;fill:#FFFFFF;}
</style>
<path class="st0" d="M1311.6,314.5l-0.1,0.5l-1.1-1.1l-0.4,2.2l-0.2-2.2l-10.9,1.2l4,37.5l-15.1-14.8c-0.5-0.6-1-1.1-1.5-1.5
	l-0.5-0.5l0,0.1c-3.8-2.8-8.9-3.4-14.2-2.9c-4.8,0.5-9.5,2.1-13.5,5l-17.4-17l-0.1,0.6c-1.3-1.1-3-1.6-4.9-1.4
	c-3.5,0.4-6.2,3.5-5.9,7.1c0.4,3.6,3.7,6.2,7.2,5.8c0.4,0,0.8-0.1,1.2-0.2l-0.9,4.3l0.4,0.4l-5.7,0.6l1.6,14.7l-9.4-9.2l-0.1,0.3
	c-3.3-2.9-8.4-5.1-15.8-4.4c-12,1.3-19.9,10.1-19.9,21.6l-12.8-12.5l-0.1,0.5c-4-3.4-9.3-5-15.3-4.4c-12.1,1.3-19.7,11-19.3,22.4
	l-8.5-8.3c-3.7-6.8-10.1-10.1-17.6-9.3c-5.1,0.5-9.4,3.3-12.2,7.6l-0.6-5.2l-10.9,1.2l0.2,2.2l-12.9-12.6l-0.2,0.9
	c-5.8-3.4-12.7-4.7-20.6-3.9c-13.5,1.4-20.9,10.2-19.9,19.8c1.4,13.1,13.7,14.4,23.3,15.5c6.4,0.9,11.9,1.5,12.4,5.7
	c0.3,3.3-2.6,6.7-9.3,7.4c-7.9,0.8-14.6-2-19.1-5.8l-4.5,8l-28.3-27.7l0.3-1.2l-1.4,0.2l0,0l0,0l-10.3,1.1l-4.5,17.4l-16.9-16.5
	l-0.3,1.5l0,0l-11.7,1.2l8.3,15.8l-0.7,3.6l-16.4-16.1l-0.2,1c-3.8-2.7-8.9-3.4-14.2-2.8c-4.7,0.5-9.2,2.1-13.1,4.7l-16.1-15.7
	l-0.5,2.7l-0.4-3.4l-11,1.2l2.2,21.2c-3.7-3.9-8.6-5.5-13.5-5c-4.4,0.5-8.2,2.4-11,5.4l-17.3-17l-0.1,0.4c-1.4-1.4-3.3-2.1-5.4-1.9
	c-3.5,0.4-6.2,3.5-5.9,7.1c0.4,3.6,3.7,6.2,7.2,5.8c0.7-0.1,1.3-0.2,1.9-0.5l-1,4.9l-5.8,0.6l2.9,27l-2.7,0.2l-14.9-14.6
	c1.9-1.1,4-2,5.9-2.2c1.2-0.1,2.3-0.1,3,0l-1.1-10.7c-5.2,0.5-10,4-12.5,8l-0.6-5.7l-4.9,0.5L815,366.4l-0.9,4.5l-0.5-4.6l-40.6,4.3
	l6.1,57.4l7.1-0.8l-0.5,1.9l8.9,11l-13.9,1.6l-42.1-41.2l7.8-11.1l-13.4,1.4l-1.7,2.5l-15.6-15.3l-0.1-1.4l-10.9,1.2l3.4,31.9
	l-10.7-5.9l2.5-2.9c-3.2-3.5-8.7-6.6-17.2-5.7c-11.7,1.2-19.6,9.7-19.8,20.9l-12.3-12.1l-0.2,0.8c-3.8-4.2-9.8-5.2-16-4.5
	c-4.9,0.5-9.7,2.2-13.8,5.2l-16.3-15.9l-0.1-1l-10.9,1.2l2.3,21.5l-13.4-13.1l0,0.2c-2.9-4-8.1-6.6-15.4-5.8l-30.2,3.2l6.1,57.4
	l1.3-0.1l-0.1,0.5l3.3,3.3l-2.3,11.4l-3.6,0.4l1,9.4l0.6-0.1l-0.1,0.4l19.4,19.1c-8.6,2.5-13.2,9.1-12.4,16.1c0.5,4.3,2.3,7.1,4.9,9
	l-0.1,0.4l1,1l-3.2,16l-1.1,1.9c0.2,0.2,0.4,0.3,0.6,0.5l-0.3,1.5l30.1,29.6l0.6,6.6l-4.7-6.9l-24.2,2.7l0.6,5.7l8.9-1l2.8,24.6
	l1-0.1l-0.3,1.3l21.2,20.8c-14.9,6.9-23.6,21.9-21.6,39.8c1.1,9.9,5.2,18.3,11.4,24.3l-0.1,0.3L983.9,1096h943.3V930L1311.6,314.5z"
	/>
<text transform="matrix(0.9944 -0.1053 0.1053 0.9944 536.9384 453.6955)" class="st1 st2 st3">Black Friday Special</text>
<rect x="540.4" y="444.6" transform="matrix(0.9938 -0.111 0.111 0.9938 -45.2099 86.5138)" class="st4" width="428.2" height="9.4"/>
<g>
	<polygon class="st4" points="1118,404.3 1119,413.6 1286.9,394.7 1322.7,390.7 1321.7,381.3 	"/>
</g>
<g>
	<polygon class="st4" points="1007.7,416.5 1000.1,426.9 1085.7,417.7 1084.7,408.4 	"/>
</g>
<g>
	<path class="st1" d="M556.2,533.1c3.9,3.2,9.6,5.7,16.4,4.9c5.8-0.6,8.3-3.6,8-6.4c-0.4-3.6-5.1-4.1-10.6-4.9
		c-8.3-0.9-18.8-2-20.1-13.2c-0.9-8.2,5.4-15.8,17-17.1c7.8-0.9,14.6,0.8,20,4.7l-5,8.3c-4.4-3.2-9.9-4.4-14.9-3.8
		c-4.5,0.5-6.8,2.8-6.5,5.7c0.4,3.2,5,3.7,10.4,4.4c8.3,1,18.9,2.3,20.2,13.4c1,9-4.7,16.5-17.9,18c-9.5,1.1-16.6-1.4-21.7-5.5
		L556.2,533.1z"/>
	<path class="st1" d="M620.6,537.3c-2.1,3.2-6.1,5.3-10.8,5.8c-5.7,0.6-12.8-2.5-13.7-10.4c-0.9-8.3,5.4-12.1,11.1-12.8
		c4.7-0.5,9.1,0.5,11.8,3.1l-0.6-4.9c-0.4-3.6-3.8-5.6-8.5-5.1c-3.8,0.4-7.2,2.2-9.9,5.4l-4.2-5.9c3.9-4.3,9.3-6.7,15-7.4
		c8.1-0.9,15.9,1.5,17.1,11.8l2.6,23l-9.4,1L620.6,537.3z M619.5,528c-1.8-1.9-4.9-2.6-7.9-2.3c-3.7,0.4-6.5,2.7-6.1,6.1
		c0.4,3.3,3.6,4.9,7.3,4.5c3-0.3,5.9-1.7,7.2-3.9L619.5,528z"/>
	<path class="st1" d="M630.6,503.8l10-1.1l12.1,23.8l6.5-25.8l10.1-1.1L659,536.7l-10.1,1.1L630.6,503.8z"/>
	<path class="st1" d="M689.6,496.3c10.6-1.2,18.8,6,20.1,17.6l0.2,2.1l-26.5,3c1.1,4.4,5.1,7.8,11.2,7.1c3.3-0.4,7.1-2.1,9.1-4.6
		l4.8,5.6c-3.2,3.6-8.6,6-14.1,6.6c-10.9,1.2-19.9-5.2-21.1-16.6C672.1,506.7,678.8,497.5,689.6,496.3z M682.6,512.6l17.6-2
		c-0.6-3.4-3.5-7.6-9.7-6.9C684.6,504.4,682.6,509,682.6,512.6z"/>
	<path class="st5" d="M740.5,513.6c3.7,3.1,8.5,4.5,13.7,3.9c5.8-0.7,8.8-4.3,8.3-8.3c-0.5-4.4-4.1-6.9-9.7-6.3
		c-4.1,0.5-7.3,2-9.9,5.1l-7.5-1.1l-3.2-28.3l33.8-3.8l1,9.2l-23.3,2.6l1.3,12c2.1-2.6,5.9-4.8,10.4-5.3c8.3-0.9,16.5,4.2,17.6,14.2
		c1.2,10.5-5.9,17.9-17.8,19.3c-8.6,1-15.1-1.2-19.8-5.3L740.5,513.6z"/>
	<path class="st5" d="M794.8,470.9c14-1.6,21.8,10.4,23.2,23.1c1.4,12.7-3.5,26.2-17.5,27.7c-14.1,1.6-21.8-10.5-23.2-23.2
		C775.9,485.9,780.7,472.5,794.8,470.9z M795.9,480.2c-7.1,0.8-9,8.1-7.9,17.2c1,9.1,4.5,15.9,11.6,15.1c7-0.8,8.9-8.2,7.9-17.2
		C806.3,486.2,802.9,479.5,795.9,480.2z"/>
	<path class="st5" d="M832.1,466.8c7.6-0.8,13.2,4.1,13.9,11c0.8,6.9-3.6,12.7-11.2,13.5c-7.5,0.8-13.1-3.8-13.8-10.7
		C820.3,473.6,824.6,467.6,832.1,466.8z M832.8,472.6c-3.3,0.4-5.6,3.1-5.1,7.2c0.4,3.8,3.2,6.1,6.5,5.7c3.4-0.4,5.6-3.2,5.1-7
		C838.9,474.4,836.2,472.2,832.8,472.6z M858.9,464.5l5.6-0.6l-26,52.8l-5.5,0.6L858.9,464.5z M862.1,490c7.5-0.8,13.2,4.1,13.9,11
		c0.8,6.9-3.7,12.7-11.2,13.6c-7.5,0.8-13.1-3.9-13.8-10.8C850.3,496.9,854.6,490.9,862.1,490z M862.8,495.9
		c-3.4,0.4-5.6,3.2-5.1,7.2c0.4,4,3.2,6.2,6.5,5.8c3.4-0.4,5.6-3.1,5.2-7.1C869,497.7,866.2,495.5,862.8,495.9z"/>
	<path class="st1" d="M898.5,491.9c-1.1-10.1,5-19.5,16.7-20.8c11.8-1.3,19.9,6.5,21,16.6c1.1,10.2-5,19.5-16.8,20.9
		C907.6,509.8,899.6,502.1,898.5,491.9z M926.4,488.7c-0.6-5.5-4.5-10-10.3-9.3c-5.8,0.7-8.5,5.8-7.9,11.3c0.6,5.6,4.4,10,10.2,9.4
		C924.3,499.5,927.1,494.4,926.4,488.7z"/>
	<path class="st1" d="M966.8,480.5c-0.6-4.9-3.3-6.4-7.3-5.9c-3.7,0.4-6.3,2.8-7.7,5.1l2.7,24l-9.4,1l-4-35.7l9.4-1l0.5,4.7
		c2-3,6-6.3,11.9-6.9c7.8-0.9,12.1,3.1,12.9,10.1l2.8,25.2l-9.4,1L966.8,480.5z"/>
	<path class="st1" d="M1089.5,448.1l-14.4,1.6l-1-9.2l39.3-4.4l1,9.2l-14.3,1.6l4.5,40l-10.6,1.2L1089.5,448.1z"/>
	<path class="st1" d="M1141.6,432.1c14.9-1.7,27,7.8,28.6,22.6c1.7,14.8-8,26.7-22.9,28.3c-14.8,1.7-26.9-7.8-28.5-22.6
		C1117,445.6,1126.7,433.8,1141.6,432.1z M1142.6,441.4c-9.1,1-14.1,8.6-13.1,17.8c1,9.2,7.6,15.5,16.7,14.5
		c9.1-1,14.2-8.7,13.2-17.8C1158.4,446.7,1151.7,440.4,1142.6,441.4z"/>
	<path class="st1" d="M1204.1,441.6l-4.8,34.8l-11.1,1.2l-19.6-47.7l11.7-1.3l12.6,34.6l5.4-36.6l8.2-0.9l13.3,34.5l4.6-36.5
		l11.8-1.3l-8.5,50.8l-11.1,1.2L1204.1,441.6z"/>
	<path class="st1" d="M1241.1,421.8l34.8-3.9l1,9.2l-24.4,2.7l1.2,10.4l23.8-2.7l1,9.2l-23.8,2.7l1.2,11.1l24.4-2.7l1,9.2l-34.8,3.9
		L1241.1,421.8z"/>
	<path class="st1" d="M1305.9,446.7l-7.7,0.9l2,17.5l-10.5,1.2l-5.5-49.2l23-2.6c10.3-1.1,17.3,4.9,18.3,14c1,8.7-4,14-9.1,15.8
		l13.2,17.5l-12,1.3L1305.9,446.7z M1306.7,423.9l-11,1.2l1.5,13.3l11-1.2c4.2-0.5,7.1-3.3,6.6-7.5
		C1314.3,425.5,1310.9,423.4,1306.7,423.9z"/>
</g>
<g>
	<path class="st1" d="M601.2,623.1c22.9-2.6,41.4,11.9,43.9,34.7c2.5,22.8-12.3,41-35.2,43.5c-22.8,2.5-41.3-11.9-43.8-34.7
		C563.6,643.9,578.4,625.7,601.2,623.1z M602.8,637.4c-13.9,1.6-21.7,13.2-20.1,27.4c1.6,14.1,11.7,23.8,25.7,22.3
		c13.9-1.6,21.8-13.3,20.2-27.4C627,645.5,616.7,635.9,602.8,637.4z"/>
	<path class="st1" d="M693.6,657.1c-0.8-7.6-5.1-9.8-11.2-9.1c-5.7,0.6-9.7,4.3-11.8,7.9l4.1,36.8l-14.4,1.6l-6.1-54.8l14.4-1.6
		l0.8,7.1c3-4.6,9.3-9.6,18.2-10.6c12-1.3,18.6,4.8,19.8,15.5l4.3,38.7l-14.4,1.6L693.6,657.1z"/>
	<path class="st1" d="M717.5,611.4l14.4-1.6l8.4,75.6L726,687L717.5,611.4z"/>
	<path class="st1" d="M760.5,692.7c3.7-0.4,6.1-1.7,7.2-4.8l1.5-4.9l-28.4-53.1l15.4-1.7l18.5,36.5l10-39.7l15.5-1.7l-18.6,66.6
		c-2.9,10.8-9.9,14.3-19.3,15.6c-1.7,0.2-5.4,0.3-7.2,0l0.7-13.2C757.2,692.7,759.1,692.9,760.5,692.7z"/>
	<path class="st5" d="M843.2,660.2l-3.2-28.6l-9.1,1l-1.4-12.6l9.1-1l-1.7-15l14.5-1.6l1.7,15l11.1-1.2l1.4,12.6l-11.1,1.2l2.8,24.7
		c0.4,3.4,2.5,5.8,5.7,5.5c2.2-0.2,4.1-1.3,4.8-2.1l4.3,10.5c-1.9,2.2-5.6,4.2-11.6,4.9C850.3,674.5,844.3,669.9,843.2,660.2z"/>
	<path class="st5" d="M913.5,632.3c-0.8-7.6-5.1-9.5-11.3-8.8c-5.6,0.6-9.6,4.3-11.8,7.9l4.1,36.8l-14.4,1.6l-8.4-75.6l14.4-1.6
		l3.1,28c3-4.6,9.4-9.7,18.3-10.7c12-1.3,18.5,4.6,19.7,15.2l4.3,38.9l-14.4,1.6L913.5,632.3z"/>
	<path class="st5" d="M936.7,593.4c-0.5-4.8,3-8.9,7.7-9.5c4.8-0.5,9,2.8,9.6,7.5c0.5,4.8-2.9,9-7.7,9.6
		C941.7,601.5,937.3,598.1,936.7,593.4z M939.8,607.7l14.4-1.6l6.1,54.8l-14.4,1.6L939.8,607.7z"/>
	<path class="st5" d="M974.2,641.9c4.4,3.3,13,6.1,19.8,5.4c6.2-0.7,8.9-3.5,8.5-6.9c-0.4-3.7-5.5-4.2-11.7-4.7
		c-9.6-0.8-22-1.8-23.5-14.9c-1-9.2,6.1-18.1,20.5-19.7c9.3-1,17,1.3,22.9,5l-4.7,10.5c-3.7-3.1-10.2-5.3-16.9-4.5
		c-5.2,0.6-8.4,3.3-8,6.4c0.4,3.2,4.8,3.6,11,4.2c9.6,0.8,22.5,2,24,15.7c1.1,10-6.5,18.5-21.7,20.2c-9.5,1.1-19.1-1.1-25.4-5.8
		L974.2,641.9z"/>
	<path class="st5" d="M1090.1,608.6l-7.4,38.6l-15.4,1.7l-22.8-52.9l15-1.7l14.3,35.7l7.9-38.2l12.8-1.4l16.1,35.5l6.1-38l15-1.7
		l-10.6,56.6l-15.3,1.7L1090.1,608.6z"/>
	<path class="st5" d="M1163.5,581.4c16.3-1.8,28.8,9.2,30.8,27.1l0.4,3.2l-40.7,4.5c1.7,6.8,7.9,12,17.2,10.9
		c5.1-0.6,10.9-3.3,14-7.1l7.4,8.6c-4.9,5.6-13.2,9.2-21.7,10.1c-16.7,1.9-30.5-8-32.5-25.5C1136.6,597.3,1146.8,583.2,1163.5,581.4
		z M1152.6,606.4l27-3c-0.9-5.2-5.3-11.7-14.8-10.6C1155.8,593.8,1152.7,600.9,1152.6,606.4z"/>
	<path class="st5" d="M1226.2,574.4c16.3-1.8,28.8,9.2,30.8,27.1l0.4,3.2l-40.7,4.5c1.7,6.8,7.9,12,17.2,10.9
		c5.1-0.6,10.9-3.3,14-7.1l7.4,8.6c-4.9,5.6-13.2,9.2-21.7,10.1c-16.7,1.9-30.5-8-32.5-25.5C1199.3,590.3,1209.5,576.2,1226.2,574.4
		z M1215.3,599.4l27-3c-0.9-5.2-5.3-11.7-14.8-10.6C1218.5,586.8,1215.4,593.9,1215.3,599.4z"/>
	<path class="st5" d="M1288.9,602.8l-5.8,7.8l1.6,14.1l-14.4,1.6l-8.4-75.6l14.4-1.6l5.1,45.2l18-26.7l17.7-2l-18.9,27.2l25.7,27.4
		l-18,2L1288.9,602.8z"/>
	<path class="st5" d="M1321.1,544l17.3-1.9l3.4,51.3l-12.7,1.4L1321.1,544z M1336.4,601.5c5-0.6,9.7,3.2,10.2,8.2
		c0.5,4.9-3.2,9.5-8.2,10.1c-5,0.6-9.5-3.2-10.1-8.1C1327.8,606.7,1331.4,602.1,1336.4,601.5z"/>
</g>
<g>
	<path class="st1" d="M563.1,580.3l-8.9,1l-0.6-5.7l24.2-2.7l0.6,5.7l-8.8,1l2.8,24.6l-6.5,0.7L563.1,580.3z"/>
	<path class="st1" d="M598.5,587.7c-0.3-3-2-3.8-4.5-3.5c-2.2,0.2-3.9,1.7-4.7,3.1l1.6,14.8l-5.8,0.6l-3.4-30.3l5.8-0.6l1.3,11.2
		c1.2-1.8,3.8-3.9,7.3-4.3c4.8-0.5,7.4,1.8,7.9,6.1l1.7,15.6l-5.8,0.6L598.5,587.7z"/>
	<path class="st1" d="M618.9,576.2c6.5-0.7,11.5,3.7,12.3,10.9l0.1,1.3l-16.3,1.8c0.7,2.7,3.2,4.8,6.9,4.4c2-0.2,4.4-1.3,5.6-2.8
		l3,3.4c-2,2.2-5.3,3.7-8.7,4.1c-6.7,0.7-12.2-3.2-13-10.2C608.1,582.6,612.3,576.9,618.9,576.2z M614.6,586.2l10.8-1.2
		c-0.4-2.1-2.1-4.7-6-4.3C615.9,581.2,614.6,584,614.6,586.2z"/>
	<path class="st1" d="M644.9,565.4l5.8-0.6l1.2,11.2c1.5-2.4,3.8-3.8,6.4-4.1c5.6-0.6,10.2,3.3,11,10.5c0.8,7.3-2.9,12-8.4,12.6
		c-2.6,0.3-5.2-0.6-7.1-2.6l0.3,2.8l-5.8,0.6L644.9,565.4z M658.5,589.9c3.4-0.4,5.3-3.2,4.9-7c-0.4-3.8-2.9-6.2-6.3-5.8
		c-1.9,0.2-3.9,1.5-4.7,3.1l0.9,7.8C654.4,589.3,656.6,590.1,658.5,589.9z"/>
	<path class="st1" d="M682.3,569.1c6.5-0.7,11.5,3.7,12.3,10.9l0.1,1.3l-16.3,1.8c0.7,2.7,3.2,4.8,6.9,4.4c2-0.2,4.4-1.3,5.6-2.8
		l3,3.4c-2,2.2-5.3,3.7-8.7,4.1c-6.7,0.7-12.2-3.2-13-10.2C671.5,575.5,675.7,569.9,682.3,569.1z M678,579.2l10.8-1.2
		c-0.4-2.1-2.1-4.7-6-4.3C679.3,574.1,678,577,678,579.2z"/>
	<path class="st1" d="M699.8,582.9c1.8,1.3,5.2,2.5,7.9,2.2c2.5-0.3,3.6-1.4,3.4-2.8c-0.2-1.5-2.2-1.7-4.7-1.9
		c-3.9-0.3-8.8-0.7-9.4-6c-0.4-3.7,2.5-7.3,8.2-7.9c3.7-0.4,6.8,0.5,9.2,2l-1.9,4.2c-1.5-1.3-4.1-2.1-6.8-1.8
		c-2.1,0.2-3.3,1.3-3.2,2.6c0.1,1.3,1.9,1.4,4.4,1.7c3.9,0.3,9,0.8,9.6,6.3c0.4,4-2.6,7.4-8.7,8.1c-3.8,0.4-7.6-0.4-10.2-2.3
		L699.8,582.9z"/>
	<path class="st1" d="M722.2,581.9l-1.3-11.5l-3.6,0.4l-0.6-5l3.6-0.4l-0.7-6l5.8-0.7l0.7,6l4.5-0.5l0.6,5l-4.5,0.5l1.1,9.9
		c0.2,1.4,1,2.3,2.3,2.2c0.9-0.1,1.6-0.5,1.9-0.9l1.7,4.2c-0.8,0.9-2.3,1.7-4.7,1.9C725.1,587.7,722.7,585.8,722.2,581.9z"/>
	<path class="st1" d="M760.1,552c6.3-0.7,10.6,2,13.3,5.4l-5,3.5c-1.6-2-4.4-3.5-7.6-3.2c-5.5,0.6-9,5.3-8.4,11
		c0.6,5.7,5.1,9.5,10.6,8.9c2.7-0.3,5.1-1.8,6.2-3l-0.4-3.6l-8,0.9l-0.6-5.6l14.4-1.6l1.3,11.6c-2.7,3.8-6.8,6.6-12.3,7.2
		c-8.9,1-16.8-4.4-17.9-13.9C744.6,559.9,751.2,553,760.1,552z"/>
	<path class="st1" d="M777.7,553.1c-0.2-1.9,1.2-3.6,3.1-3.8c1.9-0.2,3.6,1.1,3.8,3c0.2,1.9-1.2,3.6-3.1,3.8
		C779.7,556.4,777.9,555,777.7,553.1z M779,558.9l5.8-0.6l2.5,21.9l-5.8,0.6L779,558.9z"/>
	<path class="st1" d="M793.5,574l-1.3-11.5l-3.6,0.4l-0.6-5l3.6-0.4l-0.7-6l5.8-0.7l0.7,6l4.5-0.5l0.6,5l-4.5,0.5l1.1,9.9
		c0.2,1.4,1,2.3,2.3,2.2c0.9-0.1,1.6-0.5,1.9-0.9l1.7,4.2c-0.8,0.9-2.3,1.7-4.7,1.9C796.3,579.7,793.9,577.9,793.5,574z"/>
	<path class="st1" d="M827.6,552.9c4.5-0.5,7.4,1.1,9.1,3l-3.4,4c-1.2-1.4-2.9-2.1-4.9-1.8c-3.5,0.4-5.7,3.2-5.2,7
		c0.4,3.8,3.2,6.1,6.7,5.7c2-0.2,3.5-1.3,4.4-2.9l4.2,3.1c-1.2,2.2-3.7,4.5-8.2,5c-6.8,0.8-12.2-3.5-12.9-10.2
		C816.5,559,820.9,553.6,827.6,552.9z"/>
	<path class="st1" d="M839.2,543.7l5.8-0.6l3.4,30.3l-5.8,0.6L839.2,543.7z"/>
	<path class="st1" d="M850.4,545c-0.2-1.9,1.2-3.6,3.1-3.8c1.9-0.2,3.6,1.1,3.8,3c0.2,1.9-1.2,3.6-3.1,3.8
		C852.4,548.3,850.6,546.9,850.4,545z M851.6,550.8l5.8-0.6l2.5,21.9l-5.8,0.6L851.6,550.8z"/>
	<path class="st1" d="M873,547.8c6.5-0.7,11.5,3.7,12.3,10.9l0.1,1.3l-16.3,1.8c0.7,2.7,3.2,4.8,6.9,4.4c2-0.2,4.4-1.3,5.6-2.8
		l3,3.4c-2,2.2-5.3,3.7-8.7,4.1c-6.7,0.7-12.2-3.2-13-10.2C862.3,554.2,866.4,548.6,873,547.8z M868.7,557.9l10.8-1.2
		c-0.4-2.1-2.1-4.7-6-4.3C870,552.8,868.7,555.7,868.7,557.9z"/>
	<path class="st1" d="M904.1,553.7c-0.3-3-2-3.9-4.5-3.6c-2.3,0.3-3.9,1.7-4.7,3.1l1.6,14.8l-5.8,0.6l-2.5-21.9l5.8-0.6l0.3,2.9
		c1.2-1.8,3.7-3.9,7.3-4.3c4.8-0.5,7.4,1.9,7.9,6.2l1.7,15.5l-5.8,0.6L904.1,553.7z"/>
	<path class="st1" d="M917.6,560.1l-1.3-11.5l-3.6,0.4l-0.6-5l3.6-0.4l-0.7-6l5.8-0.7l0.7,6l4.5-0.5l0.6,5l-4.5,0.5l1.1,9.9
		c0.2,1.4,1,2.3,2.3,2.2c0.9-0.1,1.6-0.5,1.9-0.9l1.7,4.2c-0.8,0.9-2.3,1.7-4.7,1.9C920.4,565.8,918,564,917.6,560.1z"/>
	<path class="st1" d="M943.4,545.6l-3.6,0.4l-0.6-5l3.6-0.4l-0.1-1.2c-0.5-4.8,2.2-8,6.6-8.5c1.6-0.2,3.2,0,4.3,0.4l-0.7,4.2
		c-0.5-0.3-1.2-0.3-1.9-0.2c-1.6,0.2-2.6,1.4-2.4,3.5l0.1,1.1l4.5-0.5l0.6,5l-4.5,0.5l1.9,16.9l-5.8,0.6L943.4,545.6z"/>
	<path class="st1" d="M956.3,550.2c-0.7-6.2,3.1-12,10.3-12.8c7.3-0.8,12.2,4,12.9,10.2c0.7,6.3-3.1,12-10.3,12.8
		C961.9,561.2,957,556.4,956.3,550.2z M973.5,548.2c-0.4-3.4-2.8-6.1-6.3-5.7c-3.6,0.4-5.3,3.6-4.9,7c0.4,3.5,2.7,6.2,6.3,5.8
		C972.2,554.9,973.9,551.7,973.5,548.2z"/>
	<path class="st1" d="M982.5,536.1l5.8-0.6l0.3,3c1.3-2.1,3.9-4,6.6-4.3l0.6,5.6c-0.4,0-1-0.1-1.6,0c-1.9,0.2-4.3,1.6-5.1,3.1
		l1.6,14.5l-5.8,0.6L982.5,536.1z"/>
	<path class="st4" d="M1037.1,530.8l-6.2,22.2l-2.8,0.3l-10.9-20.3l2.4,21.2l-6.5,0.7l-3.4-30.3l9-1l9.4,17.5l5.3-19.1l9.1-1
		l3.4,30.3l-6.5,0.7L1037.1,530.8z"/>
	<path class="st4" d="M1064.8,546.9c-1.3,1.9-3.8,3.3-6.6,3.6c-3.5,0.4-7.9-1.5-8.4-6.4c-0.6-5.1,3.4-7.5,6.9-7.9
		c2.9-0.3,5.6,0.3,7.3,1.9l-0.3-3c-0.2-2.2-2.3-3.5-5.2-3.1c-2.4,0.3-4.4,1.4-6.1,3.3l-2.6-3.6c2.4-2.7,5.7-4.1,9.2-4.5
		c5-0.6,9.8,0.9,10.5,7.2l1.6,14.2l-5.8,0.6L1064.8,546.9z M1064.1,541.1c-1.1-1.2-3-1.6-4.8-1.4c-2.3,0.3-4,1.6-3.8,3.8
		c0.2,2,2.2,3,4.5,2.8c1.9-0.2,3.6-1,4.4-2.4L1064.1,541.1z"/>
	<path class="st4" d="M1084.2,524.2c4.5-0.5,7.4,1.1,9.1,3l-3.4,4c-1.2-1.4-2.9-2.1-4.9-1.8c-3.5,0.4-5.7,3.2-5.2,7
		c0.4,3.8,3.2,6.1,6.7,5.7c2-0.2,3.5-1.3,4.4-2.9l4.2,3.1c-1.2,2.2-3.7,4.5-8.2,5c-6.8,0.8-12.2-3.5-12.9-10.2
		C1073.1,530.3,1077.5,525,1084.2,524.2z"/>
	<path class="st1" d="M1137,541.1l-7.4,0.8c-0.7-0.5-1.6-1.3-2.5-2c-2.1,2-4.7,3.4-8,3.7c-5.5,0.6-10.3-1.8-11-7.7
		c-0.5-4.6,2.3-7.3,5.6-9.5c-1.5-2.1-2.5-4.2-2.8-6.3c-0.5-4.1,2.8-7.7,7.9-8.2c4.3-0.5,8.2,1.5,8.7,5.5c0.5,4.6-2.9,7-6.5,9.1
		c1,1.1,2.1,2.2,3,3c1,1,1.9,1.9,2.9,2.8c1.1-2.1,1.8-4.3,2.1-6.2l4.9,1.6c-0.8,2.5-1.9,5.3-3.4,7.7
		C1132.5,537.4,1134.6,539.2,1137,541.1z M1123.6,536.9c-1.5-1.3-3-2.6-3.8-3.4c-1.1-1.1-2.3-2.4-3.5-3.7c-1.5,1.3-2.4,2.8-2.1,4.9
		c0.3,3,2.7,4.5,5.2,4.2C1121,538.8,1122.4,538,1123.6,536.9z M1118.5,523.6c2.5-1.5,4.3-3,4-5.2c-0.2-1.6-1.5-2.4-3-2.2
		c-1.8,0.2-3,1.7-2.8,3.6C1116.9,520.9,1117.6,522.3,1118.5,523.6z"/>
	<path class="st4" d="M1167.5,516.6l-2.9,21.4l-6.9,0.8l-12.1-29.3l7.2-0.8l7.8,21.3l3.3-22.5l5-0.6l8.2,21.3l2.8-22.5l7.3-0.8
		l-5.2,31.3l-6.9,0.8L1167.5,516.6z"/>
	<path class="st4" d="M1189.9,507.1c-0.2-1.9,1.2-3.6,3.1-3.8c1.9-0.2,3.6,1.1,3.8,3c0.2,1.9-1.2,3.6-3.1,3.8
		C1191.8,510.4,1190.1,509,1189.9,507.1z M1191.1,512.8l5.8-0.6l2.5,21.9l-5.8,0.6L1191.1,512.8z"/>
	<path class="st4" d="M1218.4,518.6c-0.3-3-2-3.9-4.5-3.6c-2.3,0.3-3.9,1.7-4.7,3.1l1.6,14.8l-5.8,0.6l-2.5-21.9l5.8-0.6l0.3,2.9
		c1.2-1.8,3.7-3.9,7.3-4.3c4.8-0.5,7.4,1.9,7.9,6.2l1.7,15.5l-5.8,0.6L1218.4,518.6z"/>
	<path class="st4" d="M1246.1,526.1c-1.5,2.4-3.8,3.8-6.4,4.1c-5.5,0.6-10.2-3.1-11-10.4c-0.8-7.2,2.8-12,8.4-12.6
		c2.6-0.3,5.2,0.6,7.1,2.6l-1.2-11.2l5.8-0.6l3.4,30.3l-5.8,0.6L1246.1,526.1z M1244.8,514c-1.1-1.3-3.3-2.2-5.3-1.9
		c-3.3,0.4-5.3,3.2-4.8,7c0.4,3.8,3,6.1,6.3,5.7c2-0.2,3.9-1.5,4.7-3.1L1244.8,514z"/>
	<path class="st4" d="M1255.4,516.8c-0.7-6.2,3.1-12,10.3-12.8c7.3-0.8,12.2,4,12.9,10.2c0.7,6.3-3.1,12-10.3,12.8
		C1261,527.8,1256.1,523,1255.4,516.8z M1272.6,514.8c-0.4-3.4-2.8-6.1-6.3-5.7c-3.6,0.4-5.3,3.6-4.9,7c0.4,3.5,2.7,6.2,6.3,5.8
		C1271.3,521.5,1273,518.3,1272.6,514.8z"/>
	<path class="st4" d="M1297.1,508.1l-3,15.5l-6.2,0.7l-9.1-21.2l6-0.7l5.7,14.3l3.2-15.3l5.1-0.6l6.5,14.2l2.4-15.2l6-0.7l-4.2,22.7
		l-6.1,0.7L1297.1,508.1z"/>
	<path class="st4" d="M1318.9,513.8c1.8,1.3,5.2,2.5,7.9,2.2c2.5-0.3,3.6-1.4,3.4-2.8c-0.2-1.5-2.2-1.7-4.7-1.9
		c-3.9-0.3-8.8-0.7-9.4-6c-0.4-3.7,2.5-7.3,8.2-7.9c3.7-0.4,6.8,0.5,9.2,2l-1.9,4.2c-1.5-1.3-4.1-2.1-6.8-1.8
		c-2.1,0.2-3.3,1.3-3.2,2.6c0.1,1.3,1.9,1.4,4.4,1.7c3.9,0.3,9,0.8,9.6,6.3c0.4,4-2.6,7.4-8.7,8.1c-3.8,0.4-7.6-0.4-10.2-2.3
		L1318.9,513.8z"/>
</g>
<g>
	<path class="st6" d="M1024,504.1l0.2,1.8c0,0.1,0.1,0.3,0.3,0.2l23.9-2.4c0.1,0,0.3-0.1,0.2-0.3l-0.2-1.8L1024,504.1z"/>
	
		<rect x="1016.2" y="444.2" transform="matrix(-0.9949 0.1011 -0.1011 -0.9949 2102.0901 793.5908)" class="st6" width="29.5" height="11.8"/>
	
		<linearGradient id="SVGID_1_" gradientUnits="userSpaceOnUse" x1="1019.5734" y1="452.589" x2="1049.0608" y2="452.589" gradientTransform="matrix(0.9949 -0.1011 0.1011 0.9949 -43.8518 104.3998)">
		<stop  offset="0.4079" style="stop-color:#FFFFFF;stop-opacity:0"/>
		<stop  offset="0.9993" style="stop-color:#FFFFFF"/>
	</linearGradient>
	<polygon class="st7" points="1015.7,445.7 1045,442.7 1046.2,454.5 1016.9,457.4 	"/>
	<polygon class="st8" points="1041.9,453.9 1046.1,453.5 1045.7,449.2 	"/>
	<polygon class="st9" points="1034,454.7 1043.6,442.9 1028.4,444.4 1018.7,456.2 	"/>
	
		<rect x="1015.7" y="444.2" transform="matrix(0.9949 -0.1011 0.1011 0.9949 -39.6976 106.4774)" class="st10" width="29.5" height="1.2"/>
	<polygon class="st8" points="1023.3,444.9 1015.7,445.7 1016.4,453.3 	"/>
	
		<rect x="1016.7" y="455" transform="matrix(-0.9949 0.1011 -0.1011 -0.9949 2103.7366 804.3448)" class="st11" width="29.5" height="1.1"/>
	
		<rect x="1036.5" y="443.9" transform="matrix(0.9949 -0.1011 0.1011 0.9949 -40.1031 107.1799)" class="st11" width="1.2" height="10.4"/>
	
		<rect x="1024.1" y="445.2" transform="matrix(0.9949 -0.1011 0.1011 0.9949 -40.2948 105.928)" class="st11" width="1.2" height="10.4"/>
	
		<linearGradient id="SVGID_2_" gradientUnits="userSpaceOnUse" x1="1027.9286" y1="457.499" x2="1027.9286" y2="447.0876" gradientTransform="matrix(0.9949 -0.1011 0.1011 0.9949 -43.8518 104.3998)">
		<stop  offset="9.631041e-02" style="stop-color:#00CAF4;stop-opacity:0"/>
		<stop  offset="0.5675" style="stop-color:#00CAF4;stop-opacity:0.2807"/>
		<stop  offset="0.5998" style="stop-color:#00CAF4;stop-opacity:0.3"/>
		<stop  offset="0.7969" style="stop-color:#00CAF4;stop-opacity:0.3"/>
		<stop  offset="1" style="stop-color:#00CAF4;stop-opacity:0.1"/>
	</linearGradient>
	<polygon class="st12" points="1025.5,455.6 1024.6,455.7 1023.6,445.3 1024.5,445.2 	"/>
	
		<linearGradient id="SVGID_3_" gradientUnits="userSpaceOnUse" x1="-14423.7715" y1="457.499" x2="-14423.7715" y2="447.0876" gradientTransform="matrix(-0.9949 0.1011 0.1011 0.9949 -13358.3145 1457.745)">
		<stop  offset="9.631041e-02" style="stop-color:#00CAF4;stop-opacity:0"/>
		<stop  offset="0.5675" style="stop-color:#00CAF4;stop-opacity:0.2807"/>
		<stop  offset="0.5998" style="stop-color:#00CAF4;stop-opacity:0.3"/>
		<stop  offset="0.7969" style="stop-color:#00CAF4;stop-opacity:0.3"/>
		<stop  offset="1" style="stop-color:#00CAF4;stop-opacity:0.1"/>
	</linearGradient>
	<polygon class="st13" points="1037.3,454.4 1038.2,454.3 1037.2,443.9 1036.3,444 	"/>
	
		<rect x="1025.3" y="445.1" transform="matrix(0.9949 -0.1011 0.1011 0.9949 -40.2839 105.9993)" class="st14" width="0.3" height="10.4"/>
	
		<rect x="1036.3" y="444" transform="matrix(0.9949 -0.1011 0.1011 0.9949 -40.114 107.109)" class="st14" width="0.3" height="10.4"/>
	<path class="st15" d="M1047.9,457.1l-0.7-2.4c0-0.1-0.2-0.2-0.3-0.2l-30.8,3.1c-0.1,0-0.2,0.1-0.2,0.2l-0.2,2.5L1047.9,457.1z"/>
	<path class="st11" d="M1054.2,462.4l-1.6-5.6c0-0.1-0.2-0.2-0.3-0.2l-41,4.2c-0.1,0-0.2,0.1-0.2,0.2l-0.4,5.8L1054.2,462.4z"/>
	
		<linearGradient id="SVGID_4_" gradientUnits="userSpaceOnUse" x1="1012.4227" y1="464.2422" x2="1056.2114" y2="464.2422" gradientTransform="matrix(0.9949 -0.1011 0.1011 0.9949 -43.8518 104.3998)">
		<stop  offset="9.631041e-02" style="stop-color:#00CAF4;stop-opacity:0"/>
		<stop  offset="0.5675" style="stop-color:#00CAF4;stop-opacity:0.2807"/>
		<stop  offset="0.5998" style="stop-color:#00CAF4;stop-opacity:0.3"/>
		<stop  offset="0.7969" style="stop-color:#00CAF4;stop-opacity:0.3"/>
		<stop  offset="1" style="stop-color:#00CAF4;stop-opacity:0.1"/>
	</linearGradient>
	<path class="st16" d="M1054.2,462.4l-1.6-5.6c0-0.1-0.2-0.2-0.3-0.2l-41,4.2c-0.1,0-0.2,0.1-0.2,0.2l-0.4,5.8L1054.2,462.4z"/>
	
		<linearGradient id="SVGID_5_" gradientUnits="userSpaceOnUse" x1="1034.3062" y1="485.2914" x2="1034.3062" y2="505.649" gradientTransform="matrix(0.9949 -0.1011 0.1011 0.9949 -43.8518 104.3998)">
		<stop  offset="0" style="stop-color:#005F8E"/>
		<stop  offset="0.724" style="stop-color:#004972"/>
		<stop  offset="0.7396" style="stop-color:#004972"/>
	</linearGradient>
	<path class="st17" d="M1020.2,484l2,19.6c0,0.4,0.4,0.6,0.7,0.6l26.7-2.7c0.4,0,0.6-0.4,0.6-0.7l-2-19.6L1020.2,484z"/>
	<path class="st11" d="M1011.3,460.8c-0.1,0-0.2,0.1-0.2,0.2l0,0.1l41.5-4.2l0-0.1c0-0.1-0.2-0.2-0.3-0.2L1011.3,460.8z"/>
	<g>
		<path class="st15" d="M1009.8,439.5l39.7-4l-0.7-2c0-0.1-0.2-0.2-0.3-0.2l-38.1,3.9c-0.1,0-0.3,0.1-0.3,0.3L1009.8,439.5z"/>
		
			<linearGradient id="SVGID_6_" gradientUnits="userSpaceOnUse" x1="1014.387" y1="438.842" x2="1054.2708" y2="438.842" gradientTransform="matrix(0.9949 -0.1011 0.1011 0.9949 -43.8518 104.3998)">
			<stop  offset="0.2037" style="stop-color:#FFD813;stop-opacity:0"/>
			<stop  offset="0.7815" style="stop-color:#FFD813"/>
		</linearGradient>
		<path class="st18" d="M1009.8,439.5l39.7-4l-0.7-2c0-0.1-0.2-0.2-0.3-0.2l-38.1,3.9c-0.1,0-0.3,0.1-0.3,0.3L1009.8,439.5z"/>
		<polygon class="st19" points="1009.8,439.5 1049.5,435.5 1049.3,434.9 1009.9,439 		"/>
	</g>
	<path class="st11" d="M1008.9,446.8l42.9-4.4c0.1,0,0.2-0.1,0.2-0.2l0.3-7l-45.4,4.6l1.7,6.8
		C1008.7,446.7,1008.8,446.8,1008.9,446.8z"/>
	<polygon class="st20" points="1007.1,440.2 1052.3,435.6 1052.4,435.2 1007,439.8 	"/>
	
		<linearGradient id="SVGID_7_" gradientUnits="userSpaceOnUse" x1="1018.1379" y1="459.9217" x2="1050.4962" y2="459.9217" gradientTransform="matrix(0.9949 -0.1011 0.1011 0.9949 -43.8518 104.3998)">
		<stop  offset="0.2037" style="stop-color:#FFD813;stop-opacity:0"/>
		<stop  offset="0.7815" style="stop-color:#FFD813"/>
	</linearGradient>
	<path class="st21" d="M1047.9,457.1l-0.7-2.4c0-0.1-0.2-0.2-0.3-0.2l-30.8,3.1c-0.1,0-0.2,0.1-0.2,0.2l-0.2,2.5L1047.9,457.1z"/>
	<polygon class="st22" points="1047.9,457.1 1047.7,456.3 1015.8,459.5 1015.7,460.3 	"/>
	<polygon class="st23" points="1054.2,462.4 1053.8,461.1 1010.7,465.4 1010.6,466.8 	"/>
	
		<rect x="1023.9" y="502.9" transform="matrix(0.9949 -0.1011 0.1011 0.9949 -45.561 107.3624)" class="st24" width="24.5" height="0.4"/>
	<path class="st25" d="M1027.3,483.3l-7.1,0.7l2,19.6c0,0.4,0.4,0.6,0.7,0.6l6.5-0.7L1027.3,483.3z"/>
	
		<linearGradient id="SVGID_8_" gradientUnits="userSpaceOnUse" x1="1044.8243" y1="485.2916" x2="1044.8243" y2="505.649" gradientTransform="matrix(0.9949 -0.1011 0.1011 0.9949 -43.8518 104.3998)">
		<stop  offset="3.306878e-04" style="stop-color:#008DC4"/>
		<stop  offset="0.5406" style="stop-color:#0072A7"/>
	</linearGradient>
	<path class="st26" d="M1050.2,500.8l-2-19.6l-7.1,0.7l2.1,20.3l6.5-0.7C1050,501.5,1050.3,501.1,1050.2,500.8z"/>
	<path class="st15" d="M1058.3,466.9l-1.5-4.3c-0.1-0.2-0.3-0.4-0.6-0.4l-47.5,4.8c-0.3,0-0.5,0.2-0.5,0.5l-0.6,4.5
		c0,0.1,0,0.2,0.1,0.2l9.6,11.8c0.1,0.1,0.3,0.2,0.4,0.2l33.2-3.4c0.2,0,0.3-0.1,0.4-0.3l7-13.5
		C1058.3,467.1,1058.3,467,1058.3,466.9z"/>
	
		<linearGradient id="SVGID_9_" gradientUnits="userSpaceOnUse" x1="1023.859" y1="488.9654" x2="1041.8938" y2="457.7282" gradientTransform="matrix(0.9949 -0.1011 0.1011 0.9949 -43.8518 104.3998)">
		<stop  offset="0.2037" style="stop-color:#FFD813;stop-opacity:0"/>
		<stop  offset="0.7815" style="stop-color:#FFD813"/>
	</linearGradient>
	<path class="st27" d="M1058.3,466.9l-1.5-4.3c-0.1-0.2-0.3-0.4-0.6-0.4l-47.5,4.8c-0.3,0-0.5,0.2-0.5,0.5l-0.6,4.5
		c0,0.1,0,0.2,0.1,0.2l9.6,11.8c0.1,0.1,0.3,0.2,0.4,0.2l33.2-3.4c0.2,0,0.3-0.1,0.4-0.3l7-13.5
		C1058.3,467.1,1058.3,467,1058.3,466.9z"/>
	<path class="st28" d="M1058.3,466.9l-1.5-4.3c-0.1-0.2-0.3-0.4-0.6-0.4l-47.5,4.8c-0.3,0-0.5,0.2-0.5,0.5l-0.6,4.5
		c0,0.1,0,0.2,0.1,0.2l9.6,11.8c0.1,0.1,0.3,0.2,0.4,0.2l33.2-3.4c0.2,0,0.3-0.1,0.4-0.3l7-13.5
		C1058.3,467.1,1058.3,467,1058.3,466.9z"/>
	<path class="st22" d="M1007.5,472.2C1007.5,472.2,1007.6,472.2,1007.5,472.2l9.7,11.9c0.1,0.1,0.3,0.2,0.4,0.2l33.2-3.4
		c0.2,0,0.3-0.1,0.4-0.3l7-13.5c0,0,0-0.1,0-0.1L1007.5,472.2z"/>
	
		<rect x="1020.2" y="482.6" transform="matrix(0.9949 -0.1011 0.1011 0.9949 -43.5834 107.0713)" class="st29" width="28.2" height="1.6"/>
	<path class="st30" d="M1027,483.1l-9.7-11.9l0,0l-9.8,1c0,0,0,0.1,0.1,0.1l9.6,11.8c0.1,0.1,0.3,0.2,0.4,0.2l9.8-1
		C1027.3,483.3,1027.1,483.3,1027,483.1z"/>
	<path class="st31" d="M1017.4,471l0.7-4.8c0-0.1,0.1-0.2,0.2-0.2l-9.6,1c-0.3,0-0.5,0.2-0.5,0.5l-0.6,4.5c0,0,0,0,0,0L1017.4,471z"
		/>
	<path class="st32" d="M1041.4,481.6l7.1-13.6l0,0l9.8-1c0,0,0,0.1,0,0.1l-7,13.5c-0.1,0.2-0.2,0.3-0.4,0.3l-9.8,1
		C1041.2,481.9,1041.4,481.8,1041.4,481.6z"/>
	<path class="st33" d="M1048.5,467.9l-1.6-4.5c0-0.1-0.2-0.2-0.3-0.2l9.6-1c0.3,0,0.5,0.1,0.6,0.4l1.5,4.3c0,0,0,0,0,0L1048.5,467.9
		z"/>
	<polygon class="st33" points="1007.5,472.2 1058.3,467 1058.1,466.5 1007.6,471.7 	"/>
	
		<linearGradient id="SVGID_10_" gradientUnits="userSpaceOnUse" x1="1011.5089" y1="443.3364" x2="1057.1489" y2="443.3364" gradientTransform="matrix(0.9949 -0.1011 0.1011 0.9949 -43.8518 104.3998)">
		<stop  offset="9.631041e-02" style="stop-color:#00CAF4;stop-opacity:0"/>
		<stop  offset="0.5675" style="stop-color:#00CAF4;stop-opacity:0.2807"/>
		<stop  offset="0.5998" style="stop-color:#00CAF4;stop-opacity:0.3"/>
		<stop  offset="0.7969" style="stop-color:#00CAF4;stop-opacity:0.3"/>
		<stop  offset="1" style="stop-color:#00CAF4;stop-opacity:0.1"/>
	</linearGradient>
	<polygon class="st34" points="1052,442 1052.4,435.2 1007,439.8 1008.7,446.4 	"/>
	<path class="st35" d="M1016.1,457.6c-0.1,0-0.2,0.1-0.2,0.2l0,0.1l31.3-3.2l0-0.1c0-0.1-0.2-0.2-0.3-0.2L1016.1,457.6z"/>
</g>
<g>
	<g>
		<polygon class="st36" points="1084.7,1084.7 1596.5,1084.7 1203.1,698.7 1007.7,722.7 1037.7,752.1 928,765.5 970,806.8 
			820.8,825.1 		"/>
		<linearGradient id="SVGID_11_" gradientUnits="userSpaceOnUse" x1="1170.1157" y1="738.3918" x2="1170.1157" y2="1084.655">
			<stop  offset="0" style="stop-color:#39BDE7"/>
			<stop  offset="0.7343" style="stop-color:#39BDE7;stop-opacity:0"/>
		</linearGradient>
		<polygon class="st37" points="1084.7,1084.7 1519.4,1084.7 1166.6,738.4 971.2,762.4 1001.2,791.8 959.9,796.8 970,806.8 
			820.8,825.1 		"/>
		
			<rect x="814.9" y="721.7" transform="matrix(0.9936 -0.1131 0.1131 0.9936 -79.7986 119.2532)" class="st4" width="392.8" height="82.7"/>
		<polygon class="st38" points="1201.8,700.8 1201.8,699.7 811.4,744.1 811.6,745.2 		"/>
	</g>
	<path class="st0" d="M1111.9,762.8c-3.7,0.4-6.1-1.6-6.8-4.3l16.1-1.8l-0.1-1.3c-0.8-7.1-5.7-11.4-12.2-10.7
		c-6.6,0.7-10.6,6.3-9.9,12.6c0.8,7,6.3,10.8,12.9,10.1c3.4-0.4,6.7-1.8,8.6-4l-2.9-3.4C1116.2,761.5,1113.9,762.6,1111.9,762.8z
		 M1109.4,749.2c3.8-0.4,5.5,2.1,5.9,4.2l-10.7,1.2C1104.6,752.4,1105.9,749.6,1109.4,749.2z M938.1,776.1
		c-0.8-7.1-5.7-11.4-12.2-10.7c-6.6,0.7-10.6,6.3-9.9,12.6c0.8,7,6.3,10.8,12.9,10.1c3.4-0.4,6.7-1.8,8.6-4l-2.9-3.4
		c-1.2,1.5-3.5,2.6-5.5,2.8c-3.7,0.4-6.1-1.6-6.8-4.3l16.1-1.8L938.1,776.1z M921.6,775.3c0-2.2,1.2-5,4.8-5.4
		c3.8-0.4,5.5,2.1,5.9,4.2L921.6,775.3z M1067.2,749.4c-7.1,0.8-10.8,6.5-10.2,12.6c0.7,6.2,5.6,10.9,12.7,10.1
		c7.2-0.8,10.9-6.5,10.2-12.7C1079.3,753.3,1074.4,748.6,1067.2,749.4z M1069.2,767.1c-3.5,0.4-5.8-2.3-6.2-5.7
		c-0.4-3.4,1.3-6.5,4.8-6.9c3.5-0.4,5.9,2.3,6.3,5.6C1074.5,763.5,1072.8,766.7,1069.2,767.1z M901.5,785l-2.8-24.3l-6.4,0.7
		l3.4,29.9l19-2.2l-0.6-5.6L901.5,785z M950.1,762.7c-3.4,0.4-6.7,1.8-9.1,4.5l2.6,3.6c1.6-1.9,3.7-3,6-3.3c2.9-0.3,4.9,0.9,5.2,3.1
		l0.3,3c-1.6-1.6-4.3-2.2-7.2-1.9c-3.5,0.4-7.3,2.7-6.8,7.8c0.5,4.8,4.9,6.7,8.3,6.3c2.8-0.3,5.3-1.6,6.5-3.6l0.3,2.2l5.7-0.6
		l-1.6-14C959.8,763.6,955.1,762.1,950.1,762.7z M951.5,781.6c-2.2,0.3-4.2-0.7-4.4-2.7c-0.2-2.1,1.5-3.5,3.7-3.7
		c1.8-0.2,3.7,0.2,4.8,1.4l0.3,2.7C955,780.6,953.3,781.4,951.5,781.6z M1089,750.5l-0.3-3l-5.7,0.6l2.5,21.7l5.7-0.6l-1.6-14.3
		c0.8-1.5,3.2-2.9,5.1-3.1c0.6-0.1,1.2,0,1.6,0l-0.6-5.6C1092.8,746.5,1090.3,748.4,1089,750.5z M1041.6,744.5l-5.2,18.9l-9.3-17.2
		l-8.9,1l3.4,29.9l6.4-0.7l-2.4-20.9l10.8,20l2.8-0.3l6.1-21.9l2.4,20.9l6.4-0.7l-3.4-29.9L1041.6,744.5z M994.7,757.6
		c-3.5,0.4-6,2.4-7.2,4.2l-0.3-2.8l-5.7,0.6l2.5,21.7l5.7-0.6l-1.7-14.6c0.8-1.4,2.4-2.9,4.6-3.1c2.4-0.3,4.1,0.6,4.4,3.6l1.5,13.1
		l5.7-0.6l-1.7-15.3C1002,759.5,999.4,757.1,994.7,757.6z M971.3,763.8l-0.3-3l-5.7,0.6l2.5,21.7l5.7-0.6l-1.6-14.3
		c0.8-1.5,3.2-2.9,5.1-3.1c0.6-0.1,1.2,0,1.6,0l-0.6-5.6C975.2,759.9,972.6,761.7,971.3,763.8z"/>
</g>
</svg>
