<svg viewBox="0 0 133 27" xmlns="http://www.w3.org/2000/svg" xmlns:xlink="http://www.w3.org/1999/xlink">
  <defs>
    <path id="a" d="M.115.134h21.279v25.43H.114z"/>
    <path id="c" d="M.222.697H27.25V27H.22z"/>
    <path id="e" d="M0 .133h21.071v25.431H0z"/>
  </defs>
  <g fill="none" fill-rule="evenodd">
    <g transform="translate(111 .303)">
      <mask id="b" fill="#fff">
        <use xlink:href="#a"/>
      </mask>
      <path d="M15.664 8.889c0 2.144-1.562 3.597-4.287 3.597H5.709V5.183h5.559c2.725 0 4.396 1.236 4.396 3.634v.072zm5.592 15.45l-5.374-7.857c3.233-1.2 5.449-3.778 5.449-7.884v-.072c0-5.231-3.597-8.392-9.591-8.392H.897a.782.782 0 0 0-.782.782v23.866c0 .432.35.782.782.782h4.03c.432 0 .782-.35.782-.782v-7.355h4.396l5.217 7.79a.782.782 0 0 0 .65.347h4.638a.782.782 0 0 0 .646-1.224z" fill="#5F6F78" mask="url(#b)"/>
    </g>
    <path d="M85.383.436h-4.18a.782.782 0 0 0-.747.554l-5.098 16.666L69.83.9a.782.782 0 0 0-.743-.537h-3.663A.783.783 0 0 0 64.68.9l-5.526 16.755L54.055.99a.782.782 0 0 0-.747-.554h-4.324a.782.782 0 0 0-.741 1.034l8.152 24.047a.784.784 0 0 0 .74.53h3.75c.334 0 .63-.211.74-.526L67.184 9.41l5.558 16.11a.783.783 0 0 0 .739.528h3.75a.784.784 0 0 0 .74-.531L86.125 1.47a.782.782 0 0 0-.741-1.034m21.891 20.454H94.252v-5.34h11.207a.783.783 0 0 0 .782-.784v-3.412a.782.782 0 0 0-.782-.781H94.252v-5.16h12.841c.432 0 .783-.35.783-.783V1.22a.784.784 0 0 0-.783-.784H89.477a.784.784 0 0 0-.783.784v23.865c0 .433.351.782.783.782h17.798c.432 0 .783-.35.783-.782v-3.412a.784.784 0 0 0-.783-.782" fill="#5F6F78"/>
    <g transform="translate(21 -.697)">
      <mask id="d" fill="#fff">
        <use xlink:href="#c"/>
      </mask>
      <path d="M21.402 13.921c0 4.36-3.124 7.92-7.63 7.92-4.504 0-7.701-3.633-7.701-7.993v-.073c0-4.359 3.124-7.919 7.63-7.919 4.504 0 7.7 3.633 7.7 7.992v.073zM13.772.697C5.927.697.223 6.62.223 13.848v.073c0 7.23 5.63 13.08 13.479 13.08 7.847 0 13.55-5.923 13.55-13.153v-.073C27.25 6.546 21.62.697 13.773.697z" fill="#5F6F78" mask="url(#d)"/>
    </g>
    <g transform="translate(0 .303)">
      <mask id="f" fill="#fff">
        <use xlink:href="#e"/>
      </mask>
      <path d="M20.288.133H.782A.784.784 0 0 0 0 .916V4.51c0 .386.28.704.647.77h7.092v19.5c0 .433.35.783.782.783h4.03c.432 0 .782-.35.782-.783V5.278h7.094a.782.782 0 0 0 .645-.769V.916a.784.784 0 0 0-.783-.783" fill="#5F6F78" mask="url(#f)"/>
    </g>
  </g>
</svg>